<?xml version="1.0" standalone="no"?>
<!DOCTYPE svg PUBLIC "-//W3C//DTD SVG 20010904//EN"
 "http://www.w3.org/TR/2001/REC-SVG-20010904/DTD/svg10.dtd">
<svg version="1.0" xmlns="http://www.w3.org/2000/svg"
 width="1280.000000pt" height="786.000000pt" viewBox="0 0 1280.000000 786.000000"
 preserveAspectRatio="xMidYMid meet">
<g transform="translate(0.000000,786.000000) scale(0.100000,-0.100000)"
fill = "#c7b299" stroke="none">
<path d="M6996 6933 c-4 -4 -1358 -8 -3009 -9 -3269 -1 -3051 3 -3124 -53 -64
-50 -109 -73 -156 -81 -83 -13 -82 -8 -83 -278 -1 -130 5 -309 12 -397 7 -88
18 -243 25 -345 7 -114 17 -195 25 -212 16 -31 77 -69 155 -97 79 -28 195 -80
354 -156 77 -37 179 -82 226 -100 110 -43 341 -147 583 -264 104 -50 225 -107
270 -126 44 -18 109 -47 144 -64 34 -17 64 -31 66 -31 3 0 67 -30 143 -66 149
-71 330 -154 338 -154 8 0 290 -131 370 -172 44 -23 109 -67 145 -98 36 -31
77 -63 91 -72 30 -19 172 -296 188 -368 14 -58 14 -279 1 -395 -16 -136 -57
-329 -88 -409 -21 -53 -54 -104 -131 -200 -172 -216 -371 -381 -572 -475 -88
-41 -146 -89 -154 -126 -3 -11 -12 -63 -21 -115 -23 -141 -29 -154 -95 -213
-101 -92 -104 -103 -104 -427 1 -151 6 -336 13 -410 7 -74 15 -168 17 -209 7
-101 39 -171 89 -195 21 -10 41 -29 47 -44 19 -49 58 -55 135 -21 47 21 53 22
174 9 267 -27 319 -29 351 -13 15 7 114 14 259 18 343 10 340 10 405 -2 95
-17 143 12 172 105 13 40 24 57 46 69 16 8 57 35 91 60 148 109 280 150 601
188 146 17 594 38 815 38 262 0 619 -37 763 -78 27 -8 61 -12 76 -9 20 4 35
-1 57 -20 17 -13 64 -41 106 -61 90 -43 247 -174 289 -239 26 -42 30 -45 54
-36 34 13 75 13 128 -1 37 -11 49 -9 91 10 55 24 77 26 94 9 6 -6 49 -14 95
-16 71 -4 91 -1 133 18 62 28 150 34 329 22 98 -6 150 -14 174 -26 30 -16 36
-16 72 -2 49 20 106 20 139 1 26 -15 97 -18 140 -6 31 9 70 74 70 119 0 18 6
45 14 60 7 15 16 58 20 95 4 38 16 106 26 150 11 45 20 98 20 117 0 55 -42
175 -104 298 -44 87 -58 125 -60 166 -8 130 -109 271 -414 576 -253 252 -385
405 -495 572 -119 181 -135 219 -146 345 -6 68 -6 138 0 188 5 44 7 100 4 125
-5 33 -1 57 13 90 11 25 25 85 31 133 14 104 55 201 136 321 75 111 117 153
199 199 111 61 171 77 346 87 363 21 426 30 771 99 523 106 788 174 1154 296
310 104 487 179 822 350 440 225 829 480 1013 665 59 58 204 241 256 322 82
126 115 350 67 448 -40 80 -148 132 -308 149 -55 5 -424 14 -820 18 -846 9
-893 9 -1395 0 -616 -11 -1173 -13 -1198 -4 -12 5 -34 27 -48 49 -27 43 -73
68 -125 68 -18 0 -80 15 -138 34 -88 29 -128 36 -231 41 -116 7 -128 9 -168
36 -24 16 -47 29 -51 29 -4 0 -44 22 -88 48 l-81 49 -319 7 c-175 3 -323 3
-327 -1z"/>
</g>
</svg>
