<svg id="Capa_1" enable-background="new 0 0 512 512" height="512" viewBox="0 0 512 512" width="512" xmlns="http://www.w3.org/2000/svg" fill = "#c7b299" ><ellipse cx="256" cy="45.176" rx="45.177" ry="45.176" transform="matrix(.924 -.383 .383 .924 2.199 101.406)"/><path d="m176.969 222h158.062c8.263 0 14.327-7.762 12.328-15.78l-11.803-47.339c-5.645-22.64-25.981-38.528-49.314-38.528h-60.485c-23.333 0-43.669 15.888-49.314 38.528l-11.803 47.339c-1.999 8.018 4.066 15.78 12.329 15.78z"/><path d="m511.622 167.206c-.035-15.415-11.481-28.421-26.767-30.415-18.402-2.4-34.72 11.927-34.72 30.486l.001 59.939c5.122 2.349 9.919 5.625 14.131 9.837 9.228 9.229 14.31 21.497 14.31 34.547 0 13.051-5.082 25.319-14.31 34.546l-64.661 64.661c-2.929 2.929-6.768 4.394-10.606 4.394s-7.678-1.465-10.606-4.394c-5.858-5.857-5.858-15.355 0-21.213l64.661-64.661c3.561-3.562 5.522-8.296 5.522-13.333 0-5.036-1.961-9.771-5.523-13.333-7.351-7.35-19.313-7.351-26.666 0l-45.375 45.376c-3.69 3.69-8.824 5.05-13.583 4.091l-16.991-1.015c-10.165-1.169-20.307 2.366-27.543 9.601l-24.322 24.322c-11.253 11.252-17.574 26.513-17.574 42.426v118.932c0 5.523 4.477 10 10 10h106c5.523 0 10-4.477 10-10v-33.511l100.268-100.269c9.461-9.461 14.762-22.301 14.732-35.68z"/><path d="m199.104 316.32c-7.235-7.235-17.378-10.771-27.543-9.601l-16.987 1.015c-4.76.961-9.896-.399-13.587-4.091l-45.375-45.376c-7.352-7.352-19.315-7.353-26.666.001-3.561 3.561-5.522 8.296-5.522 13.332 0 5.037 1.961 9.771 5.522 13.333l64.661 64.661c5.858 5.857 5.858 15.355 0 21.213-2.929 2.929-6.768 4.394-10.606 4.394-3.839 0-7.677-1.464-10.606-4.394l-64.661-64.661c-9.228-9.227-14.31-21.495-14.31-34.546 0-13.05 5.082-25.318 14.309-34.546 4.212-4.212 9.01-7.489 14.132-9.838l.001-59.939c0-18.558-16.317-32.886-34.72-30.486-15.286 1.994-26.732 15-26.767 30.415l-.379 165.334c-.031 13.379 5.271 26.22 14.732 35.68l100.268 100.269v33.511c0 5.523 4.477 10 10 10h106c5.523 0 10-4.477 10-10v-118.932c0-15.913-6.321-31.174-17.574-42.426z"/></svg>