<?xml version="1.0" encoding="UTF-8"?>
<svg preserveAspectRatio="xMidYMid slice" width="480px" height="240px" xmlns="http://www.w3.org/2000/svg" id="230c2fc7-805a-476f-9df7-a679667582d1" data-name="Layer 1" viewBox="0 0 960 480">
  <title>Bamboria-Icons-2</title>
  <path d="M678.48,345l19.73,54.52-60.13-24.12a155.74,155.74,0,0,1-67.19,14.8c-71.63,0-129.68-45.85-129.68-102.42s58.05-102.42,129.68-102.42,129.69,45.85,129.69,102.42C700.58,309,692.44,328.64,678.48,345Z" style="fill:#e2dde5"></path>
  <path d="M446.44,305.6c9.86,49.34,62.61,87,126.21,87A150.37,150.37,0,0,0,637,378.53l61.24,21-19.48-52.73c13.74-16.53,21.77-36.45,21.77-57.9,0-57.3-57.24-103.75-127.85-103.75-8.83,0-17.52.38-25.78,2.11" style="fill:none;stroke:#442358;stroke-linecap:round;stroke-linejoin:round;stroke-width:18px"></path>
  <path d="M512.59,163a79.77,79.77,0,0,1,2.54,21.3c0,57.29-57.24,103.74-127.86,103.74a150.27,150.27,0,0,1-64.33-14.08l-61.23,21,19.47-52.73c-13.74-16.53-21.76-36.46-21.76-57.9,0-57.3,57.23-103.75,127.85-103.75,27.75,0,53.44,7.18,74.4,19.36" style="fill:#fff;stroke:#442358;stroke-linecap:round;stroke-linejoin:round;stroke-width:18px"></path>
  <path d="M387.66,203.12V186.67a2.68,2.68,0,0,1,2.5-2.62,25.29,25.29,0,1,0-22.62-40.46" style="fill:none;stroke:#442358;stroke-linecap:round;stroke-width:14px"></path>
  <line x1="387.66" y1="235.74" x2="387.66" y2="227.47" style="fill:#231f20;stroke:#442358;stroke-linecap:round;stroke-width:14px"></line>
  <circle id="8dc0db94-518b-420b-8cc0-ef8f91a0e357" data-name="Oval-2" cx="488.89" cy="130.04" r="25.41" style="fill:#7d4fa0"></circle>
  <line x1="524.04" y1="295.98" x2="641.15" y2="295.98" style="fill:none;stroke:#442358;stroke-linecap:round;stroke-linejoin:round;stroke-width:14px"></line>
  <line x1="524.63" y1="258" x2="641.74" y2="258" style="fill:none;stroke:#442358;stroke-linecap:round;stroke-linejoin:round;stroke-width:14px"></line>
  <line x1="524.04" y1="329.54" x2="587.33" y2="329.54" style="fill:none;stroke:#442358;stroke-linecap:round;stroke-linejoin:round;stroke-width:14px"></line>
</svg>
