<?xml version="1.0" standalone="no"?>
<!DOCTYPE svg PUBLIC "-//W3C//DTD SVG 20010904//EN"
 "http://www.w3.org/TR/2001/REC-SVG-20010904/DTD/svg10.dtd">
<svg version="1.0" xmlns="http://www.w3.org/2000/svg"
 width="853.000000pt" height="1280.000000pt" viewBox="0 0 853.000000 1280.000000"
 preserveAspectRatio="xMidYMid meet">
<metadata>
Created by potrace 1.15, written by Peter Selinger 2001-2017
</metadata>
<g transform="translate(0.000000,1280.000000) scale(0.100000,-0.100000)"
fill="#000000" stroke="none">
<path d="M3269 12796 c-2 -2 -33 -7 -69 -10 -76 -7 -285 -41 -285 -46 0 -2
-31 -7 -85 -15 -71 -10 -200 -56 -200 -72 0 -11 14 -12 68 -7 37 3 81 10 97
14 31 9 86 15 220 27 44 4 222 7 395 7 345 1 382 -3 578 -66 125 -40 134 -37
148 35 7 31 17 64 24 72 16 19 6 32 -38 46 -35 11 -843 25 -853 15z"/>
<path d="M4559 12796 c-2 -2 -38 -7 -79 -10 -41 -4 -83 -9 -92 -12 -20 -6 -23
-25 -8 -40 12 -12 20 -42 27 -96 6 -47 21 -48 131 -13 94 30 192 53 269 63 75
9 518 9 648 0 236 -17 270 -21 275 -28 8 -12 180 -22 180 -10 0 19 -136 66
-280 96 -204 42 -269 46 -671 50 -218 2 -398 2 -400 0z"/>
<path d="M765 12763 c-27 -15 -72 -30 -100 -35 -54 -10 -57 -10 -155 -27 -203
-34 -309 -121 -438 -361 -65 -121 -72 -159 -72 -365 0 -195 17 -299 60 -372
11 -19 20 -40 20 -48 0 -7 3 -15 8 -17 4 -1 33 -42 65 -90 145 -217 386 -362
672 -404 125 -18 122 -17 129 -51 8 -36 -37 -215 -63 -251 -35 -50 -165 -152
-191 -152 -6 0 -24 -7 -39 -15 -16 -8 -46 -16 -67 -19 -22 -2 -39 -5 -39 -6 0
-1 -18 -3 -40 -5 -45 -5 -149 21 -140 35 3 5 -1 15 -8 22 -21 19 -8 48 24 55
40 8 44 30 10 63 -25 25 -34 28 -67 23 -77 -11 -119 -106 -76 -171 l15 -23
-44 17 c-49 19 -72 34 -64 42 3 3 -4 15 -15 27 -17 18 -18 28 -11 94 7 67 11
77 40 102 62 52 173 65 179 22 4 -30 64 -80 109 -92 21 -5 66 -12 101 -15 34
-3 80 -11 102 -17 50 -15 69 -3 54 33 -37 83 -61 121 -80 128 -12 5 -25 14
-29 20 -18 29 -100 70 -139 70 -40 -1 -82 -21 -69 -33 3 -4 1 -7 -5 -7 -6 0
-13 4 -17 9 -3 5 -30 13 -61 17 -54 6 -56 7 -50 33 18 76 18 94 1 146 -9 30
-21 55 -27 55 -6 0 -26 14 -45 31 -33 28 -39 30 -92 25 -74 -8 -111 -44 -111
-110 0 -57 20 -76 51 -47 26 24 61 27 82 6 8 -8 18 -11 22 -7 5 4 5 1 1 -5 -4
-7 -2 -22 4 -32 17 -33 1 -100 -34 -140 -74 -84 -90 -120 -93 -205 -2 -69 1
-85 23 -122 14 -23 36 -53 50 -67 20 -20 22 -27 12 -34 -24 -15 -52 -67 -53
-97 0 -37 52 -96 86 -96 28 0 69 37 62 56 -3 8 -13 14 -23 14 -13 0 -16 6 -12
25 2 14 9 29 16 33 14 9 309 11 299 2 -5 -4 -46 -35 -93 -70 -102 -75 -190
-159 -190 -179 0 -12 -3 -12 -12 -3 -34 34 -82 5 -134 -80 l-38 -62 2 -120 c2
-118 21 -216 43 -216 5 0 11 -11 15 -24 7 -31 41 -63 53 -50 5 5 18 32 29 60
10 29 53 96 95 150 95 124 142 238 107 259 -6 4 -8 10 -5 15 3 4 -7 16 -22 25
l-27 18 43 38 c24 21 111 82 195 135 202 129 272 181 349 263 95 101 157 241
157 356 0 67 14 95 49 95 38 0 191 45 273 80 163 70 338 205 440 339 74 98
143 247 176 381 32 129 48 161 95 183 35 17 61 7 39 -15 -18 -18 -14 -50 11
-80 51 -62 134 -54 174 17 12 22 23 49 23 60 0 29 -34 120 -45 120 -6 0 -16 4
-24 9 -20 13 5 26 50 26 59 0 181 36 285 84 129 59 204 76 337 76 92 0 109 2
114 17 4 9 1 19 -5 21 -7 2 -10 8 -6 13 3 5 0 9 -7 9 -6 0 -35 19 -63 43 -111
94 -236 162 -356 194 -97 25 -292 22 -384 -6 -90 -28 -130 -53 -166 -106 -35
-51 -38 -85 -10 -110 19 -17 18 -18 -48 -41 -82 -29 -132 -36 -132 -19 0 7
-22 47 -50 89 -52 80 -57 97 -40 158 19 67 74 87 115 42 28 -31 48 -27 69 13
12 23 12 36 3 66 -7 20 -16 37 -21 37 -4 0 -22 12 -39 26 -27 22 -37 25 -84
21 -65 -6 -95 -24 -130 -80 -22 -34 -27 -52 -25 -94 l3 -52 -78 45 c-43 24
-100 51 -128 60 -67 20 -208 36 -254 28 -345 -58 -453 -128 -580 -379 -38 -75
-55 -122 -67 -190 -14 -75 -22 -94 -45 -116 -28 -25 -31 -26 -71 -14 -23 6
-44 18 -46 26 -3 8 -9 17 -14 20 -19 12 12 57 58 84 l47 28 -34 28 c-29 25
-42 29 -91 27 -81 -2 -124 -29 -168 -105 -31 -54 -35 -69 -34 -126 2 -57 6
-70 39 -115 87 -121 204 -150 335 -82 46 24 117 96 141 143 21 40 31 44 69 22
14 -8 48 -14 77 -15 41 0 58 5 82 25 40 35 58 88 40 124 -24 45 -59 66 -59 34
0 -20 -53 -69 -58 -54 -2 6 -15 11 -28 11 -19 0 -28 8 -35 30 -6 17 -16 30
-21 30 -18 0 -2 116 23 167 36 77 150 183 246 231 88 43 140 55 213 50 l45 -3
-55 -26 c-73 -34 -123 -79 -160 -144 -25 -43 -30 -63 -30 -117 0 -55 5 -71 31
-113 51 -81 109 -115 194 -115 64 0 102 16 138 59 33 40 42 83 26 134 -14 47
-61 85 -116 94 -38 6 -40 13 -15 36 59 54 203 67 305 28 61 -24 154 -91 164
-119 4 -9 11 -20 17 -24 7 -5 7 -8 -2 -8 -46 0 -216 -169 -305 -303 -56 -84
-77 -104 -77 -72 0 9 -8 19 -17 22 -10 4 -31 17 -48 31 -25 21 -36 23 -80 19
-40 -5 -55 -12 -77 -39 -31 -35 -36 -81 -14 -110 17 -23 29 -23 51 2 10 11 25
20 34 20 16 -1 72 -29 58 -30 -4 0 -1 -13 8 -29 9 -19 11 -32 5 -36 -6 -3 -10
-19 -10 -34 0 -35 -82 -163 -153 -239 -66 -70 -174 -152 -200 -152 -11 0 -17
3 -14 6 4 4 -3 20 -14 36 -12 16 -20 30 -18 32 2 1 30 8 61 15 79 17 134 59
165 127 25 56 26 83 6 162 -9 35 -78 98 -120 108 -33 9 -87 -3 -112 -25 -29
-25 -27 -35 11 -52 38 -17 68 -66 61 -100 -6 -31 -88 -92 -127 -94 -47 -3
-138 21 -244 65 -144 59 -210 71 -348 65 -64 -2 -114 -2 -111 2 3 3 0 11 -7
19 -41 41 -54 354 -22 504 31 142 103 254 204 319 51 32 94 39 134 21 24 -11
52 -57 39 -64 -4 -3 -7 -17 -6 -33 0 -24 4 -28 30 -29 62 -2 115 49 115 110 0
20 6 27 28 32 81 20 144 76 162 145 10 38 5 110 -9 109 -3 -1 -28 -13 -56 -27z
m1377 -538 l55 -55 -36 -6 c-54 -10 -123 -42 -152 -70 l-27 -25 -20 68 c-25
80 -24 81 63 117 33 14 60 25 61 26 1 0 26 -25 56 -55z m-296 -112 c26 -60 41
-156 26 -161 -10 -3 -10 -7 0 -20 7 -9 -10 3 -39 26 -53 44 -96 62 -147 62
-25 0 -27 2 -15 17 23 28 133 112 147 113 7 0 20 -17 28 -37z m-299 -255 c-9
-33 52 -104 98 -112 54 -11 96 19 113 78 l8 30 22 -36 c12 -19 22 -46 22 -59
-1 -46 -28 -138 -51 -170 l-22 -31 -13 23 c-7 13 -13 31 -14 40 0 9 -21 33
-47 54 -46 35 -50 37 -108 32 -54 -5 -63 -9 -91 -42 -23 -28 -29 -44 -26 -68
7 -53 19 -59 62 -37 25 13 46 17 59 12 27 -9 65 -82 51 -96 -6 -6 -10 -20 -10
-32 0 -13 -20 -40 -51 -69 l-52 -48 -13 24 c-7 13 -13 31 -14 40 0 17 -46 54
-84 68 -13 6 -39 6 -60 1 -32 -7 -37 -6 -32 7 16 41 245 413 255 413 2 0 1
-10 -2 -22z m-1092 -329 c51 -14 127 -57 120 -69 -3 -5 -1 -12 5 -15 12 -8 4
-43 -15 -61 -7 -8 -17 -9 -26 -3 -26 16 -49 10 -49 -13 1 -43 54 -88 102 -88
35 0 81 33 103 73 11 21 25 37 32 37 7 0 41 -28 74 -61 l62 -62 -27 -14 c-74
-39 -254 -21 -371 36 -67 33 -142 93 -156 125 -5 12 -25 43 -44 70 -28 38 -33
51 -23 58 16 11 158 2 213 -13z m805 -161 c0 -20 30 -24 46 -8 7 7 19 2 37
-16 34 -34 28 -67 -22 -111 -70 -62 -267 -105 -298 -65 -7 9 -13 20 -13 24 0
4 26 25 58 46 31 22 84 68 117 103 57 61 74 67 75 27z"/>
<path d="M6621 12774 c-52 -22 -82 -106 -53 -151 18 -29 33 -29 62 2 42 45 89
27 122 -46 13 -29 15 -46 8 -53 -5 -5 -10 -21 -10 -34 0 -13 -13 -41 -29 -61
-15 -20 -36 -51 -45 -68 -11 -23 -24 -33 -39 -33 -20 0 -145 37 -156 46 -2 2
1 16 8 31 13 32 -7 104 -30 112 -8 2 -29 17 -47 32 -49 43 -103 67 -173 78
-85 14 -246 5 -317 -16 -31 -9 -61 -18 -67 -19 -24 -5 -115 -44 -160 -70 -80
-43 -137 -85 -183 -133 -39 -40 -42 -46 -27 -57 10 -7 54 -13 112 -13 127 -1
208 -20 333 -76 113 -51 230 -85 292 -85 21 0 38 -3 38 -6 0 -3 -13 -25 -29
-49 -20 -30 -29 -55 -29 -88 -1 -39 4 -51 37 -89 34 -38 43 -43 80 -42 46 2
65 14 87 57 12 22 13 35 5 59 -6 17 -9 33 -7 35 6 6 80 -33 93 -49 6 -7 13
-24 16 -38 18 -87 61 -239 75 -269 96 -197 233 -357 401 -468 136 -90 280
-145 469 -179 20 -4 22 -10 22 -77 1 -98 13 -144 63 -233 78 -141 170 -224
428 -387 75 -48 161 -106 191 -130 l56 -42 -30 -35 c-56 -66 -30 -136 118
-324 35 -44 61 -83 59 -86 -9 -14 27 -100 41 -100 21 0 72 85 94 159 27 87 25
166 -6 267 -23 74 -31 88 -67 114 -29 21 -52 30 -79 30 -21 0 -38 3 -38 8 0
10 -151 138 -220 187 -30 21 -58 41 -63 45 -10 9 295 5 315 -4 35 -16 29 -55
-9 -56 -7 0 -13 -7 -13 -16 0 -39 72 -64 110 -37 29 21 55 82 41 96 -6 6 -11
19 -11 29 0 10 -6 21 -14 24 -27 10 -26 36 0 67 102 121 77 285 -65 434 -10
10 -12 28 -7 66 12 84 54 110 110 66 14 -11 30 -17 36 -14 5 3 10 32 10 63 -1
54 -3 59 -37 85 -65 49 -160 28 -211 -47 -36 -53 -42 -132 -14 -187 17 -33 17
-34 -3 -35 -11 -1 -47 -4 -80 -7 -46 -4 -64 -1 -77 10 -41 37 -176 -15 -224
-85 -61 -90 -74 -114 -74 -137 0 -24 23 -35 34 -17 3 5 22 9 42 10 75 3 200
24 232 39 32 15 62 57 62 88 0 18 60 21 111 4 38 -13 103 -58 95 -66 -3 -3 2
-19 10 -36 10 -19 14 -41 10 -61 -10 -50 -14 -71 -15 -77 -2 -9 -55 -46 -79
-53 -21 -7 -22 -5 -16 37 4 28 2 47 -5 51 -6 4 -11 16 -11 27 0 10 -6 19 -13
19 -8 0 -22 9 -32 20 -25 27 -78 24 -105 -7 -28 -32 -23 -59 10 -55 26 3 58
-32 40 -43 -5 -3 -7 -11 -5 -18 3 -7 -12 -23 -32 -37 -29 -20 -48 -25 -92 -23
-108 3 -289 65 -339 116 -12 12 -43 54 -69 92 l-47 70 0 100 -1 99 40 7 c22 4
74 13 115 19 302 50 593 257 705 502 71 156 75 175 75 401 0 206 0 209 -31
300 -56 167 -92 222 -206 317 -117 97 -161 117 -322 147 -75 13 -163 35 -196
48 -38 16 -63 21 -69 15 -5 -5 -9 -31 -7 -56 4 -82 73 -160 164 -185 33 -9 37
-13 37 -42 1 -34 19 -61 60 -90 45 -31 104 -15 81 22 -13 21 0 60 27 81 51 41
128 16 217 -71 28 -27 58 -63 67 -81 35 -68 79 -234 89 -338 10 -103 9 -107
-25 -240 -25 -98 -38 -134 -48 -130 -7 3 -62 5 -123 4 -117 0 -192 -13 -265
-46 -25 -11 -49 -21 -55 -23 -5 -1 -31 -11 -57 -23 -68 -30 -108 -39 -155 -36
-63 6 -136 36 -139 58 -1 10 -7 22 -13 25 -21 13 7 78 44 101 44 27 44 43 -1
70 -25 16 -45 21 -69 17 -39 -6 -105 -36 -105 -47 0 -4 -11 -23 -24 -43 -72
-106 17 -277 160 -308 33 -7 61 -14 63 -15 4 -4 -27 -53 -44 -71 -15 -15 -98
31 -152 85 -43 43 -130 165 -172 241 -15 28 -31 48 -35 44 -5 -5 -6 18 -4 49
7 89 49 122 97 77 26 -25 48 -19 61 16 16 42 2 81 -41 111 -34 23 -45 26 -86
20 -55 -7 -90 -28 -105 -62 -6 -13 -18 -24 -26 -24 -9 0 -12 3 -9 6 3 4 -20
45 -53 93 -56 82 -113 139 -240 241 -34 28 -55 52 -52 60 2 8 23 35 46 58 84
89 209 126 331 97 62 -14 112 -42 118 -67 4 -15 -1 -18 -33 -18 -56 0 -87 -15
-107 -52 -40 -75 -15 -163 60 -208 71 -44 212 -13 267 57 54 69 63 139 29 239
-19 55 -29 68 -82 110 -33 25 -81 56 -106 68 l-46 21 60 3 c33 2 80 -2 105 -9
110 -29 246 -119 309 -203 39 -52 83 -173 71 -195 -5 -9 -12 -27 -15 -41 -7
-30 -76 -91 -83 -72 -2 6 -13 12 -23 12 -11 0 -17 5 -14 10 3 6 1 10 -4 10 -6
0 -11 6 -11 14 0 8 -4 17 -9 20 -14 9 -41 -4 -41 -20 0 -8 -4 -14 -9 -14 -13
0 -11 -70 3 -88 45 -58 68 -72 120 -72 28 0 64 7 81 16 29 15 31 15 55 -15 92
-111 115 -132 168 -158 137 -67 281 -11 342 132 14 32 20 63 17 85 -5 43 -44
144 -56 148 -5 2 -30 19 -55 39 -45 35 -48 36 -113 30 -65 -6 -103 -26 -103
-52 0 -7 12 -16 27 -20 32 -8 75 -40 66 -49 -3 -3 -1 -6 6 -6 7 0 9 -9 5 -27
-7 -27 -31 -51 -63 -64 -19 -7 -86 16 -86 30 0 7 -5 15 -11 19 -6 4 -14 29
-18 55 -10 63 -77 255 -109 310 -27 46 -161 165 -235 209 -66 39 -159 66 -270
79 -79 9 -108 8 -176 -6 -44 -9 -90 -18 -101 -20 -27 -4 -89 -28 -152 -59 -63
-31 -62 -31 -57 -8 3 9 -4 41 -14 70 -26 72 -95 124 -159 120 -24 -1 -56 -7
-72 -14z m-41 -549 c5 -3 0 -36 -11 -73 -10 -37 -17 -73 -14 -79 8 -22 -10
-14 -41 18 -40 41 -81 66 -128 74 l-38 8 31 24 c17 14 38 38 46 54 l15 29 66
-25 c36 -13 69 -27 74 -30z m189 -105 c25 -16 71 -55 101 -86 30 -31 44 -50
30 -40 -47 31 -158 15 -200 -29 -12 -13 -26 -22 -30 -20 -8 5 6 128 21 172 6
18 15 33 21 33 6 0 32 -13 57 -30z m322 -382 c185 -314 250 -400 362 -484 54
-39 63 -50 59 -71 -7 -35 -21 -37 -112 -19 -124 26 -190 54 -202 88 -6 15 -14
25 -20 22 -7 -4 -8 5 -3 27 10 48 12 49 56 49 46 0 54 12 41 61 -6 23 -14 33
-25 31 -8 -1 -18 2 -22 8 -8 13 -81 13 -106 0 -25 -14 -69 -84 -69 -110 0 -11
-4 -20 -9 -20 -11 0 -66 48 -67 58 -1 16 -28 62 -36 62 -13 0 -9 57 6 94 19
45 47 53 92 27 44 -26 42 -26 54 5 28 73 -34 144 -125 144 -61 0 -101 -22
-125 -70 -11 -21 -24 -41 -29 -45 -6 -3 -8 -12 -4 -20 3 -8 0 -15 -6 -15 -6 0
-11 6 -11 13 0 8 -13 34 -30 58 -33 49 -39 114 -17 179 13 37 43 49 40 16 -1
-10 12 -33 28 -50 22 -24 37 -31 68 -31 47 0 96 40 106 86 4 16 13 29 20 29 7
0 46 -55 86 -122z m1217 -197 c16 -10 -37 -80 -119 -157 -68 -63 -114 -93
-204 -128 -62 -25 -79 -28 -145 -23 -41 4 -93 12 -115 20 l-39 14 58 61 c57
60 86 76 86 50 1 -35 82 -98 125 -98 35 0 54 13 76 50 24 40 14 60 -32 60 -24
0 -39 5 -40 13 -5 52 23 88 86 113 73 27 235 43 263 25z"/>
<path d="M4184 12714 c-37 -42 -41 -81 -10 -127 56 -84 174 -69 202 25 12 42
-5 98 -34 109 -11 4 -23 12 -27 18 -3 6 -27 11 -52 11 -39 0 -50 -5 -79 -36z"/>
<path d="M314 9796 c-17 -17 -49 -47 -70 -67 -21 -20 -44 -43 -51 -51 -12 -16
-7 -58 8 -68 5 -3 -7 -28 -26 -54 -55 -78 -123 -218 -140 -287 -29 -125 -14
-439 27 -565 12 -34 10 -46 -11 -109 -20 -58 -25 -95 -29 -213 -8 -260 31
-441 167 -779 43 -109 117 -292 163 -408 47 -115 85 -219 85 -229 0 -27 -84
-104 -126 -117 -29 -8 -48 -6 -96 8 -33 10 -60 24 -60 31 0 7 -6 17 -14 21
-12 8 -11 35 5 94 6 19 24 24 24 5 0 -6 14 -24 32 -40 53 -47 118 -31 142 37
11 30 -16 106 -41 118 -13 6 -23 14 -23 18 0 9 -57 29 -85 29 -12 0 -44 -7
-72 -15 -45 -13 -56 -22 -82 -65 -27 -44 -31 -60 -31 -120 0 -63 4 -75 36
-125 19 -31 42 -59 50 -62 19 -7 18 -27 -3 -44 -9 -8 -31 -37 -50 -66 -30 -47
-33 -59 -33 -125 1 -64 4 -78 29 -112 l28 -40 -29 -42 c-24 -37 -28 -51 -28
-116 0 -71 2 -77 41 -131 22 -32 44 -57 50 -57 15 0 10 -26 -8 -41 -9 -8 -31
-37 -50 -66 -30 -47 -33 -59 -33 -125 0 -68 3 -77 36 -121 39 -54 83 -77 144
-77 80 0 139 44 154 117 12 52 -35 112 -87 113 -36 0 -88 -49 -82 -78 2 -15 0
-19 -11 -15 -8 3 -14 11 -14 19 0 8 -5 14 -10 14 -11 0 -3 74 11 101 11 22 70
49 106 49 50 0 98 -19 140 -55 33 -28 41 -41 38 -63 -8 -58 -51 -172 -185
-493 -130 -311 -155 -378 -192 -519 -26 -101 -30 -137 -35 -295 -5 -182 4
-270 38 -350 7 -16 11 -34 9 -40 -32 -107 -42 -176 -47 -340 -7 -263 7 -320
132 -511 44 -68 52 -86 41 -96 -20 -19 -6 -58 39 -102 81 -80 123 -113 132
-107 6 3 16 23 22 44 26 79 -51 216 -122 217 -15 0 -26 3 -25 8 1 4 -19 39
-45 78 -59 90 -72 121 -87 216 -22 139 2 458 35 458 19 0 55 -44 55 -68 0 -12
-4 -22 -9 -22 -21 0 5 -56 44 -94 81 -80 123 -113 133 -107 5 3 15 24 22 46
10 34 9 47 -4 79 -9 21 -16 47 -16 56 0 25 -72 80 -104 80 -14 0 -25 3 -23 8
2 8 -62 113 -76 123 -5 4 -7 11 -4 16 3 5 9 24 12 43 3 18 16 62 29 99 22 64
48 127 208 516 121 291 191 510 209 650 14 112 7 200 -27 301 -14 43 -27 84
-28 89 -1 6 -4 15 -8 20 -7 12 10 116 22 130 5 6 16 46 26 90 14 64 17 132 18
340 0 271 0 279 -50 456 l-25 87 26 73 c15 41 32 90 38 109 15 49 14 253 -2
320 -47 195 -122 409 -251 710 -131 307 -200 499 -195 542 6 56 75 148 110
148 53 0 114 87 115 161 0 53 -11 100 -25 105 -6 3 -30 -12 -52 -33 -22 -21
-56 -53 -76 -71 -41 -36 -56 -76 -39 -103 9 -14 5 -26 -24 -63 -19 -25 -37
-46 -40 -46 -3 0 -2 5 1 10 3 6 2 10 -3 10 -15 0 -33 176 -31 312 1 151 15
217 68 323 45 90 72 121 116 129 75 13 124 135 96 236 -10 34 -30 33 -67 -4z
m-112 -1499 c229 -560 240 -589 289 -772 36 -133 48 -286 27 -355 -8 -25 -20
-45 -27 -45 -8 0 -38 59 -71 140 -31 77 -81 196 -110 265 -29 69 -60 148 -70
175 -10 28 -28 75 -40 105 -31 83 -78 265 -89 353 -18 128 -13 352 7 332 3 -3
41 -92 84 -198z m308 -1197 c0 -5 -4 -10 -10 -10 -5 0 -10 5 -10 10 0 6 5 10
10 10 6 0 10 -4 10 -10z m-21 -302 c5 -18 16 -61 24 -95 17 -74 15 -73 -75 5
l-56 49 41 36 c23 20 45 36 49 36 3 1 11 -14 17 -31z m-120 -161 c43 -29 100
-104 107 -141 2 -13 10 -39 18 -58 38 -89 -68 -276 -180 -319 -44 -16 -173 18
-159 42 4 5 -1 12 -10 15 -16 7 -16 39 1 97 6 20 24 23 24 3 0 -25 59 -66 94
-66 43 0 80 38 79 83 -1 38 -9 82 -17 95 -3 6 2 31 11 56 14 38 15 50 5 66 -6
11 -12 27 -12 35 0 9 -4 14 -9 11 -5 -3 -14 1 -21 9 -32 39 -135 -11 -126 -60
3 -18 1 -22 -10 -18 -8 3 -14 11 -14 19 0 8 -5 14 -10 14 -12 0 -3 74 12 103
27 52 147 60 217 14z m161 -28 c0 -6 -4 -7 -10 -4 -5 3 -10 11 -10 16 0 6 5 7
10 4 6 -3 10 -11 10 -16z m-15 -476 c-16 -79 -29 -160 -27 -170 5 -23 -19 -14
-62 24 l-43 38 66 62 c36 34 67 62 68 63 0 0 0 -8 -2 -17z m2 -509 c32 -90 -1
-306 -87 -562 -46 -137 -164 -435 -186 -469 -8 -13 -12 -23 -10 -23 4 0 -57
-149 -102 -250 -9 -19 -15 -44 -14 -55 l2 -20 -9 20 c-13 28 -13 257 -1 330 6
33 13 85 16 115 3 30 7 58 10 61 2 4 15 45 28 91 42 142 315 810 330 805 5 -2
16 -21 23 -43z"/>
<path d="M8160 9804 c-6 -14 -10 -49 -10 -79 0 -73 46 -144 105 -160 70 -19
114 -100 171 -315 22 -84 22 -240 -1 -345 -9 -44 -17 -90 -17 -102 0 -13 -4
-23 -9 -23 -5 0 -9 5 -9 11 0 6 -12 26 -26 44 -17 22 -23 41 -19 54 12 39 -6
69 -71 116 -36 26 -63 50 -60 52 2 3 -5 14 -16 25 -30 30 -42 10 -46 -75 -4
-70 -3 -74 32 -118 26 -35 44 -48 70 -53 21 -4 45 -19 61 -38 33 -39 56 -84
47 -92 -3 -4 0 -12 8 -17 11 -8 12 -12 3 -16 -7 -2 -13 -11 -13 -19 0 -22 -98
-306 -135 -389 -48 -111 -75 -174 -75 -179 0 -3 -11 -29 -24 -58 -45 -98 -113
-272 -145 -368 -46 -139 -59 -225 -60 -389 -2 -152 7 -205 48 -284 18 -36 18
-38 1 -96 -42 -133 -48 -191 -49 -479 -1 -294 8 -391 49 -511 l19 -56 -32 -70
c-30 -66 -32 -78 -35 -216 -3 -103 1 -173 12 -240 22 -124 93 -333 206 -604
102 -243 210 -520 210 -538 0 -7 7 -24 14 -39 8 -16 11 -28 6 -28 -5 0 -7 -6
-4 -14 10 -26 -80 -150 -102 -142 -23 9 -62 -15 -74 -45 -7 -16 -18 -34 -26
-40 -21 -17 -20 -157 1 -165 16 -7 98 51 149 105 28 29 31 44 26 113 -1 9 13
36 31 60 17 23 29 36 26 27 -3 -9 -2 -20 3 -25 17 -19 43 -173 44 -264 0 -109
-38 -286 -83 -379 -29 -61 -85 -126 -100 -117 -19 12 -57 -16 -84 -60 -22 -37
-27 -57 -27 -114 0 -88 15 -101 68 -56 127 109 136 123 120 191 -3 11 -2 22 2
25 26 19 115 177 132 235 32 108 50 187 55 240 6 70 -9 202 -39 325 -23 98
-24 134 -3 210 23 79 25 88 36 155 20 112 -8 303 -77 525 -34 107 -178 482
-230 595 -29 64 -59 141 -93 235 -23 65 -25 78 -14 100 20 41 72 88 110 101
41 13 115 6 144 -15 25 -17 60 -84 48 -92 -5 -3 -9 -16 -9 -28 0 -15 -7 -26
-19 -29 -15 -4 -21 1 -26 22 -10 45 -85 77 -123 52 -20 -12 -42 -60 -42 -92 0
-32 47 -92 91 -115 35 -18 100 -18 142 0 38 15 94 76 103 111 7 30 0 116 -14
170 -7 25 -24 51 -46 70 -20 17 -36 35 -36 41 0 5 13 23 30 39 42 40 70 106
70 166 0 51 -25 145 -41 155 -5 3 3 26 17 51 22 40 25 56 21 107 -7 97 -22
138 -62 169 -19 16 -35 34 -35 41 0 7 13 25 30 41 94 90 95 256 0 331 -52 41
-94 50 -161 33 -42 -11 -58 -21 -81 -53 -37 -52 -37 -94 1 -135 45 -48 96 -42
135 16 l23 34 21 -33 c12 -18 17 -34 12 -36 -6 -2 -10 -14 -10 -26 0 -19 -46
-72 -60 -69 -3 0 -16 -3 -29 -8 -40 -16 -191 36 -177 60 3 5 -5 20 -19 35 -13
14 -19 28 -14 32 5 3 8 11 7 17 -3 18 16 70 142 377 139 339 200 510 235 662
28 121 35 164 41 233 7 93 -6 192 -40 300 -22 70 -23 80 -11 138 7 34 11 65 9
69 -2 3 0 8 5 10 5 1 16 57 26 123 25 172 12 291 -50 450 -12 33 -25 71 -29
85 -3 14 -26 56 -50 94 -25 38 -43 73 -40 78 3 5 3 25 0 43 -5 27 -20 44 -76
84 -37 27 -71 59 -75 71 -9 27 -23 25 -35 -6z m276 -1336 c35 -149 -36 -490
-176 -843 -15 -38 -39 -99 -53 -135 -14 -36 -37 -92 -52 -125 -15 -33 -26 -60
-25 -60 0 0 -13 -31 -30 -70 -44 -99 -47 -108 -55 -130 -6 -19 -7 -19 -17 -1
-15 26 -15 269 0 336 7 30 14 69 17 85 14 94 63 234 192 545 72 173 117 286
164 408 12 31 26 27 35 -10z m-289 -1701 c3 -5 -5 -16 -18 -25 -30 -21 -57
-48 -91 -92 l-26 -35 9 50 c5 28 14 75 21 105 6 30 11 59 10 63 -3 10 87 -53
95 -66z m197 -111 c34 -14 83 -91 65 -102 -5 -3 -9 -16 -9 -28 0 -35 -36 -42
-45 -9 -13 52 -77 79 -126 53 -10 -6 -19 -17 -19 -25 0 -8 -4 -15 -10 -15 -18
0 -11 -68 11 -104 l21 -36 -21 -29 c-30 -41 -27 -83 8 -120 45 -48 104 -40
140 20 l18 30 21 -33 c12 -18 17 -34 12 -36 -6 -2 -10 -14 -10 -26 0 -25 -37
-62 -78 -77 -40 -15 -182 24 -182 50 0 5 -25 46 -56 92 -54 81 -56 86 -49 134
8 62 34 122 80 185 58 79 149 110 229 76z m-195 -630 c-29 -27 -99 -74 -102
-68 -9 16 -29 162 -24 175 4 10 23 -3 67 -45 34 -32 61 -60 59 -62z m-77 -419
c291 -667 401 -1036 369 -1237 -18 -111 -28 -107 -83 37 -27 70 -53 139 -57
153 -5 14 -18 45 -29 70 -117 257 -205 501 -237 659 -26 128 -24 382 3 381 4
0 19 -29 34 -63z"/>
<path d="M113 3168 c-6 -7 -27 -48 -48 -90 -37 -76 -37 -80 -37 -191 0 -130 2
-141 47 -212 34 -52 67 -75 111 -75 17 0 48 -21 97 -68 40 -37 107 -92 150
-120 42 -29 77 -54 77 -56 0 -2 -44 -4 -97 -4 -54 -1 -111 -3 -128 -6 -35 -5
-104 14 -106 29 -6 43 -5 54 3 49 5 -3 16 0 24 7 13 10 12 15 -7 36 -22 23
-52 29 -84 17 -20 -8 -49 -62 -49 -92 0 -28 33 -80 55 -87 14 -5 11 -11 -15
-39 -63 -67 -74 -96 -72 -192 1 -59 5 -89 14 -92 6 -2 12 -9 12 -15 0 -7 19
-35 42 -64 69 -84 84 -177 36 -225 -24 -24 -88 -15 -96 14 -2 11 -12 18 -21
16 -26 -5 -27 -91 -2 -127 41 -57 136 -67 201 -21 55 39 87 140 60 189 -5 10
-11 29 -14 43 -4 23 0 27 32 33 80 15 92 15 121 1 68 -36 175 1 239 81 42 54
80 173 54 173 -4 0 -16 -6 -27 -14 -20 -13 -90 -31 -110 -28 -6 1 -46 -4 -90
-12 -65 -11 -83 -19 -101 -41 -13 -17 -19 -35 -16 -51 4 -22 2 -24 -40 -24
-68 0 -147 27 -157 53 -5 13 -16 29 -25 36 -13 11 -15 25 -10 70 8 72 27 113
63 134 37 21 43 21 40 0 -5 -59 3 -84 39 -123 49 -50 82 -53 122 -9 34 36 31
53 -13 66 -38 11 -38 35 -2 73 20 19 37 25 87 28 127 8 277 -49 374 -139 45
-44 55 -60 77 -132 34 -108 41 -156 28 -191 -9 -23 -16 -27 -36 -24 -14 3 -25
1 -25 -4 0 -5 -8 -7 -18 -3 -11 3 -48 -2 -83 -11 -35 -9 -72 -17 -84 -19 -69
-7 -267 -97 -355 -161 -56 -40 -156 -144 -197 -204 -50 -74 -122 -223 -139
-290 -13 -50 -15 -102 -12 -264 5 -231 11 -256 104 -406 118 -190 226 -273
400 -306 119 -22 232 -49 270 -65 48 -19 67 -7 61 39 -14 92 -18 101 -71 140
-28 21 -68 44 -88 51 -30 10 -38 18 -38 36 0 13 -5 27 -11 30 -6 4 -8 13 -5
20 6 18 -67 67 -99 68 -34 0 -36 -4 -26 -41 12 -40 5 -62 -27 -88 -30 -24 -78
-42 -68 -26 3 5 -8 12 -25 16 -48 9 -118 56 -136 90 -9 17 -34 58 -56 91 -54
81 -65 119 -79 255 -13 133 -2 272 30 375 l18 60 104 -3 c128 -4 224 13 340
61 110 45 185 67 231 67 43 0 145 -51 141 -70 -1 -6 2 -18 8 -25 17 -21 -5
-60 -44 -79 -46 -21 -52 -33 -31 -56 24 -27 80 -43 120 -36 96 18 164 152 120
236 -9 17 -13 30 -10 30 3 0 -1 13 -10 30 -9 16 -20 30 -26 30 -6 0 -26 13
-45 29 -30 27 -88 51 -121 51 -24 0 -23 19 3 49 l25 31 38 -19 c64 -33 146
-107 203 -183 56 -76 113 -168 103 -168 -3 0 1 -16 9 -35 10 -22 11 -37 5 -41
-6 -3 -8 -13 -4 -21 3 -10 -7 -27 -27 -45 -18 -16 -34 -24 -36 -18 -2 5 -13
10 -23 10 -11 0 -18 3 -15 8 2 4 -2 16 -10 26 -13 19 -14 19 -34 1 -25 -23
-26 -82 -2 -110 61 -73 162 -73 220 -1 14 19 22 22 31 13 6 -6 11 -7 11 -2 0
5 23 -25 51 -66 90 -131 127 -170 283 -296 19 -15 17 -18 -45 -77 -92 -87
-124 -101 -234 -100 -69 0 -103 5 -147 23 -32 12 -57 25 -57 29 3 21 -2 32
-13 26 -7 -4 -8 -3 -4 4 4 7 26 12 49 12 95 0 145 73 115 167 -12 38 -25 54
-64 81 -41 28 -55 33 -99 31 -27 -2 -57 -6 -65 -10 -8 -3 -32 -14 -52 -22 -25
-11 -48 -33 -72 -72 -32 -50 -36 -63 -36 -124 0 -62 3 -73 39 -128 42 -66 101
-112 170 -135 32 -11 39 -17 26 -22 -53 -20 -173 3 -270 51 -60 30 -155 100
-155 114 0 5 -23 42 -50 82 -40 59 -50 81 -50 114 0 113 82 183 135 117 26
-33 57 -26 75 16 17 41 -4 93 -52 126 -33 24 -44 26 -95 20 -31 -3 -66 -13
-79 -20 -20 -14 -22 -13 -40 26 -20 44 -109 125 -174 158 -26 13 -59 20 -100
20 -103 0 -166 -39 -219 -135 -52 -94 -29 -199 62 -283 29 -27 89 -50 121 -47
11 1 29 3 38 4 22 1 68 44 68 64 0 9 -17 20 -45 28 -29 9 -44 18 -41 26 3 7 2
13 -3 13 -16 0 2 51 22 65 24 17 80 20 106 6 18 -10 30 -42 55 -154 15 -64 62
-186 77 -197 3 -3 14 -20 24 -39 31 -60 164 -184 235 -219 104 -51 208 -74
340 -74 139 -1 211 15 333 75 l87 43 -1 -46 c-2 -54 34 -118 86 -150 43 -27
117 -27 160 0 44 27 70 89 52 127 -24 56 -35 59 -70 19 -30 -35 -34 -37 -64
-26 -18 7 -33 18 -33 25 0 7 -7 19 -16 26 -13 11 -15 24 -10 66 5 41 18 70 57
128 30 44 57 75 67 75 29 0 132 -35 145 -49 9 -11 9 -14 0 -18 -26 -9 -14 -65
24 -111 74 -91 183 -132 347 -132 155 0 305 43 454 132 66 39 182 149 182 172
0 18 -2 18 -130 16 -115 -2 -207 19 -326 73 -104 48 -167 68 -272 88 l-62 12
25 25 c60 60 53 173 -13 212 -51 30 -103 26 -135 -10 -33 -36 -34 -66 -5 -97
l21 -23 -22 0 c-28 0 -96 28 -88 37 4 3 -4 21 -18 39 -15 20 -32 65 -44 120
-11 49 -28 109 -39 134 -11 25 -23 60 -27 78 -8 39 -89 164 -136 212 -61 61
-198 173 -267 219 -121 79 -254 132 -404 161 l-58 11 0 65 c0 71 -43 218 -84
289 -36 61 -216 207 -414 335 -193 125 -255 170 -233 170 8 0 12 3 9 6 -4 3 5
22 18 41 27 41 30 67 9 103 -8 14 -14 35 -15 47 0 18 -113 182 -180 262 -19
23 -24 40 -21 67 2 20 -25 36 -36 22z m1072 -1554 c86 -21 145 -54 167 -93 22
-38 20 -58 -6 -86 -13 -14 -20 -16 -23 -7 -3 6 -18 12 -34 12 -25 0 -29 -4
-29 -29 0 -43 49 -81 105 -81 54 0 96 32 119 90 l16 41 34 -26 c32 -25 73 -75
61 -75 -3 0 2 -14 11 -31 12 -25 13 -33 3 -39 -6 -5 -9 -15 -6 -23 3 -9 -6
-26 -23 -42 -23 -22 -32 -25 -48 -16 -11 6 -22 8 -25 5 -3 -3 -10 4 -17 15
-13 25 -35 27 -44 5 -29 -75 37 -155 128 -156 55 -1 97 24 131 79 16 23 31 43
34 43 10 0 33 -17 32 -24 -1 -3 6 -23 16 -44 9 -20 17 -65 18 -100 1 -53 -2
-66 -19 -78 -30 -20 -34 -18 -41 25 -14 84 -128 94 -174 15 -12 -19 -21 -45
-21 -57 l-1 -22 -19 24 c-11 13 -72 111 -136 219 -78 131 -133 212 -168 246
-53 53 -180 158 -197 164 -11 5 -11 14 1 46 8 23 13 25 52 20 24 -3 70 -11
103 -20z m-349 -86 c13 -13 8 -21 -51 -76 -36 -34 -70 -62 -75 -62 -5 0 -12
16 -16 36 -4 19 -14 38 -23 42 -9 3 -25 14 -35 24 -13 11 -35 18 -62 18 -36 0
-46 -5 -63 -29 -12 -16 -21 -39 -21 -51 0 -20 4 -22 33 -16 26 4 35 1 48 -17
28 -38 14 -70 -47 -110 -45 -29 -67 -36 -130 -42 -73 -7 -150 -3 -161 9 -19
19 148 193 230 240 81 47 121 56 245 53 84 -3 116 -7 128 -19z m1024 -808
c-19 -76 -25 -88 -41 -85 -34 7 -144 90 -144 109 0 6 -4 16 -7 22 -5 8 9 11
45 11 56 0 84 11 132 51 l30 25 3 -23 c2 -12 -6 -62 -18 -110z m200 -55 c29
-19 64 -35 79 -35 42 0 43 -9 6 -53 -19 -22 -35 -47 -35 -54 0 -7 -4 -13 -10
-13 -17 0 -140 52 -146 62 -9 14 28 128 42 128 7 0 35 -16 64 -35z"/>
<path d="M8386 3149 c-9 -17 -16 -42 -16 -55 0 -12 -17 -44 -37 -71 -152 -199
-172 -233 -171 -290 0 -35 6 -48 33 -71 l32 -29 -76 -56 c-42 -31 -98 -70
-126 -88 -355 -227 -404 -272 -500 -456 -34 -65 -38 -82 -42 -160 -5 -113 -10
-136 -29 -129 -33 13 -239 -50 -368 -112 -274 -133 -484 -400 -551 -702 -27
-121 -46 -152 -103 -166 -30 -8 -35 -2 -22 30 19 52 -31 107 -95 104 -53 -2
-69 -11 -93 -52 -36 -61 -25 -121 35 -186 l23 -26 -33 -2 c-62 -5 -222 -50
-292 -82 -165 -75 -184 -80 -335 -80 -76 0 -141 -4 -144 -9 -9 -13 53 -79 124
-133 77 -59 219 -130 310 -155 91 -24 312 -25 391 -1 84 26 150 74 178 131 14
29 20 54 16 65 -19 43 -13 51 56 72 82 24 85 24 107 2 31 -31 92 -119 86 -125
-3 -3 2 -20 11 -37 12 -23 14 -35 6 -43 -6 -6 -11 -20 -11 -32 0 -11 -14 -33
-31 -47 -23 -21 -37 -26 -60 -21 -16 3 -29 11 -29 17 0 6 -7 20 -15 31 -15 19
-15 19 -36 -1 -11 -12 -22 -37 -24 -57 -2 -31 3 -43 39 -82 40 -42 46 -45 95
-45 57 0 94 15 128 52 27 30 53 92 53 129 l0 29 68 -34 c187 -94 381 -107 594
-40 99 32 216 109 275 183 77 97 137 234 166 381 11 58 16 67 46 82 24 12 40
14 64 7 36 -10 67 -45 63 -72 -3 -22 -42 -50 -74 -53 -32 -4 -38 -11 -26 -32
16 -25 81 -53 123 -54 80 -1 159 69 192 169 21 64 -12 170 -69 221 -94 83
-187 96 -300 41 -65 -32 -102 -71 -143 -152 -22 -43 -30 -45 -69 -16 -24 18
-38 21 -87 16 -51 -5 -62 -10 -90 -42 -35 -41 -40 -84 -15 -123 18 -27 48 -29
55 -2 7 28 52 36 93 17 19 -9 34 -24 34 -32 0 -9 7 -30 16 -46 10 -20 12 -34
6 -42 -6 -7 -13 -30 -17 -52 -10 -55 -34 -92 -102 -156 -68 -64 -126 -105
-206 -143 -47 -23 -71 -28 -123 -27 -36 0 -73 5 -82 11 -15 8 -15 9 3 10 34 1
100 36 145 77 79 70 113 190 75 264 -9 16 -14 33 -11 38 7 11 -23 51 -38 51
-7 0 -21 10 -32 21 -43 49 -138 63 -213 33 -52 -20 -85 -73 -88 -137 -1 -43 2
-52 36 -87 32 -34 44 -40 79 -40 22 0 42 -5 44 -12 5 -15 -47 -60 -90 -78 -69
-27 -255 7 -334 62 -25 17 -77 104 -67 111 2 2 27 20 55 40 72 52 180 169 239
259 28 43 53 77 57 78 5 0 26 -16 48 -36 49 -44 109 -55 159 -29 57 29 78 124
33 152 -15 9 -22 6 -39 -13 -11 -13 -19 -25 -16 -27 2 -3 -3 -7 -12 -10 -8 -4
-15 -2 -15 3 0 6 -9 10 -20 10 -13 0 -20 7 -20 19 0 10 -6 21 -14 24 -12 5
-13 14 -2 59 14 61 24 80 79 163 80 118 243 265 278 249 8 -3 28 -22 45 -43
30 -34 31 -36 10 -37 -56 -1 -121 -15 -149 -32 -18 -10 -48 -43 -68 -73 -32
-46 -37 -62 -37 -112 -1 -48 4 -65 28 -101 60 -89 155 -113 210 -54 28 31 25
42 -15 58 -19 8 -35 19 -35 26 0 7 -5 14 -11 16 -20 7 14 81 50 105 72 49 137
43 322 -31 135 -53 230 -70 352 -63 87 5 88 4 102 -22 22 -43 52 -178 59 -264
6 -70 3 -95 -30 -225 -49 -198 -85 -253 -227 -347 -52 -34 -55 -35 -83 -20
-16 8 -34 15 -40 15 -16 0 -27 37 -26 86 1 49 -15 58 -65 38 -45 -19 -74 -64
-69 -106 3 -22 0 -35 -7 -36 -28 -2 -99 -23 -118 -35 -39 -24 -79 -103 -79
-157 0 -59 6 -61 92 -30 31 11 109 29 175 41 141 25 176 36 249 80 117 71 218
205 283 374 31 79 31 80 31 285 0 219 0 220 -63 392 -46 124 -83 174 -216 288
-181 155 -350 233 -572 261 l-89 12 0 54 c0 70 24 166 56 220 84 145 365 249
494 183 22 -11 39 -24 39 -28 -1 -4 0 -10 1 -14 12 -37 -4 -55 -42 -50 -22 3
-28 0 -28 -15 0 -11 10 -29 23 -40 75 -68 180 1 162 108 -5 30 -4 39 8 39 18
0 82 -43 82 -55 1 -6 7 -27 14 -48 8 -23 10 -49 5 -70 -4 -17 -7 -37 -6 -44 2
-7 -21 -31 -49 -53 -51 -40 -54 -41 -120 -38 -60 2 -66 4 -58 20 6 10 5 19 -1
23 -6 4 -8 11 -5 16 4 5 -2 12 -12 16 -10 3 -28 14 -41 24 -14 11 -51 20 -100
24 -42 4 -103 15 -135 25 -31 10 -59 14 -62 9 -18 -28 45 -140 108 -196 60
-53 93 -66 146 -58 25 3 80 7 121 8 70 2 75 1 72 -18 -2 -11 -5 -49 -8 -85 -4
-61 -3 -69 26 -108 59 -82 142 -105 211 -59 32 22 34 26 37 90 3 76 -11 87
-51 43 -17 -19 -29 -23 -54 -19 -23 4 -33 11 -33 23 0 10 -5 20 -11 22 -8 3
-10 21 -5 59 6 45 15 65 48 105 62 74 91 146 85 214 -6 72 -31 139 -65 169
-15 13 -20 20 -12 15 13 -7 13 -5 2 8 -10 12 -10 18 -1 23 6 4 19 25 29 46 14
32 15 46 6 74 -6 19 -16 35 -22 35 -6 0 -17 7 -24 15 -17 21 -63 19 -83 -3
-24 -26 -21 -41 8 -48 30 -7 29 -35 -4 -63 -18 -16 -32 -18 -69 -14 -46 5 -85
8 -186 11 l-49 2 87 62 c48 33 115 87 150 120 50 45 71 58 96 58 83 0 158 149
147 293 -5 82 -56 228 -92 266 l-23 23 -16 -33z m-877 -1538 l19 -27 -30 -13
c-44 -20 -170 -142 -221 -215 -24 -33 -77 -117 -117 -186 -40 -69 -93 -156
-118 -195 l-46 -70 -8 30 c-5 17 -10 36 -12 44 -1 7 -20 27 -42 43 -32 24 -45
28 -74 23 -45 -8 -78 -46 -72 -85 3 -23 1 -28 -14 -26 -9 1 -19 11 -20 22 -2
10 -8 20 -13 22 -25 8 -1 152 34 205 l17 27 39 -49 c53 -66 83 -84 141 -84 62
1 104 31 118 83 11 42 0 90 -22 90 -6 0 -24 -11 -38 -25 -23 -22 -29 -24 -53
-12 -15 6 -27 18 -27 25 0 6 -4 12 -10 12 -13 0 -13 45 0 90 10 36 87 123 102
114 4 -3 8 -13 8 -22 0 -9 17 -36 39 -60 34 -37 44 -42 82 -42 50 0 91 18 95
40 1 8 3 20 4 25 6 27 -2 45 -19 45 -11 0 -23 -4 -26 -10 -3 -5 -12 -10 -18
-10 -7 0 -6 4 3 10 12 8 11 10 -7 10 -12 0 -23 6 -26 13 -8 26 13 83 40 104
41 33 169 73 255 80 10 1 26 -11 37 -26z m531 -97 c82 -40 191 -132 246 -209
l43 -61 -70 -3 c-117 -4 -289 42 -289 79 0 10 -5 20 -11 22 -7 2 -7 12 0 29 7
19 19 28 45 33 19 4 37 10 40 14 7 12 -6 62 -17 62 -6 0 -19 7 -29 17 -15 13
-27 15 -65 7 -39 -7 -52 -16 -75 -49 -15 -22 -27 -48 -28 -58 0 -15 -3 -16
-22 -6 -48 24 -100 92 -102 134 -2 17 48 24 159 22 100 -2 116 -5 175 -33z
m-1315 -706 c38 -27 54 -32 100 -32 64 1 64 -7 -3 -63 -127 -107 -152 -96
-152 70 0 31 2 57 5 57 2 0 25 -14 50 -32z m-152 -175 l24 -62 -46 -22 c-25
-11 -56 -25 -67 -31 -31 -14 -59 -6 -62 19 -2 11 -21 33 -43 49 -22 15 -37 29
-35 31 2 2 20 6 41 9 44 5 103 34 129 63 24 26 27 23 59 -56z"/>
<path d="M4225 249 c-35 -10 -68 -60 -69 -104 -1 -31 31 -77 67 -97 29 -15 85
-12 112 6 29 19 49 77 41 120 -5 24 -18 41 -44 60 -40 27 -58 30 -107 15z"/>
<path d="M4065 184 c-22 -8 -55 -21 -73 -30 -18 -8 -36 -12 -41 -9 -5 3 -12 1
-15 -4 -7 -11 -103 -33 -156 -37 -19 -1 -35 -3 -35 -4 0 -14 -451 -20 -560 -7
-33 4 -105 12 -160 18 -55 5 -144 17 -197 25 -54 8 -106 14 -115 13 -10 -1
-31 1 -46 6 -39 11 -56 -8 -26 -29 13 -9 32 -16 42 -16 10 0 30 -6 45 -14 15
-7 47 -16 72 -20 25 -3 83 -15 130 -26 203 -49 221 -50 713 -50 400 0 472 2
497 15 31 16 37 29 20 40 -6 4 -8 10 -5 15 3 5 -1 15 -8 22 -8 8 -17 35 -21
61 -4 26 -10 46 -14 46 -4 -1 -25 -8 -47 -15z"/>
<path d="M4417 193 c-5 -9 -20 -81 -21 -103 -1 -8 -7 -14 -13 -12 -8 1 -13 -9
-13 -27 0 -48 35 -51 544 -51 371 0 469 3 533 16 43 8 89 17 103 20 14 3 39 9
55 14 17 5 66 16 110 24 105 20 190 49 190 67 0 9 -10 13 -30 11 -16 -1 -41
-2 -53 -2 -13 0 -76 -9 -140 -21 -65 -11 -152 -23 -195 -25 -44 -2 -107 -8
-140 -14 -34 -5 -154 -8 -267 -6 -235 4 -368 24 -545 80 -128 41 -113 38 -118
29z"/>
</g>
</svg>
