<?xml version="1.0" standalone="no"?>
<!DOCTYPE svg PUBLIC "-//W3C//DTD SVG 20010904//EN"
 "http://www.w3.org/TR/2001/REC-SVG-20010904/DTD/svg10.dtd">
<svg version="1.0" xmlns="http://www.w3.org/2000/svg"
 width="1280.000000pt" height="1280.000000pt" viewBox="0 0 1280.000000 1280.000000"
 preserveAspectRatio="xMidYMid meet">
<metadata>
Created by potrace 1.15, written by Peter Selinger 2001-2017
</metadata>
<g transform="translate(0.000000,1280.000000) scale(0.100000,-0.100000)"
fill="#000000" stroke="none">
<path d="M3560 12727 c-36 -38 -75 -85 -87 -106 -38 -61 -27 -126 30 -180 l26
-23 47 22 47 23 44 -23 44 -23 34 33 c77 75 72 133 -19 229 -34 36 -71 77 -82
91 l-19 26 -65 -69z"/>
<path d="M9170 12792 c0 -4 -36 -47 -79 -95 -109 -118 -117 -169 -36 -247 l34
-33 44 23 44 23 47 -23 47 -22 26 23 c57 54 68 119 30 180 -24 40 -157 184
-157 171z"/>
<path d="M3116 12628 c-33 -19 -120 -38 -171 -38 -150 -1 -284 -52 -387 -149
-75 -71 -71 -93 8 -46 71 43 135 56 227 49 138 -12 262 46 329 154 23 37 21
45 -6 30z"/>
<path d="M9660 12633 c0 -12 28 -52 59 -87 67 -74 174 -112 288 -102 92 7 156
-6 227 -49 79 -47 83 -25 8 46 -103 97 -237 148 -387 149 -52 0 -136 19 -173
39 -12 6 -22 8 -22 4z"/>
<path d="M2077 12623 c-19 -19 1 -106 35 -155 24 -35 41 -36 28 -2 -15 39 -12
58 16 100 25 36 25 39 8 51 -19 14 -76 18 -87 6z"/>
<path d="M2215 12599 c-49 -43 -68 -83 -61 -124 5 -27 14 -36 48 -49 38 -16
42 -16 60 1 46 41 62 121 36 178 -15 33 -40 32 -83 -6z"/>
<path d="M10502 12605 c-26 -57 -10 -137 36 -178 18 -17 22 -17 60 -1 34 13
43 22 48 49 7 41 -12 81 -61 124 -43 38 -68 39 -83 6z"/>
<path d="M10637 12617 c-18 -13 -18 -15 7 -51 28 -42 31 -61 16 -100 -13 -34
3 -33 28 2 25 34 45 100 40 132 -2 20 -9 26 -38 28 -19 2 -43 -3 -53 -11z"/>
<path d="M1933 12553 c-13 -82 -6 -135 31 -237 43 -118 45 -157 11 -202 -27
-35 -93 -78 -136 -89 -33 -8 -120 25 -198 75 -44 29 -61 35 -61 24 0 -52 79
-124 165 -150 27 -9 95 -18 150 -21 157 -9 277 30 384 124 51 45 52 45 79 28
39 -25 58 -50 103 -138 78 -154 147 -202 284 -199 83 2 201 25 175 35 -8 3
-33 8 -54 12 -57 9 -100 57 -121 131 -35 127 -75 188 -148 226 -34 17 -54 20
-124 16 -46 -2 -83 -1 -83 3 0 14 132 130 173 150 58 30 149 36 223 14 89 -25
125 -50 169 -117 54 -81 145 -162 230 -204 71 -35 206 -74 255 -74 21 0 46
-19 109 -85 44 -46 81 -81 81 -77 0 5 32 43 70 84 67 73 73 77 125 83 50 7 59
5 102 -23 75 -48 117 -62 185 -62 73 0 136 25 185 72 18 18 52 36 79 43 l47
12 -45 12 c-41 12 -51 11 -92 -8 -26 -11 -60 -29 -75 -40 -45 -33 -120 -45
-188 -31 -126 26 -121 32 74 80 98 23 206 52 241 62 75 23 132 69 132 107 0
25 -1 25 -18 -9 -19 -39 -97 -84 -165 -96 l-39 -7 20 39 c33 66 36 100 13 133
-28 38 -51 105 -51 144 0 50 -18 18 -26 -43 -5 -49 -2 -62 25 -114 27 -51 30
-63 21 -95 -5 -20 -15 -45 -22 -54 -17 -23 -190 -67 -401 -102 l-37 -6 6 40
c7 45 -19 103 -61 134 -23 17 -26 17 -62 -3 -47 -25 -58 -25 -100 1 -32 20
-35 20 -59 4 -44 -28 -66 -74 -61 -127 5 -56 2 -57 -102 -32 -143 35 -279 119
-341 209 -18 26 -30 48 -28 50 2 2 37 -11 78 -30 41 -19 98 -39 125 -45 28 -7
74 -23 103 -36 29 -13 64 -24 78 -24 34 0 100 37 119 67 14 20 13 25 -5 55
-25 42 -25 62 1 105 l21 34 -28 31 c-85 89 -143 78 -282 -53 l-69 -66 51 -44
c42 -36 47 -45 31 -47 -32 -4 -129 33 -236 92 -117 64 -189 93 -257 102 -60 8
-144 -9 -184 -37 -16 -12 -35 -18 -43 -15 -8 3 -15 1 -15 -5 0 -6 -54 -66
-120 -133 -128 -131 -176 -163 -285 -191 -32 -8 -86 -15 -119 -15 l-61 0 67
60 c36 33 88 90 116 127 56 76 139 223 125 223 -5 0 -17 -15 -27 -32 -79 -140
-96 -161 -96 -115 0 12 -16 54 -35 92 -39 76 -75 183 -75 221 0 42 -18 26 -27
-23z"/>
<path d="M10840 12577 c0 -38 -29 -124 -71 -213 -21 -45 -39 -91 -39 -103 0
-44 -18 -22 -96 117 -19 34 -38 44 -27 15 13 -35 94 -165 138 -223 25 -32 73
-83 107 -114 l63 -56 -60 0 c-34 0 -88 7 -120 15 -109 28 -157 60 -285 191
-66 67 -120 127 -120 133 0 6 -7 8 -15 5 -8 -3 -27 3 -43 15 -40 28 -124 45
-184 37 -68 -9 -140 -38 -257 -102 -107 -59 -204 -96 -236 -92 -16 2 -11 11
31 47 l51 44 -69 66 c-139 131 -197 142 -282 53 l-28 -31 21 -34 c26 -43 26
-63 1 -105 -18 -30 -19 -35 -5 -55 19 -30 85 -67 119 -67 14 0 49 11 78 24 29
13 76 29 103 36 28 6 84 26 125 45 41 19 76 32 78 30 3 -2 -13 -27 -33 -55
-68 -93 -192 -168 -336 -204 -104 -25 -107 -24 -102 32 5 53 -17 99 -61 127
-24 16 -27 16 -59 -4 -42 -26 -53 -26 -100 -1 -36 20 -39 20 -62 3 -42 -31
-68 -89 -61 -134 l6 -40 -37 6 c-145 24 -338 67 -379 85 -13 5 -29 28 -39 54
l-18 46 33 65 c29 58 32 69 26 119 -8 60 -26 86 -26 38 0 -38 -24 -105 -51
-143 -23 -33 -20 -67 13 -133 l20 -39 -39 7 c-68 12 -146 57 -165 96 -17 34
-18 34 -18 9 0 -38 57 -84 132 -107 35 -10 143 -39 241 -62 195 -48 200 -54
74 -80 -68 -14 -143 -2 -188 31 -15 11 -49 29 -75 40 -41 19 -51 20 -92 8
l-45 -12 47 -12 c27 -7 61 -25 79 -43 49 -47 112 -72 185 -72 68 0 110 14 185
62 43 28 52 30 102 23 52 -6 58 -10 125 -83 38 -41 70 -79 70 -84 0 -4 37 31
81 77 63 66 88 85 109 85 49 0 184 39 255 74 85 42 176 123 230 204 44 67 80
92 169 117 74 22 165 16 223 -14 41 -20 173 -136 173 -150 0 -4 -37 -5 -83 -3
-70 4 -90 1 -124 -16 -73 -38 -113 -99 -148 -226 -21 -74 -64 -122 -121 -131
-21 -4 -46 -9 -54 -12 -26 -10 92 -33 175 -35 137 -3 206 45 284 199 45 88 64
113 103 138 27 17 28 17 79 -28 65 -57 155 -102 237 -118 76 -14 225 -7 297
15 86 26 165 98 165 150 0 11 -17 5 -61 -24 -58 -37 -155 -80 -182 -80 -27 0
-118 53 -147 86 -39 45 -39 87 0 195 45 122 51 155 38 232 -10 64 -28 92 -28
44z"/>
<path d="M6245 12569 c-426 -74 -841 -231 -1416 -534 -697 -368 -874 -447
-1099 -492 -68 -14 -134 -17 -325 -16 -459 3 -903 65 -1490 208 -364 88 -818
225 -1126 340 -51 19 -94 33 -96 32 -1 -2 13 -46 33 -98 115 -309 248 -749
339 -1122 144 -591 206 -1040 208 -1497 2 -428 -20 -489 -516 -1435 -283 -541
-433 -929 -512 -1326 -44 -218 -36 -335 41 -639 89 -351 244 -720 523 -1245
312 -587 405 -797 448 -1015 14 -68 17 -134 16 -325 -2 -456 -65 -903 -208
-1490 -90 -370 -225 -817 -339 -1124 -20 -52 -34 -96 -33 -98 2 -1 46 14 98
33 161 60 475 162 689 224 761 219 1365 320 1925 323 431 3 505 -24 1435 -513
562 -296 975 -452 1390 -526 168 -30 282 -21 560 47 330 81 714 238 1170 479
690 365 886 452 1110 497 68 14 134 17 325 16 559 -3 1166 -105 1925 -323 214
-62 528 -164 689 -224 52 -19 96 -34 98 -33 1 2 -13 46 -33 98 -208 558 -408
1323 -488 1864 -60 404 -79 895 -43 1075 43 218 136 428 448 1015 335 630 498
1051 575 1485 30 168 21 282 -47 560 -82 337 -234 708 -484 1181 -366 693
-449 879 -489 1089 -44 232 -22 709 55 1180 87 533 276 1241 473 1769 20 52
34 96 33 98 -2 1 -45 -13 -96 -32 -308 -115 -762 -252 -1126 -340 -587 -143
-1031 -205 -1490 -208 -431 -3 -510 26 -1424 508 -582 307 -997 463 -1426 535
-142 24 -157 24 -300 -1z m285 -69 c388 -50 788 -206 1485 -580 489 -262 764
-388 952 -436 334 -85 1014 -35 1768 132 335 74 695 175 1049 294 99 33 181
58 183 57 1 -2 -24 -84 -57 -183 -377 -1121 -556 -2306 -426 -2817 48 -190
174 -464 435 -950 306 -570 441 -882 526 -1212 73 -286 80 -441 31 -681 -76
-366 -227 -726 -585 -1394 -406 -758 -465 -948 -446 -1430 26 -668 190 -1469
469 -2299 31 -91 54 -166 53 -168 -2 -1 -77 22 -168 52 -432 146 -839 256
-1250 339 -666 134 -1278 170 -1582 92 -192 -49 -465 -174 -957 -438 -666
-357 -1015 -497 -1415 -568 -151 -26 -239 -26 -390 0 -400 71 -749 211 -1415
568 -308 165 -607 313 -742 366 -255 101 -454 127 -823 107 -644 -35 -1363
-182 -2149 -441 -132 -44 -241 -78 -243 -77 -1 2 32 106 73 231 133 404 233
775 309 1146 138 673 179 1302 105 1608 -44 183 -158 437 -385 862 -418 783
-555 1117 -626 1527 -25 149 -25 237 1 388 67 392 211 751 571 1422 261 486
387 760 435 950 50 196 54 487 13 892 -59 590 -216 1266 -459 1985 -22 66 -38
121 -37 122 2 2 104 -30 228 -71 1114 -368 2267 -539 2772 -411 188 48 462
174 952 436 601 322 945 468 1290 545 124 28 307 54 345 49 14 -2 63 -8 110
-14z"/>
<path d="M2325 12498 c-7 -40 -36 -80 -66 -90 -8 -3 -11 -9 -7 -13 14 -15 111
18 146 50 30 27 33 34 24 52 -10 18 -58 43 -83 43 -4 0 -10 -19 -14 -42z"/>
<path d="M10414 12526 c-48 -21 -51 -45 -11 -82 34 -31 131 -64 145 -49 4 4 1
10 -7 13 -30 10 -59 50 -66 90 -7 45 -14 48 -61 28z"/>
<path d="M3802 12441 c-22 -16 -43 -35 -47 -41 -4 -6 3 -34 15 -61 l21 -50
-20 -35 c-12 -19 -21 -41 -21 -49 0 -22 67 -74 105 -81 56 -10 80 2 174 89
l89 82 -80 75 c-45 41 -90 80 -102 87 -38 22 -90 15 -134 -16z"/>
<path d="M8864 12457 c-12 -7 -57 -46 -102 -87 l-80 -75 89 -82 c94 -87 118
-99 174 -89 38 7 105 59 105 81 0 8 -9 30 -21 49 l-20 35 21 50 c12 27 19 55
15 61 -4 6 -25 25 -47 41 -44 31 -96 38 -134 16z"/>
<path d="M4391 12407 c-6 -8 -14 -28 -17 -45 -14 -71 61 -112 104 -57 25 31
19 57 -20 90 -33 28 -50 31 -67 12z"/>
<path d="M8342 12395 c-39 -33 -45 -59 -20 -90 43 -55 118 -14 104 57 -12 62
-37 72 -84 33z"/>
<path d="M3572 12347 c-31 -33 -29 -80 4 -106 43 -34 86 -26 109 19 39 75 -56
148 -113 87z"/>
<path d="M9142 12363 c-7 -3 -19 -18 -28 -35 -13 -25 -13 -35 -3 -59 21 -52
68 -63 113 -28 66 52 -1 155 -82 122z"/>
<path d="M690 11174 c37 -53 90 -166 90 -191 0 -31 -53 -123 -87 -154 -45 -39
-86 -38 -209 7 -102 37 -155 44 -236 31 -50 -9 -66 -27 -24 -27 38 0 151 -38
224 -75 37 -19 77 -35 90 -35 45 0 24 -17 -115 -96 -18 -10 -33 -22 -33 -27 0
-14 147 69 223 125 37 28 94 80 127 116 l60 67 0 -61 c0 -33 -7 -87 -15 -119
-28 -109 -60 -157 -191 -285 -67 -66 -127 -120 -133 -120 -6 0 -8 -7 -5 -15 3
-8 -3 -27 -15 -43 -28 -40 -45 -124 -37 -184 9 -68 38 -140 102 -257 59 -107
96 -204 92 -236 -2 -16 -11 -11 -47 31 l-44 51 -71 -74 c-88 -93 -110 -133
-103 -186 4 -29 16 -51 45 -80 l40 -40 35 22 c43 26 63 26 105 1 39 -24 57
-16 96 44 32 50 33 81 2 148 -13 29 -29 75 -35 102 -7 28 -27 84 -45 125 -19
42 -32 78 -31 79 2 2 24 -10 50 -28 90 -62 174 -198 209 -341 25 -104 24 -107
-31 -102 -54 5 -100 -17 -128 -61 -15 -23 -15 -27 7 -65 l23 -40 -23 -47 -23
-47 28 -29 c42 -45 80 -61 125 -54 23 4 38 2 38 -4 0 -23 -51 -271 -70 -339
-22 -78 -34 -93 -88 -112 -30 -10 -40 -8 -97 21 -58 29 -69 32 -119 26 -60 -8
-86 -26 -38 -26 38 0 105 -24 143 -51 33 -23 67 -20 133 13 l39 20 -7 -39
c-12 -68 -57 -146 -96 -165 -34 -17 -34 -18 -9 -18 38 0 84 57 107 132 11 35
39 143 62 242 39 159 45 176 56 155 40 -79 38 -208 -7 -270 -11 -15 -29 -48
-40 -73 -17 -40 -18 -51 -8 -92 l12 -47 12 47 c7 27 25 61 43 79 47 49 72 112
72 185 0 68 -14 110 -62 185 -28 43 -30 52 -23 102 6 52 10 58 82 125 41 38
79 70 84 70 5 0 -30 37 -76 81 -66 63 -85 88 -85 109 0 49 -39 184 -74 255
-42 85 -123 176 -204 230 -67 44 -92 80 -117 169 -22 74 -16 165 14 223 20 41
136 173 150 173 4 0 5 -37 3 -83 -4 -70 -1 -90 16 -124 38 -73 99 -113 226
-148 74 -21 122 -64 131 -121 4 -21 9 -46 12 -54 9 -26 33 92 35 175 4 136
-45 205 -199 284 -88 45 -113 64 -138 103 -17 27 -17 28 28 79 94 107 133 227
124 384 -3 55 -12 123 -21 150 -27 87 -98 165 -151 165 -12 0 -9 -10 15 -46z"/>
<path d="M12075 11202 c-39 -24 -83 -88 -101 -149 -9 -26 -18 -93 -21 -148 -9
-157 30 -277 124 -384 45 -51 45 -52 28 -79 -25 -39 -50 -58 -138 -103 -154
-79 -203 -148 -199 -284 2 -83 26 -201 35 -175 3 8 8 33 12 54 9 57 57 100
131 121 127 35 188 75 226 148 17 34 20 54 16 124 -2 46 -1 83 3 83 14 0 130
-132 150 -173 30 -58 36 -149 14 -223 -25 -89 -50 -125 -117 -169 -81 -54
-162 -145 -204 -230 -35 -71 -74 -206 -74 -255 0 -21 -19 -46 -85 -109 -46
-44 -81 -81 -77 -81 5 0 43 -32 84 -70 74 -68 77 -73 84 -126 6 -48 4 -60 -15
-85 -95 -128 -95 -287 1 -386 18 -18 36 -52 43 -79 l12 -47 12 47 c10 41 9 52
-8 92 -11 25 -29 58 -40 73 -45 62 -47 191 -7 270 11 21 17 4 56 -155 23 -99
51 -207 62 -242 23 -75 69 -132 107 -132 25 0 25 1 -9 18 -39 19 -84 97 -96
165 l-7 39 39 -20 c66 -33 100 -36 133 -13 38 27 105 51 143 51 48 0 22 18
-38 26 -50 6 -61 3 -119 -26 -57 -29 -67 -31 -97 -21 -54 19 -66 34 -88 112
-19 68 -70 316 -70 339 0 6 15 8 38 4 45 -7 83 9 125 54 l28 29 -23 47 -23 47
23 40 c22 38 22 42 7 65 -28 44 -74 66 -127 61 -43 -4 -48 -2 -48 17 1 86 79
277 145 354 34 40 123 108 130 100 1 -1 -12 -37 -31 -79 -18 -41 -38 -97 -45
-125 -6 -27 -22 -73 -35 -102 -13 -29 -24 -64 -24 -78 0 -34 37 -100 67 -119
20 -14 25 -13 55 5 42 25 62 25 105 -1 l34 -21 31 28 c89 85 78 143 -53 282
l-66 69 -44 -51 c-36 -42 -45 -47 -47 -31 -4 32 33 129 92 236 64 117 93 189
102 257 8 60 -9 144 -37 184 -12 16 -18 35 -15 43 3 8 1 15 -5 15 -6 0 -66 54
-133 120 -131 128 -163 176 -191 285 -8 32 -15 86 -15 120 l0 60 56 -63 c31
-34 82 -82 114 -107 58 -44 188 -125 223 -138 29 -11 19 8 -15 27 -140 79
-161 96 -115 96 12 0 52 16 89 35 73 37 186 75 224 75 42 0 26 18 -23 27 -82
13 -135 6 -237 -31 -124 -45 -164 -46 -210 -6 -36 32 -86 120 -86 152 0 26 52
138 90 192 26 39 28 46 13 46 -10 0 -31 -8 -48 -18z"/>
<path d="M172 10713 c-10 -17 0 -69 16 -85 6 -6 25 2 47 16 41 28 60 31 99 16
34 -13 33 4 -1 28 -60 41 -145 55 -161 25z"/>
<path d="M12525 10718 c-37 -13 -85 -46 -85 -58 0 -6 11 -5 26 0 39 15 58 12
99 -16 41 -28 51 -24 64 23 17 58 -25 79 -104 51z"/>
<path d="M255 10631 c-40 -23 -85 -78 -85 -100 0 -23 40 -41 91 -41 44 0 84
17 112 48 17 18 17 22 2 60 -22 55 -66 67 -120 33z"/>
<path d="M12458 10643 c-9 -2 -24 -22 -33 -45 -15 -38 -15 -42 2 -60 41 -46
121 -62 178 -36 33 15 32 40 -6 83 -49 55 -89 72 -141 58z"/>
<path d="M377 10520 c-16 -27 -64 -50 -104 -50 -16 0 -16 -8 -2 -49 17 -47 45
-58 76 -29 33 30 49 63 58 116 8 49 -3 54 -28 12z"/>
<path d="M12395 10508 c9 -53 25 -86 58 -116 31 -29 59 -18 76 29 14 41 14 49
-1 49 -41 0 -89 23 -105 50 -25 42 -36 37 -28 -12z"/>
<path d="M357 10240 c-95 -103 -146 -237 -147 -385 0 -52 -19 -136 -39 -173
-16 -30 -2 -28 45 7 57 42 80 69 111 136 26 55 28 70 29 185 1 131 12 177 63
249 19 26 19 41 0 41 -4 0 -32 -27 -62 -60z"/>
<path d="M12367 10294 c-4 -4 3 -19 14 -35 51 -72 62 -118 63 -249 1 -115 3
-130 29 -185 31 -67 54 -94 111 -136 47 -35 61 -37 45 -7 -20 37 -39 121 -39
173 -1 147 -52 283 -146 385 -56 60 -65 66 -77 54z"/>
<path d="M179 9327 c-42 -25 -184 -157 -170 -157 5 0 47 -36 94 -79 118 -110
169 -117 247 -36 l33 34 -23 44 -23 44 23 47 22 47 -23 26 c-54 57 -119 68
-180 30z"/>
<path d="M12485 9331 c-16 -10 -38 -28 -49 -39 -18 -21 -18 -22 5 -68 l22 -47
-23 -44 -23 -44 33 -34 c78 -81 129 -74 247 36 47 43 89 79 94 79 14 0 -128
132 -170 157 -44 28 -96 29 -136 4z"/>
<path d="M452 9227 c-57 -61 13 -151 88 -112 45 23 53 66 19 109 -27 34 -77
36 -107 3z"/>
<path d="M12241 9224 c-34 -43 -26 -86 19 -109 33 -17 84 -4 100 25 41 78 -65
152 -119 84z"/>
<path d="M383 9028 c-39 -44 -53 -73 -53 -108 1 -46 11 -62 100 -158 l75 -80
82 89 c87 94 99 118 89 174 -7 38 -59 105 -81 105 -8 0 -30 -9 -49 -21 l-35
-20 -47 20 c-58 26 -56 26 -81 -1z"/>
<path d="M12162 9015 c-33 -37 -48 -89 -38 -130 4 -14 43 -65 89 -114 l82 -89
75 80 c89 96 99 112 100 159 0 34 -40 105 -70 124 -6 4 -34 -3 -61 -15 l-50
-21 -35 20 c-47 28 -57 27 -92 -14z"/>
<path d="M410 8417 c-34 -17 -36 -39 -5 -76 45 -52 115 -33 115 32 0 47 -58
70 -110 44z"/>
<path d="M12303 8415 c-32 -22 -30 -68 2 -93 15 -12 34 -18 45 -15 23 6 70 58
70 78 0 35 -81 56 -117 30z"/>
<path d="M440 4487 c-13 -7 -32 -25 -44 -40 -26 -35 -14 -58 37 -71 88 -23
122 72 41 117 -5 3 -21 0 -34 -6z"/>
<path d="M12314 4487 c-26 -14 -34 -27 -34 -59 0 -37 39 -63 82 -54 62 12 72
37 33 84 -29 34 -54 44 -81 29z"/>
<path d="M620 4452 c39 -19 84 -97 96 -165 l7 -39 -39 20 c-66 33 -100 36
-133 13 -38 -27 -105 -51 -143 -51 -48 0 -22 -18 38 -26 50 -6 61 -3 119 26
57 29 67 31 97 21 55 -19 69 -36 89 -113 18 -72 69 -319 69 -338 0 -6 -15 -8
-39 -4 -45 7 -110 -23 -136 -63 -14 -21 -13 -26 5 -60 25 -47 25 -58 -1 -100
-20 -32 -20 -35 -4 -59 28 -44 74 -66 128 -61 55 5 56 2 31 -102 -21 -86 -64
-180 -110 -243 -34 -46 -139 -136 -149 -127 -2 3 11 38 30 79 19 41 39 98 45
125 7 28 23 74 36 103 31 67 30 98 -2 148 -39 60 -57 68 -96 44 -42 -25 -62
-25 -105 1 l-35 22 -40 -40 c-29 -29 -41 -51 -45 -80 -7 -53 15 -93 103 -186
l72 -75 46 55 c41 49 46 52 46 31 0 -41 -36 -134 -94 -239 -64 -117 -93 -189
-102 -257 -8 -60 9 -144 37 -184 12 -16 18 -35 15 -43 -3 -8 -1 -15 5 -15 6 0
66 -54 133 -120 131 -128 163 -176 191 -285 8 -32 15 -86 15 -120 l0 -60 -56
63 c-78 87 -246 210 -331 243 -34 13 -28 -4 10 -25 138 -78 160 -96 116 -96
-12 0 -58 -18 -103 -39 -89 -42 -175 -71 -213 -71 -41 0 -24 -19 24 -27 82
-13 135 -6 237 31 124 45 164 46 210 6 36 -32 86 -120 86 -152 0 -26 -52 -138
-90 -192 -24 -36 -27 -46 -15 -46 53 0 124 78 151 165 9 27 18 95 21 150 9
157 -30 277 -124 384 -45 51 -45 52 -28 79 25 39 50 58 138 103 154 79 203
148 199 284 -2 83 -26 201 -35 175 -3 -8 -8 -33 -12 -54 -9 -57 -57 -100 -131
-121 -127 -35 -188 -75 -226 -148 -17 -34 -20 -54 -16 -124 2 -46 1 -83 -3
-83 -14 0 -130 132 -150 173 -30 58 -36 149 -14 223 25 89 50 125 117 169 81
54 162 145 204 230 35 71 74 206 74 255 0 21 19 46 85 109 46 44 81 81 77 81
-5 0 -43 32 -84 70 -73 67 -77 73 -83 125 -7 50 -5 59 23 102 48 75 62 117 62
185 0 73 -25 136 -72 185 -18 18 -36 52 -43 79 l-12 47 -12 -47 c-10 -41 -9
-52 8 -92 11 -25 29 -58 40 -73 45 -62 47 -191 7 -270 -11 -21 -17 -4 -56 155
-23 99 -51 207 -62 242 -23 75 -69 132 -107 132 -25 0 -25 -1 9 -18z"/>
<path d="M12131 4435 c-35 -40 -53 -93 -111 -339 -39 -160 -45 -176 -56 -155
-40 79 -38 208 7 270 11 15 29 48 40 73 17 40 18 51 8 92 l-12 47 -12 -47 c-7
-27 -25 -61 -43 -79 -47 -49 -72 -112 -72 -185 0 -68 14 -110 62 -185 28 -43
30 -52 23 -102 -6 -52 -10 -58 -83 -125 -41 -38 -79 -70 -84 -70 -4 0 31 -37
77 -81 66 -63 85 -88 85 -109 0 -49 39 -184 74 -255 42 -85 123 -176 204 -230
67 -44 92 -80 117 -169 22 -74 16 -165 -14 -223 -20 -41 -136 -173 -150 -173
-4 0 -5 37 -3 83 4 70 1 90 -16 124 -38 73 -99 113 -226 148 -74 21 -122 64
-131 121 -4 21 -9 46 -12 54 -9 26 -33 -92 -35 -175 -4 -136 45 -205 199 -284
88 -45 113 -64 138 -103 17 -27 17 -28 -28 -79 -57 -65 -102 -155 -118 -237
-14 -76 -7 -225 15 -297 26 -86 98 -165 151 -165 12 0 9 10 -15 46 -38 54 -90
166 -90 192 0 32 50 120 86 152 46 40 86 39 210 -6 102 -37 155 -44 237 -31
48 8 65 27 24 27 -38 0 -124 29 -213 71 -45 21 -91 39 -103 39 -44 0 -22 18
117 96 37 21 43 38 9 25 -85 -33 -253 -156 -331 -243 l-56 -63 0 60 c0 34 7
88 15 120 28 109 60 157 191 285 67 66 127 120 133 120 6 0 8 7 5 15 -3 8 3
27 15 43 28 40 45 124 37 184 -9 68 -38 140 -102 257 -58 105 -94 198 -94 239
0 21 5 18 46 -31 l46 -55 67 70 c131 139 142 197 53 282 l-31 28 -34 -21 c-43
-26 -63 -26 -105 -1 -30 18 -35 19 -55 5 -30 -19 -67 -85 -67 -119 0 -14 11
-49 24 -78 13 -29 29 -75 36 -103 6 -27 26 -84 45 -125 19 -41 32 -76 30 -78
-9 -9 -100 64 -137 111 -50 64 -103 174 -123 259 -24 103 -23 106 33 101 53
-5 99 17 127 61 16 24 16 27 -4 59 -26 42 -26 53 -1 100 18 34 19 39 5 60 -26
40 -91 70 -136 63 -24 -4 -39 -2 -39 4 0 19 51 266 69 338 20 77 34 94 89 113
30 10 40 8 97 -21 58 -29 69 -32 119 -26 60 8 86 26 38 26 -38 0 -105 24 -143
51 -33 23 -67 20 -133 -13 l-39 -20 7 39 c12 68 57 146 96 165 34 17 34 18 9
18 -18 0 -37 -12 -58 -35z"/>
<path d="M430 4038 c-89 -96 -99 -112 -100 -159 0 -34 40 -105 70 -124 6 -4
34 3 61 15 l50 21 35 -20 c46 -27 55 -26 86 7 46 47 61 114 35 158 -7 12 -46
57 -87 102 l-75 80 -75 -80z"/>
<path d="M12213 4029 c-87 -94 -99 -118 -89 -174 7 -38 59 -105 81 -105 8 0
30 9 49 21 l35 20 50 -21 c27 -12 55 -19 61 -15 30 19 70 90 70 124 -1 47 -11
63 -100 159 l-75 80 -82 -89z"/>
<path d="M201 3789 c-13 -5 -59 -43 -103 -84 -44 -41 -84 -75 -89 -75 -14 0
128 -132 170 -157 61 -38 126 -27 180 30 l23 26 -22 47 -23 47 23 44 23 44
-29 30 c-52 55 -99 70 -153 48z"/>
<path d="M12495 3781 c-16 -10 -41 -30 -54 -44 l-24 -27 23 -43 23 -44 -23
-47 -22 -47 23 -26 c54 -57 119 -68 180 -30 42 25 184 157 170 157 -5 0 -45
34 -89 75 -105 99 -146 114 -207 76z"/>
<path d="M474 3686 c-50 -22 -60 -78 -21 -114 33 -31 80 -29 106 4 34 43 26
86 -20 109 -33 18 -26 18 -65 1z"/>
<path d="M12265 3688 c-49 -26 -58 -69 -24 -112 41 -52 129 -20 129 47 0 26
-30 67 -49 67 -5 0 -15 2 -23 5 -7 2 -22 0 -33 -7z"/>
<path d="M171 3118 c20 -37 39 -121 39 -173 1 -149 53 -285 149 -387 36 -38
62 -59 69 -54 9 5 7 15 -8 36 -52 73 -63 118 -64 250 -1 115 -3 130 -29 185
-31 67 -54 94 -111 136 -47 35 -61 37 -45 7z"/>
<path d="M12600 3123 c-113 -75 -168 -191 -156 -330 7 -92 -6 -156 -49 -227
-48 -79 -25 -83 46 -8 96 102 148 238 149 387 0 52 19 136 39 173 14 26 4 28
-29 5z"/>
<path d="M297 2418 c-15 -12 -37 -58 -37 -79 0 -5 6 -9 13 -9 40 0 88 -23 104
-50 25 -42 36 -37 28 13 -9 51 -20 74 -53 110 -29 31 -32 32 -55 15z"/>
<path d="M12448 2403 c-33 -36 -44 -59 -53 -110 -8 -50 3 -55 28 -13 16 27 64
50 105 50 15 0 15 8 1 49 -9 26 -34 51 -51 51 -3 0 -16 -12 -30 -27z"/>
<path d="M193 2298 c-31 -15 -29 -41 8 -83 43 -49 83 -68 124 -61 27 5 36 14
49 48 16 38 16 42 -1 60 -41 45 -126 62 -180 36z"/>
<path d="M12465 2292 c-53 -33 -58 -45 -39 -91 13 -33 22 -42 49 -47 21 -4 43
0 62 10 38 19 93 81 93 105 0 40 -111 56 -165 23z"/>
<path d="M185 2170 c-15 -25 -22 -68 -13 -83 16 -30 101 -16 161 25 34 24 35
41 1 28 -39 -15 -58 -12 -98 15 -42 28 -43 29 -51 15z"/>
<path d="M12561 2154 c-37 -26 -56 -29 -95 -14 -34 13 -33 -4 2 -28 60 -42
144 -55 161 -24 10 19 -7 84 -24 88 -5 1 -25 -9 -44 -22z"/>
<path d="M2673 1030 c-91 -19 -148 -72 -212 -197 -45 -88 -64 -113 -103 -138
-27 -17 -28 -17 -79 28 -107 94 -227 133 -384 124 -55 -3 -123 -12 -150 -21
-86 -26 -165 -98 -165 -150 0 -11 17 -5 61 24 78 50 165 83 198 75 43 -11 109
-54 136 -89 34 -45 32 -84 -11 -202 -37 -102 -44 -155 -31 -237 9 -49 27 -65
27 -23 0 38 36 145 75 221 19 39 35 80 35 93 0 45 17 24 96 -115 10 -18 22
-33 27 -33 14 0 -69 147 -125 223 -28 37 -80 94 -116 127 l-67 60 61 0 c33 0
87 -7 119 -15 109 -28 157 -60 285 -191 66 -67 120 -127 120 -133 0 -6 7 -8
15 -5 8 3 27 -3 43 -15 40 -28 124 -45 184 -37 68 9 140 38 257 102 107 59
204 96 236 92 16 -2 11 -11 -31 -47 l-51 -44 69 -66 c139 -131 197 -142 282
-53 l28 31 -21 34 c-26 43 -26 63 -1 105 18 30 19 35 5 55 -19 30 -85 67 -119
67 -14 0 -49 -11 -78 -24 -29 -13 -75 -29 -103 -36 -27 -6 -84 -26 -125 -45
-41 -19 -76 -32 -78 -30 -8 8 59 95 100 130 77 66 268 144 354 145 19 0 21 -5
17 -47 -5 -54 17 -100 61 -128 24 -16 27 -16 59 4 42 26 53 26 100 1 36 -20
39 -20 62 -3 41 31 68 89 61 134 -4 24 -2 39 4 39 20 0 267 -51 340 -70 80
-20 95 -33 110 -91 9 -32 6 -44 -21 -95 -27 -52 -30 -65 -25 -114 8 -61 26
-93 26 -43 0 39 23 106 51 144 23 33 20 67 -13 133 l-20 39 39 -7 c68 -12 146
-57 165 -96 17 -34 18 -34 18 -9 0 38 -57 84 -132 107 -35 11 -143 39 -242 62
-160 39 -176 45 -155 56 79 40 208 38 270 -7 15 -11 48 -29 73 -40 40 -17 51
-18 92 -8 l47 12 -47 12 c-27 7 -61 25 -79 43 -49 47 -112 72 -185 72 -68 0
-110 -14 -185 -62 -43 -28 -52 -30 -102 -23 -52 6 -58 10 -125 83 -38 41 -70
79 -70 84 0 4 -37 -31 -81 -77 -63 -66 -88 -85 -109 -85 -49 0 -184 -39 -255
-74 -85 -42 -176 -123 -230 -204 -44 -67 -80 -92 -169 -117 -74 -22 -165 -16
-223 14 -41 20 -173 136 -173 150 0 4 37 5 83 3 70 -4 90 -1 124 16 73 38 113
99 148 226 21 74 64 122 121 131 68 11 71 17 14 30 -81 19 -160 24 -207 15z"/>
<path d="M9995 1030 c-133 -22 -145 -31 -61 -45 57 -9 100 -57 121 -131 35
-127 75 -188 148 -226 34 -17 54 -20 124 -16 46 2 83 1 83 -3 0 -14 -132 -130
-173 -150 -58 -30 -149 -36 -223 -14 -89 25 -125 50 -169 117 -54 81 -145 162
-230 204 -71 35 -206 74 -255 74 -21 0 -46 19 -109 85 -44 46 -81 81 -81 77 0
-5 -32 -43 -70 -84 -67 -73 -73 -77 -125 -83 -50 -7 -59 -5 -102 23 -75 48
-117 62 -185 62 -73 0 -136 -25 -185 -72 -18 -18 -52 -36 -79 -43 l-47 -12 47
-12 c41 -10 52 -9 92 8 25 11 58 29 73 40 62 45 191 47 270 7 21 -11 5 -17
-155 -56 -99 -23 -207 -51 -242 -62 -75 -23 -132 -69 -132 -107 0 -25 1 -25
18 9 19 39 97 84 165 96 l39 7 -20 -39 c-33 -66 -36 -100 -13 -133 27 -38 51
-105 51 -143 0 -48 18 -22 26 38 6 50 3 61 -26 119 l-33 65 18 46 c10 26 26
49 39 54 42 18 368 90 407 90 5 0 7 -16 3 -39 -7 -45 20 -103 61 -134 23 -17
26 -17 62 3 47 25 58 25 100 -1 32 -20 35 -20 59 -4 44 28 66 74 61 128 -5 55
-2 56 100 32 83 -20 185 -66 249 -115 47 -35 132 -136 122 -145 -2 -2 -37 11
-78 30 -41 19 -97 39 -125 45 -27 7 -74 23 -103 36 -29 13 -64 24 -78 24 -34
0 -100 -37 -119 -67 -14 -20 -13 -25 5 -55 25 -42 25 -62 -1 -105 l-21 -34 28
-31 c85 -89 143 -78 282 53 l69 66 -51 44 c-42 36 -47 45 -31 47 32 4 129 -33
236 -92 117 -64 189 -93 257 -102 60 -8 144 9 184 37 16 12 35 18 43 15 8 -3
15 -1 15 5 0 6 54 66 120 133 128 131 176 163 285 191 32 8 86 15 120 15 l60
0 -63 -56 c-34 -31 -82 -82 -107 -114 -44 -58 -125 -188 -138 -222 -11 -30 8
-20 27 15 78 138 96 160 96 116 0 -12 18 -58 39 -103 42 -89 71 -175 71 -213
0 -48 18 -20 28 45 13 76 7 109 -38 231 -39 108 -39 150 0 195 29 33 120 86
147 86 27 0 124 -43 182 -80 44 -29 61 -35 61 -24 0 52 -79 124 -165 150 -72
22 -221 29 -297 15 -82 -16 -172 -61 -237 -118 -51 -45 -52 -45 -79 -28 -39
25 -58 50 -103 138 -85 167 -184 223 -344 197z"/>
<path d="M3830 669 c-31 -13 -80 -58 -80 -75 0 -7 9 -29 21 -48 l20 -35 -21
-50 c-12 -27 -19 -55 -15 -61 19 -30 90 -70 124 -70 47 1 64 11 158 100 l80
76 -80 74 c-44 41 -89 80 -101 87 -25 15 -72 15 -106 2z"/>
<path d="M8864 667 c-12 -7 -57 -46 -102 -87 l-80 -75 80 -75 c96 -89 112 -99
159 -100 34 0 105 40 124 70 4 6 -3 34 -15 61 l-21 50 20 35 c27 46 26 55 -6
86 -48 46 -115 61 -159 35z"/>
<path d="M3576 559 c-68 -54 6 -161 84 -119 29 16 42 67 25 100 -23 45 -66 53
-109 19z"/>
<path d="M9142 573 c-7 -3 -19 -18 -28 -35 -39 -75 57 -146 114 -85 56 60 -9
151 -86 120z"/>
<path d="M4384 495 c-25 -38 -4 -115 31 -115 20 0 72 47 78 70 3 11 -3 30 -15
45 -26 34 -72 34 -94 0z"/>
<path d="M8334 512 c-41 -27 -33 -77 19 -116 35 -26 58 -14 71 37 12 47 -12
87 -52 87 -15 0 -32 -4 -38 -8z"/>
<path d="M2503 427 c-3 -6 21 -36 55 -68 102 -96 238 -148 387 -149 52 0 136
-19 173 -39 26 -14 28 -4 5 29 -75 113 -191 168 -330 156 -92 -7 -156 6 -227
49 -37 22 -58 30 -63 22z"/>
<path d="M10231 404 c-68 -42 -132 -55 -224 -48 -139 12 -255 -43 -330 -156
-23 -33 -21 -43 5 -29 37 20 121 39 173 39 150 1 285 53 388 150 75 70 69 93
-12 44z"/>
<path d="M2250 402 c0 -6 9 -14 20 -17 27 -8 47 -41 55 -87 4 -21 11 -38 15
-38 23 0 72 25 81 42 19 36 -49 91 -130 104 -26 4 -41 3 -41 -4z"/>
<path d="M10466 395 c-22 -8 -53 -27 -69 -43 -24 -25 -27 -33 -18 -50 9 -17
57 -42 81 -42 4 0 11 17 15 38 8 46 28 79 55 87 11 3 20 11 20 16 0 13 -38 10
-84 -6z"/>
<path d="M2198 374 c-68 -29 -61 -104 17 -173 43 -38 68 -39 83 -6 15 33 15
100 1 128 -13 25 -50 67 -58 66 -3 0 -23 -7 -43 -15z"/>
<path d="M10533 368 c-32 -35 -43 -63 -43 -107 0 -51 18 -91 41 -91 24 0 86
55 105 93 10 19 14 41 10 62 -5 27 -14 36 -46 49 -49 20 -43 20 -67 -6z"/>
<path d="M3498 353 c-54 -59 -63 -114 -25 -174 25 -42 157 -184 157 -170 0 5
36 47 79 94 110 118 117 169 36 247 l-34 33 -44 -23 -44 -23 -45 21 c-24 12
-47 22 -49 22 -3 0 -17 -12 -31 -27z"/>
<path d="M9047 341 c-72 -80 -64 -122 44 -238 43 -47 79 -89 79 -94 0 -14 132
128 157 170 38 61 27 126 -30 180 l-26 23 -47 -22 -47 -23 -41 21 c-23 12 -44
22 -47 22 -4 0 -22 -18 -42 -39z"/>
<path d="M2112 333 c-25 -35 -45 -101 -40 -133 2 -20 9 -26 38 -28 19 -2 43 3
53 11 18 13 18 15 -7 51 -28 42 -31 61 -16 100 13 34 -3 33 -28 -1z"/>
<path d="M10660 334 c15 -39 12 -58 -16 -100 -25 -36 -25 -38 -7 -51 10 -8 34
-13 53 -11 29 2 36 8 38 28 5 32 -15 98 -40 133 -25 34 -41 35 -28 1z"/>
</g>
</svg>
