<?xml version="1.0" standalone="no"?>
<!DOCTYPE svg PUBLIC "-//W3C//DTD SVG 20010904//EN"
 "http://www.w3.org/TR/2001/REC-SVG-20010904/DTD/svg10.dtd">
<svg version="1.0" xmlns="http://www.w3.org/2000/svg"
 width="1280.000000pt" height="1280.000000pt" viewBox="0 0 1280.000000 1280.000000"
 preserveAspectRatio="xMidYMid meet">
<metadata>
Created by potrace 1.15, written by Peter Selinger 2001-2017
</metadata>
<g transform="translate(0.000000,1280.000000) scale(0.100000,-0.100000)"
fill="#000000" stroke="none">
<path d="M270 12794 c-54 -22 -68 -78 -24 -94 14 -6 39 -10 56 -10 58 0 115
-51 198 -175 18 -27 47 -65 63 -82 17 -18 27 -36 23 -40 -4 -5 -44 -8 -89 -8
l-82 0 0 -82 c0 -45 -3 -85 -8 -89 -4 -4 -22 6 -40 23 -17 16 -54 45 -82 63
-124 83 -175 140 -175 198 0 51 -17 82 -43 82 -43 0 -62 -34 -62 -109 1 -131
95 -259 263 -358 106 -63 208 -156 242 -223 19 -36 60 -144 60 -157 0 -11 -24
1 -54 27 -18 17 -60 42 -92 57 -51 24 -71 28 -156 28 -89 0 -98 -2 -124 -25
-35 -33 -74 -121 -74 -170 0 -31 4 -40 22 -46 16 -5 26 -1 39 17 50 68 78 75
126 35 51 -42 93 -55 197 -58 l98 -3 30 -35 c66 -78 109 -208 143 -435 46
-304 156 -655 281 -894 29 -57 52 -106 50 -109 -7 -6 -257 201 -309 257 -50
53 -86 120 -87 158 0 13 7 41 16 63 13 32 14 43 4 55 -19 23 -36 18 -79 -20
l-39 -36 -20 33 c-49 79 -46 109 11 122 20 5 33 17 43 43 30 71 -5 134 -83
149 l-35 7 39 21 c81 45 93 146 23 194 -40 27 -74 24 -120 -8 -40 -29 -50 -25
-50 18 0 48 -30 79 -85 87 -52 8 -105 -25 -121 -75 -11 -32 -16 -35 -59 -41
-55 -6 -79 -29 -96 -91 -15 -58 -5 -84 46 -120 25 -18 45 -36 45 -40 0 -5 -12
-27 -27 -49 -19 -29 -27 -54 -27 -89 -1 -65 23 -91 91 -97 40 -4 54 0 86 21
21 14 40 26 42 26 3 0 11 -15 19 -33 20 -49 59 -71 116 -64 38 5 51 2 62 -11
20 -23 78 -120 78 -130 0 -4 -17 -14 -37 -21 -54 -20 -93 -49 -93 -72 0 -23
26 -25 112 -7 72 15 92 6 204 -89 45 -38 126 -103 180 -144 104 -78 230 -196
220 -207 -3 -3 -39 17 -79 45 -39 28 -103 66 -142 85 -82 41 -257 102 -338
117 -83 15 -130 43 -165 98 -28 44 -71 90 -113 121 -9 7 -40 16 -69 22 -75 14
-80 21 -80 101 0 38 -5 71 -11 75 -17 10 -67 -44 -85 -93 -19 -49 -14 -130 12
-191 19 -46 66 -96 120 -128 47 -28 180 -64 236 -64 26 0 38 -4 38 -14 0 -20
-78 -86 -156 -132 -98 -57 -157 -143 -174 -252 -8 -47 -16 -63 -44 -87 -39
-34 -37 -57 10 -94 50 -39 120 -24 180 41 46 48 71 103 93 206 31 142 69 200
161 241 51 23 158 28 225 10 62 -16 145 -50 145 -60 0 -4 -19 -13 -42 -19
-116 -30 -204 -70 -281 -129 -81 -61 -138 -204 -111 -275 8 -20 34 -21 34 -2
0 26 86 91 143 109 65 20 97 50 138 127 39 73 62 85 158 84 85 -1 136 -19 211
-75 l45 -34 -85 -6 c-47 -4 -104 -15 -128 -24 -53 -22 -94 -69 -90 -104 3 -24
6 -26 58 -27 30 0 68 -6 83 -12 17 -7 83 -12 161 -12 l133 0 41 -44 c22 -24
48 -58 56 -75 28 -53 113 -321 129 -406 26 -133 27 -145 17 -145 -6 0 -10 6
-10 13 0 6 -52 100 -115 207 -108 182 -145 263 -130 278 4 4 19 -8 33 -26 29
-35 56 -42 66 -16 18 48 -6 98 -61 120 -48 20 -105 4 -134 -39 -13 -17 -24
-33 -25 -35 -1 -2 -34 10 -73 27 -152 67 -192 76 -361 76 -172 -1 -227 -12
-335 -68 -74 -39 -226 -189 -273 -269 -108 -184 -119 -391 -33 -625 21 -56 36
-105 33 -108 -3 -3 -14 -5 -24 -5 -34 0 -68 -45 -68 -90 0 -51 22 -105 48
-119 49 -26 119 -1 163 58 27 37 53 39 117 9 69 -32 189 -30 263 4 60 28 111
75 130 120 10 24 16 28 33 22 12 -3 43 -9 69 -11 40 -4 55 -1 87 21 54 36 74
76 65 135 -9 56 -17 73 -66 132 -21 26 -35 49 -32 53 4 3 29 6 57 6 122 0 191
104 131 197 -38 58 -119 78 -192 48 -20 -8 -38 -14 -40 -12 -2 2 8 24 22 48
50 89 42 170 -20 209 -82 51 -177 7 -224 -103 -12 -27 -25 -46 -31 -42 -5 3
-23 25 -39 49 -34 49 -88 80 -125 70 -33 -8 -99 -66 -127 -111 -20 -33 -21
-40 -10 -81 6 -25 21 -58 32 -74 12 -16 20 -30 18 -32 -2 -1 -23 -10 -47 -21
-92 -40 -126 -120 -82 -192 38 -63 81 -74 193 -47 l27 6 -30 -63 c-35 -75 -38
-121 -10 -167 23 -37 88 -71 135 -72 67 0 135 81 135 161 0 19 5 41 10 49 7
11 10 -4 10 -48 0 -136 -88 -212 -232 -199 -120 11 -196 69 -272 208 -58 106
-70 157 -69 299 0 154 18 211 98 316 114 149 214 212 395 250 100 21 207 12
325 -27 198 -66 280 -139 439 -389 l67 -105 -80 -7 c-91 -8 -134 -26 -156 -68
-17 -33 -20 -96 -5 -134 21 -56 127 -86 177 -51 27 19 39 75 24 104 -17 30
-58 28 -73 -4 -15 -32 -42 -28 -46 6 -4 37 22 59 68 59 80 0 129 -81 156 -260
15 -102 18 -322 4 -355 -7 -19 -9 -18 -19 8 -6 16 -11 32 -11 36 0 16 -78 127
-129 186 -29 33 -67 84 -83 113 -33 58 -50 64 -74 27 -12 -19 -15 -42 -12 -93
4 -81 40 -161 118 -268 125 -170 145 -275 92 -475 -17 -63 -33 -135 -36 -161
l-6 -47 36 -7 c19 -3 38 -4 41 0 3 3 24 52 45 108 49 130 65 147 160 164 69
13 76 17 121 66 58 65 67 92 39 120 -28 29 -108 36 -151 13 -18 -9 -35 -14
-38 -11 -3 3 4 54 16 113 38 195 44 293 38 563 -6 263 -17 355 -72 620 -13 63
-33 176 -44 251 -25 166 -21 201 45 342 37 79 48 115 56 184 6 58 18 102 35
135 20 39 23 51 13 63 -31 37 -123 6 -170 -58 -30 -41 -85 -171 -97 -228 -7
-38 -21 -46 -27 -17 -13 62 -28 302 -22 345 14 105 34 143 123 231 86 86 116
131 127 193 5 27 21 50 66 91 33 30 60 60 60 66 0 27 -33 42 -94 42 -71 0
-104 -17 -185 -93 -94 -90 -147 -183 -181 -315 -31 -122 -41 72 -15 296 19
163 45 267 81 324 35 56 236 257 292 292 57 36 159 61 325 80 226 26 417 17
295 -14 -163 -41 -294 -132 -382 -264 -44 -66 -33 -196 16 -196 6 0 36 27 66
60 41 45 64 61 91 66 62 11 107 41 194 128 75 76 90 86 151 105 37 12 91 21
118 21 52 0 265 -18 306 -26 29 -6 21 -20 -17 -27 -57 -12 -187 -67 -228 -97
-64 -47 -95 -139 -58 -170 12 -10 24 -7 63 13 33 17 77 29 135 35 68 8 105 19
184 55 140 66 174 71 308 52 60 -9 178 -29 260 -46 312 -62 378 -70 645 -76
271 -6 379 1 568 39 57 11 105 18 108 15 3 -3 -2 -20 -11 -38 -33 -62 -4 -169
45 -169 24 0 118 76 134 109 8 14 17 50 21 80 10 77 39 103 163 149 56 22 105
42 108 45 4 3 3 22 0 41 l-7 35 -52 -5 c-29 -3 -90 -17 -137 -31 -47 -15 -121
-28 -167 -31 -114 -6 -170 14 -322 115 -68 45 -148 92 -178 103 -70 26 -162
27 -194 2 -30 -25 -21 -45 33 -71 24 -11 72 -46 108 -78 63 -55 175 -133 191
-133 4 0 20 -5 36 -11 l28 -12 -25 -7 c-43 -13 -251 -11 -350 4 -179 27 -260
76 -260 156 0 46 22 72 59 68 34 -4 38 -31 6 -46 -32 -15 -34 -56 -4 -73 29
-15 85 -3 104 24 35 50 5 156 -51 177 -38 15 -101 12 -134 -5 -42 -22 -61 -66
-67 -156 -7 -92 11 -94 -163 19 -201 132 -290 242 -349 435 -54 178 -26 377
76 534 64 98 207 210 304 238 85 25 272 26 347 3 66 -21 153 -67 217 -116 145
-110 153 -351 15 -422 -41 -21 -181 -30 -150 -10 8 5 30 10 49 10 49 0 120 37
142 74 52 86 -21 216 -121 216 -19 0 -64 -14 -99 -30 l-63 -30 6 27 c27 112
16 155 -47 193 -72 44 -152 10 -192 -82 -11 -24 -19 -44 -20 -45 0 -1 -27 11
-59 27 -73 37 -93 37 -142 1 -51 -37 -70 -59 -89 -104 -14 -35 -14 -41 1 -73
9 -19 36 -48 60 -65 24 -16 46 -33 49 -39 3 -5 -16 -18 -42 -30 -111 -49 -154
-143 -103 -225 39 -62 120 -70 209 -20 24 14 46 24 48 22 2 -2 -4 -20 -12 -40
-30 -73 -10 -154 48 -192 93 -60 197 9 197 131 0 28 3 53 6 57 4 3 27 -11 53
-32 59 -49 76 -57 132 -66 59 -9 99 11 135 64 27 42 34 103 15 139 -16 31 -14
38 18 52 44 18 92 69 119 129 34 74 36 193 4 265 -30 66 -28 88 9 115 114 85
79 211 -59 211 -48 0 -79 -22 -90 -63 -5 -18 -13 -31 -18 -30 -5 1 -52 18
-105 37 -229 83 -436 71 -617 -36 -80 -47 -230 -199 -269 -273 -56 -107 -67
-163 -68 -335 0 -169 8 -207 76 -361 17 -39 29 -72 27 -73 -2 -1 -18 -12 -35
-25 -62 -42 -63 -142 -2 -185 30 -21 73 -21 95 1 16 16 14 19 -22 49 -21 18
-36 36 -32 39 15 15 97 -23 278 -130 107 -63 201 -115 208 -115 6 0 12 -4 12
-10 0 -10 -12 -9 -145 17 -85 16 -353 101 -406 129 -17 8 -51 34 -75 56 l-44
41 0 133 c0 78 -5 144 -12 161 -6 15 -12 53 -12 83 -1 51 -3 55 -27 58 -64 7
-117 -82 -127 -215 l-7 -88 -34 45 c-56 75 -74 126 -75 211 -1 96 11 119 84
158 72 39 113 84 130 144 13 50 81 137 106 137 19 0 18 26 -2 34 -71 27 -214
-30 -275 -111 -50 -66 -95 -158 -119 -244 -11 -39 -22 -74 -25 -78 -10 -9 -24
19 -50 102 -57 178 -16 325 108 389 21 10 79 28 129 39 103 22 158 47 206 93
65 60 80 130 41 180 -37 47 -60 49 -94 10 -24 -28 -40 -36 -87 -44 -109 -17
-195 -76 -252 -174 -46 -78 -112 -156 -132 -156 -10 0 -14 12 -14 38 0 56 -36
189 -64 236 -32 54 -82 101 -128 120 -61 26 -142 31 -191 12 -49 -18 -103 -68
-93 -85 4 -6 37 -11 75 -11 80 0 87 -5 101 -80 6 -29 15 -60 22 -69 31 -42 77
-85 121 -113 55 -35 83 -82 98 -165 15 -81 76 -256 117 -338 19 -38 57 -103
85 -142 28 -40 48 -76 45 -79 -11 -10 -129 116 -207 220 -41 54 -106 135 -144
180 -86 101 -100 128 -94 175 21 139 21 141 -1 141 -24 0 -53 -38 -73 -92 -7
-21 -16 -38 -21 -38 -10 0 -109 58 -129 76 -12 11 -15 27 -11 63 5 58 -16 97
-65 117 -18 8 -33 16 -33 19 0 2 12 21 26 42 21 32 25 46 21 86 -6 68 -32 92
-97 91 -35 0 -60 -8 -89 -27 -22 -15 -44 -27 -49 -27 -4 0 -22 20 -40 45 -36
51 -62 61 -120 46 -62 -17 -85 -41 -91 -96 -6 -43 -9 -48 -41 -59 -50 -16 -83
-69 -75 -121 8 -55 39 -85 87 -85 43 0 47 -10 18 -50 -32 -46 -35 -80 -8 -120
48 -70 149 -58 194 23 l21 39 7 -35 c9 -50 41 -85 83 -93 48 -9 100 16 109 53
13 57 44 60 122 11 l33 -20 -36 -39 c-38 -43 -43 -60 -20 -79 12 -10 23 -9 55
4 22 9 50 16 63 16 38 -1 105 -37 158 -87 56 -52 263 -302 257 -309 -3 -2 -52
21 -109 50 -239 125 -590 235 -894 281 -227 34 -357 77 -435 143 l-35 30 -3
98 c-3 104 -16 146 -58 197 -40 48 -33 76 35 126 18 13 22 23 17 39 -6 18 -15
22 -46 22 -49 0 -137 -39 -170 -74 -23 -26 -25 -35 -25 -124 0 -85 4 -105 28
-156 15 -32 40 -74 57 -92 26 -30 38 -54 27 -54 -13 0 -121 41 -157 60 -67 34
-160 136 -223 242 -93 159 -221 256 -346 264 -31 2 -63 1 -71 -2z m132 -55
c49 -13 147 -79 185 -127 18 -22 55 -79 84 -127 75 -128 120 -167 274 -240
113 -54 284 -125 300 -125 16 0 -1 19 -46 50 -100 68 -176 183 -200 300 -15
72 1 132 46 177 36 36 62 44 50 16 -20 -46 -16 -83 14 -150 22 -49 34 -92 40
-155 9 -96 19 -116 99 -190 70 -66 166 -94 559 -163 179 -32 424 -102 561
-162 135 -59 320 -153 379 -193 95 -64 62 -11 -146 238 -81 97 -167 194 -191
216 -75 68 -147 88 -215 61 -15 -6 -17 -5 -9 4 6 7 28 18 48 25 21 7 38 17 38
22 1 8 -87 67 -116 77 -6 2 -7 8 -3 13 10 11 76 -24 145 -76 29 -22 57 -38 63
-35 5 4 9 26 9 51 0 24 5 44 10 44 6 0 10 -25 10 -55 0 -53 2 -56 83 -156 45
-56 106 -131 135 -168 199 -248 234 -283 394 -404 102 -77 279 -187 301 -187
25 0 -8 29 -89 79 -101 62 -292 246 -357 343 -21 31 -42 60 -47 63 -15 9 -65
111 -89 180 -11 31 -34 118 -51 191 -46 201 -42 195 -156 280 -57 42 -75 61
-87 96 -8 24 -21 61 -29 83 -11 32 -20 41 -43 45 -35 6 -40 29 -9 40 30 11
111 -19 162 -60 58 -46 94 -126 133 -290 39 -171 40 -172 50 -137 7 28 63 108
121 175 15 18 34 47 42 65 22 54 91 105 171 128 38 11 90 26 115 34 67 22 90
20 90 -9 0 -29 -65 -91 -124 -116 -22 -11 -77 -28 -121 -40 -44 -12 -94 -31
-112 -42 -31 -18 -118 -120 -141 -164 -31 -60 -24 -184 17 -294 25 -68 82
-164 96 -162 6 1 16 40 22 87 19 124 73 249 146 332 34 39 117 83 156 83 22 0
22 -1 -12 -40 -22 -23 -43 -61 -52 -94 -18 -61 -25 -69 -104 -111 -123 -66
-154 -205 -79 -354 46 -92 235 -281 203 -203 -41 98 -47 129 -43 215 3 68 9
93 25 115 30 40 53 41 53 2 0 -18 7 -56 15 -85 12 -40 13 -63 6 -96 -15 -63
-13 -146 3 -178 8 -15 40 -46 70 -69 181 -137 432 -210 791 -232 256 -15 372
-13 383 5 6 11 37 18 116 25 121 11 150 15 256 38 61 13 70 17 50 23 -14 4
-53 7 -86 8 -121 2 -236 55 -365 167 -31 27 -72 61 -90 76 l-34 27 26 0 c33 1
123 -26 174 -51 22 -11 72 -44 110 -74 85 -64 159 -99 245 -114 82 -15 137 -8
266 36 93 31 192 46 169 26 -6 -5 -50 -23 -100 -42 -157 -58 -184 -84 -200
-195 -7 -54 -24 -79 -67 -101 -43 -22 -68 -18 -68 11 0 34 32 96 65 126 73 66
71 63 52 67 -10 2 -73 -10 -140 -27 -234 -58 -298 -65 -597 -65 -300 -1 -338
3 -640 69 -430 93 -478 95 -635 16 -81 -41 -123 -55 -173 -61 -37 -4 -89 -13
-116 -19 -27 -7 -51 -9 -54 -7 -19 20 86 106 168 137 51 19 175 39 248 39 26
0 53 4 60 9 19 12 -18 25 -183 63 -126 29 -156 32 -300 32 -194 1 -214 -6
-332 -115 -58 -54 -100 -82 -163 -112 -47 -21 -102 -55 -122 -75 -35 -33 -38
-34 -38 -14 0 39 60 143 112 194 54 53 178 117 268 139 34 9 114 14 212 14 86
0 154 3 150 7 -12 12 -117 36 -259 59 -119 19 -162 21 -308 16 -230 -8 -355
-32 -443 -83 -63 -37 -254 -224 -302 -297 -64 -95 -88 -212 -97 -462 -5 -146
-3 -189 16 -308 23 -142 47 -247 59 -259 4 -4 7 66 7 155 0 125 5 177 19 227
25 90 81 194 136 250 49 50 153 110 192 110 20 0 19 -3 -14 -37 -20 -21 -54
-76 -75 -123 -30 -63 -58 -105 -112 -163 -109 -118 -116 -138 -115 -332 0
-144 3 -174 32 -300 38 -165 51 -202 63 -183 5 7 9 34 9 60 0 73 20 197 39
248 31 82 117 187 137 168 2 -3 0 -27 -7 -54 -6 -27 -15 -79 -19 -116 -6 -50
-20 -92 -61 -174 l-54 -107 1 -101 c1 -76 10 -145 38 -276 100 -473 110 -558
103 -855 -6 -236 -22 -353 -76 -563 -29 -113 -27 -139 6 -103 10 10 29 31 42
46 30 33 92 65 126 65 29 0 33 -25 11 -68 -23 -44 -47 -59 -115 -71 -35 -6
-74 -17 -87 -26 -27 -17 -70 -99 -104 -195 -13 -36 -27 -69 -32 -75 -20 -23
-5 75 26 169 44 129 51 184 36 266 -15 86 -50 160 -114 245 -30 39 -63 88 -74
110 -27 55 -54 150 -50 177 3 21 7 18 38 -23 19 -25 61 -77 93 -115 93 -110
136 -212 138 -328 1 -34 4 -72 8 -86 6 -20 10 -11 23 50 23 106 27 135 38 256
7 81 14 109 26 119 16 11 17 32 10 221 -11 340 -30 473 -93 664 -53 161 -151
323 -214 356 -32 16 -115 18 -178 3 -33 -7 -56 -6 -96 6 -29 8 -67 15 -85 15
-39 0 -38 23 2 53 22 16 47 22 115 25 86 4 117 -2 216 -43 77 -32 -112 157
-204 203 -149 75 -288 44 -354 -79 -42 -79 -50 -86 -111 -104 -33 -9 -71 -30
-94 -52 -39 -34 -40 -34 -40 -12 0 39 44 122 83 156 83 73 208 127 332 146 47
6 86 17 87 22 2 14 -94 71 -162 96 -121 45 -240 49 -308 8 -53 -31 -131 -100
-151 -133 -11 -17 -29 -67 -41 -111 -29 -108 -51 -155 -95 -204 -63 -69 -107
-48 -74 36 6 15 19 62 30 103 25 96 70 164 128 192 24 12 58 33 75 48 65 56
146 112 173 119 35 10 34 11 -137 50 -164 39 -244 75 -290 133 -41 51 -71 132
-60 162 11 31 34 26 40 -9 4 -23 13 -32 45 -43 22 -8 59 -21 83 -29 35 -12 54
-30 96 -87 85 -114 79 -110 280 -156 73 -17 160 -40 191 -51 69 -24 171 -74
180 -89 3 -5 32 -26 63 -47 98 -65 282 -256 342 -356 30 -49 58 -91 63 -94 61
-37 -75 189 -229 381 -80 99 -115 132 -294 276 -38 30 -126 101 -195 158 -125
102 -126 102 -180 102 -30 0 -55 5 -55 10 0 6 20 10 44 10 25 0 47 4 51 9 3 6
-13 34 -35 63 -52 69 -87 135 -76 145 5 4 11 3 13 -3 10 -29 69 -117 77 -116
5 0 15 17 22 38 7 20 18 42 25 48 9 8 10 6 4 -9 -27 -68 -7 -140 61 -215 44
-48 371 -324 434 -366 50 -33 60 -26 27 18 -13 18 -47 76 -75 128 -144 270
-238 545 -293 855 -70 397 -94 469 -184 554 -68 63 -72 65 -192 76 -39 4 -88
18 -128 37 -64 30 -102 33 -147 13 -29 -12 -21 14 15 50 39 39 104 60 159 51
113 -18 239 -96 309 -193 23 -32 44 -60 46 -62 1 -2 6 -2 9 2 8 7 -55 163
-126 312 -69 145 -109 190 -244 269 -109 65 -178 129 -218 202 -30 55 -52 158
-39 181 6 12 10 6 15 -23 16 -81 57 -128 181 -210 95 -63 134 -96 174 -147 16
-21 33 -38 36 -38 4 1 7 55 6 122 l-2 120 123 -2 c68 -1 122 2 121 6 -1 3 -20
21 -42 38 -51 41 -110 110 -143 167 -63 109 -135 173 -210 185 -28 5 -37 10
-27 16 14 9 53 5 121 -12z m1399 1 c23 -13 44 -53 53 -102 6 -31 3 -39 -15
-48 -31 -17 -62 -5 -103 40 -51 56 -47 99 9 113 32 8 35 8 56 -3z m2708 -56
c17 -14 31 -35 31 -46 0 -34 -50 -74 -103 -82 -53 -8 -56 -14 -26 -42 12 -10
33 -39 47 -63 22 -38 27 -60 30 -137 7 -158 -41 -244 -155 -279 -38 -11 -25 9
18 30 103 49 146 192 102 333 -51 160 -291 292 -534 292 -67 0 -198 -36 -243
-68 -21 -15 -50 -33 -65 -41 -43 -24 -185 -176 -215 -231 -69 -126 -92 -295
-61 -436 19 -86 64 -209 98 -264 31 -52 153 -175 227 -230 98 -73 276 -156
316 -148 14 3 13 7 -5 29 -31 39 -40 96 -26 154 27 106 122 125 182 36 21 -31
21 -35 7 -62 -8 -16 -16 -29 -19 -29 -2 0 -1 22 2 49 5 43 3 50 -18 65 -36 25
-76 20 -110 -13 -26 -26 -29 -36 -29 -91 0 -57 3 -65 33 -94 35 -36 137 -79
238 -101 120 -26 23 -22 -142 6 -177 29 -230 52 -476 206 -104 65 -165 96
-192 100 -47 6 -71 -8 -71 -43 0 -13 -4 -24 -10 -24 -20 0 -10 51 15 75 25 26
63 32 96 15 26 -14 25 -12 -19 61 -52 86 -77 148 -107 264 -62 238 -11 436
156 610 95 99 138 132 229 177 62 31 72 33 201 36 153 5 230 -10 382 -72 118
-49 157 -53 192 -23 23 19 27 29 21 50 -6 24 -11 27 -46 27 -60 0 -63 27 -3
29 12 1 35 -11 52 -25z m-2429 -4 c27 -27 25 -46 -7 -77 -31 -28 -115 -73
-137 -73 -41 0 -30 70 20 128 29 34 42 42 70 42 21 0 42 -8 54 -20z m2395 -40
c0 -10 -12 -16 -32 -18 -24 -2 -33 1 -33 12 0 8 6 17 13 20 22 9 52 1 52 -14z
m-2754 -93 c64 -43 40 -77 -54 -77 -78 0 -118 40 -81 81 25 27 91 25 135 -4z
m155 -42 c12 -49 -13 -68 -57 -45 -37 20 -17 70 28 70 16 0 24 -7 29 -25z
m2186 -1 c29 -15 30 -18 26 -69 -5 -62 -68 -199 -98 -215 -41 -22 -74 57 -75
177 0 62 3 75 24 97 29 31 76 34 123 10z m-1929 -55 c24 -29 21 -55 -7 -84
-30 -30 -41 -27 -145 38 -78 49 -79 62 -6 70 73 8 139 -2 158 -24z m1612 -27
c46 -29 87 -75 120 -137 l30 -56 -30 -25 c-43 -34 -88 -31 -174 12 -49 24 -76
45 -87 65 -14 28 -14 33 5 73 13 26 35 50 58 64 46 26 41 26 78 4z m-1947 -4
c38 -38 -24 -168 -79 -168 -30 0 -59 28 -59 57 0 36 80 118 121 122 3 1 10 -4
17 -11z m139 -47 c70 -50 89 -93 57 -125 -22 -22 -67 -20 -90 5 -20 22 -34
149 -17 149 6 0 28 -13 50 -29z m2398 -62 c28 -25 35 -38 35 -68 0 -20 -7 -46
-15 -59 -23 -32 -109 -53 -223 -55 l-97 -2 -3 27 c-5 38 61 106 146 151 83 45
111 46 157 6z m-361 -148 c10 -11 20 -37 23 -59 5 -39 6 -40 38 -35 77 12 254
-69 283 -130 17 -35 3 -77 -36 -107 -57 -45 -136 -10 -236 104 -32 37 -61 64
-65 61 -3 -4 -6 -58 -6 -120 0 -106 -2 -115 -24 -139 -34 -36 -92 -36 -128 0
-23 23 -25 32 -21 83 3 46 13 73 46 129 45 76 50 98 27 128 -48 63 46 144 99
85z m-144 -80 c16 -48 10 -57 -83 -127 -50 -37 -66 -44 -106 -44 -66 0 -95 28
-88 82 9 70 57 103 176 123 42 6 79 10 82 9 3 -2 11 -21 19 -43z m-3513 -881
c27 -53 10 -165 -24 -158 -28 5 -63 67 -63 111 0 71 59 103 87 47z m215 -77
c37 -33 17 -86 -45 -114 -115 -52 -152 9 -58 94 45 40 74 46 103 20z m-362
-59 c45 -41 57 -72 40 -103 -9 -18 -17 -21 -48 -15 -80 15 -118 51 -106 101
16 65 55 70 114 17z m170 -83 c23 -44 4 -69 -45 -57 -18 5 -25 13 -25 29 0 45
50 65 70 28z m209 -85 c38 -34 19 -106 -27 -106 -10 0 -28 7 -40 16 -26 18
-82 91 -82 107 0 17 127 3 149 -17z m-282 -22 c13 -35 -75 -174 -111 -174 -27
0 -56 38 -56 73 0 23 8 41 28 59 55 53 126 75 139 42z m184 -151 c7 -19 4 -29
-16 -49 -29 -29 -55 -31 -86 -5 -22 18 -24 26 -22 105 2 126 15 134 70 45 24
-39 49 -82 54 -96z m474 -1248 c116 -30 178 -55 264 -107 73 -44 75 -45 61
-19 -17 33 -11 71 15 96 24 25 75 35 75 15 0 -5 -11 -10 -24 -10 -35 0 -49
-24 -43 -71 4 -27 35 -88 100 -192 97 -155 155 -263 176 -328 18 -56 51 -259
50 -309 l-1 -45 -13 64 c-22 101 -65 203 -101 239 -29 29 -37 32 -94 32 -55 0
-65 -3 -91 -29 -33 -34 -38 -74 -13 -110 15 -21 22 -23 65 -18 27 3 49 4 49 2
0 -3 -13 -11 -28 -19 -26 -13 -32 -13 -59 4 -37 22 -63 57 -63 85 0 36 36 82
75 95 54 18 136 8 171 -19 39 -31 43 -11 14 66 -55 147 -132 264 -252 379 -85
81 -116 102 -218 142 -214 84 -418 80 -589 -13 -56 -31 -210 -174 -232 -216
-8 -15 -26 -44 -41 -65 -32 -45 -68 -176 -68 -243 0 -243 132 -483 292 -534
141 -44 284 -1 333 102 21 43 41 56 30 19 -35 -115 -122 -163 -279 -156 -77 3
-99 8 -137 30 -24 14 -53 35 -63 47 -28 30 -34 27 -42 -26 -8 -53 -48 -103
-82 -103 -24 0 -72 54 -72 80 0 28 11 51 21 44 5 -3 9 -23 9 -44 0 -35 3 -40
27 -46 21 -6 31 -2 50 21 30 35 26 74 -23 192 -62 152 -77 229 -72 382 3 129
5 139 36 201 45 91 78 134 175 227 176 169 373 220 612 158z m-55 -247 c14
-16 20 -35 20 -69 0 -48 -26 -94 -98 -171 -30 -32 -37 -33 -84 -13 l-35 14 12
79 c14 83 31 127 61 153 40 35 95 38 124 7z m-351 -32 c35 -19 101 -140 101
-187 0 -37 -32 -99 -51 -99 -21 0 -116 59 -149 93 -17 17 -38 45 -46 60 -14
25 -13 31 7 67 14 25 38 47 63 60 49 24 41 23 75 6z m546 -221 c35 -34 34 -93
-1 -126 -24 -22 -33 -24 -139 -24 -62 0 -116 -3 -120 -6 -3 -4 24 -33 61 -65
114 -100 149 -179 104 -236 -30 -39 -72 -53 -107 -36 -61 29 -142 206 -130
283 5 32 4 33 -35 38 -49 7 -78 32 -78 69 0 55 61 86 104 53 30 -22 53 -18
116 20 76 46 97 54 153 54 38 1 53 -4 72 -24z m-543 -105 c51 -15 71 -36 58
-60 -16 -30 -153 -93 -215 -98 -51 -4 -54 -3 -69 26 -32 62 -13 122 44 146 21
8 138 0 182 -14z m142 -106 c19 -7 21 -66 5 -180 -17 -121 -41 -154 -112 -154
-27 0 -42 8 -66 35 -17 20 -31 47 -31 61 0 41 68 159 116 204 43 40 58 45 88
34z m-484 -403 c0 -33 -16 -49 -32 -33 -14 14 -1 62 17 62 10 0 15 -10 15 -29z"/>
<path d="M477 12323 c-14 -13 -6 -129 14 -217 23 -96 40 -140 136 -356 58
-130 121 -342 139 -473 12 -91 25 -67 39 78 4 33 13 108 21 166 21 147 8 322
-30 404 -30 66 -30 65 -15 65 21 0 60 -109 68 -190 5 -45 11 -84 15 -87 3 -3
13 11 21 33 50 126 39 115 179 173 16 6 26 14 23 18 -3 3 -42 9 -87 14 -81 8
-190 47 -190 68 0 15 -1 15 65 -15 82 -38 257 -51 404 -30 58 8 133 17 166 21
145 14 169 27 78 39 -144 20 -343 80 -513 155 -221 98 -218 97 -320 121 -83
19 -200 27 -213 13z m257 -58 c45 -13 149 -53 232 -89 161 -69 226 -92 342
-122 39 -10 72 -21 72 -25 0 -19 -310 -35 -400 -20 -40 6 -97 26 -148 53 -86
44 -101 44 -126 5 -8 -12 0 -35 32 -99 27 -51 47 -108 53 -148 15 -92 -1 -400
-21 -400 -4 0 -12 25 -19 55 -21 92 -59 200 -127 359 -36 83 -76 187 -89 231
-25 89 -41 207 -30 225 11 17 128 4 229 -25z m209 -362 c-23 -15 -31 -23 -46
-46 -11 -16 -15 -11 -38 45 l-24 63 63 -24 c56 -23 61 -27 45 -38z"/>
<path d="M1457 11970 c-54 -5 -136 -16 -183 -25 -80 -15 -284 -76 -312 -94
-19 -12 -79 -187 -101 -298 -27 -132 -45 -365 -37 -493 17 -289 171 -710 382
-1042 13 -21 36 -57 51 -80 14 -24 43 -68 63 -98 20 -30 51 -80 68 -111 35
-62 62 -91 62 -68 0 8 -16 58 -35 112 -19 54 -60 192 -90 305 -97 361 -85 335
-214 475 -72 79 -81 94 -87 137 -4 29 -14 56 -25 66 -44 40 -1 47 55 9 54 -37
82 -72 122 -153 19 -40 40 -70 45 -67 15 10 11 336 -5 382 -7 21 -46 88 -85
147 -43 66 -77 130 -87 164 -29 104 -34 119 -55 141 -12 12 -19 25 -16 28 11
11 77 -39 125 -95 64 -74 99 -144 127 -256 13 -50 26 -90 31 -89 4 1 18 37 30
80 26 90 81 224 118 286 18 32 41 52 83 74 74 40 197 89 280 111 35 10 63 22
61 27 -2 5 -42 19 -89 31 -142 36 -258 109 -324 204 -32 46 -28 63 7 31 12
-12 47 -29 78 -37 109 -30 122 -37 227 -106 59 -39 125 -77 146 -84 46 -16
372 -20 382 -5 3 5 -27 26 -67 45 -81 40 -116 68 -153 122 -38 56 -31 99 9 55
10 -11 37 -21 66 -25 43 -6 58 -15 137 -87 140 -129 114 -117 475 -214 113
-30 251 -71 305 -90 54 -19 104 -35 112 -35 23 0 -6 27 -68 62 -31 17 -81 48
-111 68 -30 20 -73 48 -95 62 -22 13 -58 36 -80 50 -252 161 -549 287 -835
354 -120 29 -328 39 -493 24z m488 -54 c33 -8 100 -25 149 -36 108 -25 285
-98 466 -192 147 -76 341 -199 324 -205 -5 -2 -91 17 -190 42 -300 77 -277 67
-379 165 -96 93 -126 112 -198 131 -26 6 -52 17 -58 25 -16 19 -65 18 -73 -2
-14 -36 -5 -82 22 -120 33 -45 97 -104 115 -105 7 0 -1 -5 -18 -10 -32 -10
-136 -3 -199 13 -21 5 -88 43 -147 83 -73 50 -128 80 -166 90 -32 9 -75 20
-97 26 -21 6 -48 21 -61 35 -26 28 -42 30 -67 7 -39 -35 -16 -95 65 -169 65
-59 151 -112 221 -135 28 -10 44 -20 36 -22 -8 -3 -33 -10 -55 -16 -23 -6 -87
-33 -143 -61 l-102 -50 -50 -102 c-28 -56 -55 -120 -61 -143 -6 -22 -13 -47
-16 -55 -2 -8 -12 8 -22 36 -23 70 -76 156 -135 221 -73 81 -128 102 -168 66
-24 -22 -23 -41 6 -68 14 -13 29 -40 35 -61 6 -22 17 -65 26 -97 10 -38 40
-93 90 -166 40 -59 78 -126 83 -147 16 -63 23 -167 13 -199 -5 -16 -10 -25
-10 -18 -1 18 -60 82 -105 115 -38 27 -84 36 -120 22 -20 -8 -21 -57 -2 -73 8
-6 19 -32 25 -58 19 -72 38 -102 131 -198 98 -102 88 -78 165 -379 25 -98 44
-184 42 -190 -6 -17 -128 175 -205 324 -94 181 -167 358 -192 466 -12 49 -28
118 -37 154 -14 52 -17 115 -17 315 -1 278 10 351 77 550 l33 97 64 24 c85 31
247 72 335 83 106 15 497 6 570 -13z"/>
<path d="M10973 12785 c-12 -8 -31 -31 -43 -50 -12 -19 -26 -35 -31 -35 -5 0
-28 12 -50 27 -59 39 -131 39 -165 0 -33 -39 -33 -101 1 -151 14 -20 25 -39
25 -41 0 -3 -15 -11 -33 -19 -49 -20 -70 -59 -65 -117 4 -36 1 -52 -11 -63
-20 -18 -119 -76 -129 -76 -5 0 -14 17 -21 38 -20 53 -49 92 -72 92 -23 0 -25
-26 -7 -112 15 -72 6 -92 -89 -204 -38 -45 -103 -126 -144 -180 -78 -104 -196
-230 -207 -220 -3 3 17 39 45 79 28 39 66 104 85 142 41 82 102 257 117 338
15 83 43 130 98 165 44 28 90 71 121 113 7 9 16 40 22 69 14 75 21 80 101 80
38 0 71 5 75 11 10 17 -44 67 -93 85 -49 19 -130 14 -191 -12 -46 -19 -96 -66
-128 -120 -28 -47 -64 -180 -64 -236 0 -26 -4 -38 -14 -38 -20 0 -87 79 -135
159 -58 97 -140 154 -249 171 -45 7 -62 16 -83 40 -32 38 -60 38 -93 -1 -45
-53 -32 -122 36 -185 48 -46 107 -72 208 -94 49 -10 106 -28 127 -39 124 -63
165 -210 108 -388 -26 -83 -40 -111 -50 -102 -3 4 -14 39 -25 78 -24 86 -69
178 -119 244 -61 81 -204 138 -275 111 -20 -8 -21 -34 -2 -34 26 0 91 -86 109
-143 20 -65 50 -97 127 -138 73 -39 85 -62 84 -158 -1 -85 -19 -136 -75 -211
l-34 -45 -7 88 c-10 133 -63 222 -127 215 -24 -3 -26 -7 -27 -58 0 -30 -6 -68
-12 -83 -7 -17 -12 -83 -12 -161 l0 -133 -44 -41 c-24 -22 -58 -48 -75 -56
-53 -28 -321 -113 -406 -129 -133 -26 -145 -27 -145 -17 0 6 6 10 13 10 6 0
100 52 207 115 181 107 263 145 278 130 4 -3 -11 -21 -32 -39 -36 -30 -38 -33
-22 -49 22 -22 65 -22 95 -1 61 43 60 143 -2 185 -17 13 -33 24 -35 25 -2 1
10 34 27 73 68 154 76 192 76 361 -1 172 -12 228 -68 335 -39 74 -189 226
-269 273 -181 107 -388 119 -617 36 -53 -19 -100 -36 -105 -37 -5 -1 -13 12
-18 30 -11 41 -42 63 -90 63 -138 0 -173 -126 -59 -211 37 -27 39 -49 9 -115
-32 -73 -31 -190 3 -264 28 -61 76 -112 120 -130 32 -14 34 -21 18 -52 -19
-36 -12 -97 15 -139 36 -53 76 -73 135 -64 56 9 73 17 132 66 26 21 49 35 53
32 3 -4 6 -29 6 -57 0 -122 104 -191 197 -131 58 38 78 119 48 192 -8 20 -14
38 -12 40 2 2 24 -8 48 -22 89 -50 170 -42 209 20 51 82 8 176 -103 225 -26
12 -45 25 -42 30 3 5 26 24 50 41 24 17 51 47 60 65 14 30 14 37 0 71 -19 45
-38 67 -89 104 -49 36 -69 36 -142 -1 -32 -16 -59 -28 -59 -27 -1 1 -9 21 -20
45 -40 92 -120 126 -192 82 -63 -38 -74 -81 -47 -193 l6 -27 -63 30 c-75 35
-121 38 -167 10 -37 -23 -71 -88 -72 -135 0 -67 81 -135 161 -135 19 0 41 -5
49 -10 31 -20 -109 -11 -150 10 -138 71 -130 312 15 422 64 49 151 95 217 116
75 23 262 22 347 -3 97 -28 240 -140 304 -238 102 -157 130 -356 76 -534 -59
-193 -148 -303 -349 -435 -174 -113 -156 -111 -163 -19 -6 90 -25 134 -67 156
-33 17 -96 20 -134 5 -56 -21 -86 -127 -51 -177 19 -27 75 -39 104 -24 30 17
28 58 -4 73 -32 15 -28 42 6 46 37 4 59 -22 59 -68 0 -80 -81 -129 -260 -156
-99 -15 -307 -17 -350 -4 l-25 7 28 12 c16 6 32 11 36 11 16 0 128 78 191 133
36 32 84 67 108 78 54 26 63 46 33 71 -32 25 -124 24 -195 -2 -30 -12 -108
-57 -173 -100 -149 -101 -214 -124 -327 -118 -45 3 -119 16 -166 31 -47 14
-108 28 -137 31 l-52 5 -7 -35 c-3 -19 -4 -38 0 -41 3 -3 52 -23 108 -45 124
-46 153 -72 163 -149 4 -30 13 -66 21 -80 16 -33 110 -109 134 -109 49 0 78
107 45 169 -9 18 -14 35 -11 38 3 3 51 -4 108 -15 189 -38 297 -45 568 -39
267 6 333 14 645 76 83 17 200 37 260 46 134 19 168 14 308 -52 79 -36 116
-47 184 -55 58 -6 102 -18 135 -35 39 -20 51 -23 63 -13 37 31 6 123 -58 170
-41 30 -171 85 -228 97 -38 7 -46 21 -17 27 41 8 254 26 306 26 27 0 81 -9
118 -21 61 -19 76 -29 151 -105 87 -87 132 -117 194 -128 27 -5 50 -21 91 -66
30 -33 60 -60 66 -60 27 0 42 33 42 94 0 71 -17 104 -93 185 -90 94 -183 147
-315 181 -122 31 69 40 295 14 166 -19 268 -44 325 -80 56 -35 257 -236 292
-292 36 -57 61 -159 80 -325 26 -226 17 -417 -14 -295 -41 163 -132 294 -264
382 -66 44 -196 33 -196 -16 0 -6 27 -36 60 -66 45 -41 61 -64 66 -91 11 -62
41 -107 127 -193 89 -88 109 -126 123 -231 6 -43 -9 -283 -22 -345 -6 -29 -20
-21 -27 17 -12 57 -67 187 -97 228 -47 64 -139 95 -170 58 -10 -12 -7 -24 13
-63 17 -33 29 -77 35 -135 8 -69 19 -105 56 -184 66 -141 70 -176 45 -342 -11
-75 -31 -188 -44 -251 -56 -267 -66 -357 -72 -620 -6 -270 1 -369 38 -563 12
-59 19 -110 16 -113 -3 -3 -20 2 -38 11 -43 23 -123 16 -151 -13 -28 -28 -19
-55 39 -120 45 -49 52 -53 121 -66 95 -17 111 -34 160 -164 21 -56 42 -105 45
-108 3 -4 22 -3 41 0 l35 7 -5 52 c-3 29 -18 90 -32 137 -22 69 -27 105 -27
190 0 98 2 109 32 170 18 36 55 96 83 134 80 109 114 188 118 271 3 58 1 75
-15 94 -26 32 -45 23 -72 -31 -11 -24 -46 -72 -78 -108 -55 -63 -133 -175
-133 -191 0 -4 -5 -20 -11 -36 -10 -26 -12 -27 -19 -8 -12 29 -12 238 0 336
15 113 54 222 92 254 56 47 143 26 136 -34 -4 -34 -31 -38 -46 -6 -15 32 -56
34 -73 4 -15 -29 -3 -85 24 -104 50 -35 156 -5 177 51 15 38 12 101 -5 134
-22 42 -65 60 -156 68 l-80 7 83 130 c93 146 193 254 278 303 83 46 224 90
315 98 173 13 373 -61 483 -180 133 -144 166 -224 166 -406 0 -158 -33 -255
-132 -385 -110 -145 -351 -153 -422 -15 -21 41 -30 181 -10 150 5 -8 10 -30
10 -49 0 -49 37 -120 74 -142 86 -52 216 21 216 121 0 19 -14 64 -30 99 l-30
63 27 -6 c112 -27 155 -16 193 47 44 72 10 152 -82 192 -24 11 -44 19 -45 20
-1 0 11 27 27 59 17 32 30 69 30 81 0 46 -93 144 -149 158 -37 9 -88 -20 -122
-69 -16 -24 -34 -46 -39 -49 -6 -4 -19 15 -31 42 -47 110 -142 154 -224 103
-62 -39 -70 -120 -20 -209 14 -24 24 -46 22 -48 -2 -2 -20 4 -40 12 -73 30
-154 10 -192 -48 -60 -93 9 -197 131 -197 28 0 53 -3 57 -6 3 -3 -14 -30 -38
-60 -88 -108 -85 -205 9 -263 37 -23 96 -25 152 -7 17 6 23 2 33 -22 19 -45
70 -92 130 -120 74 -34 194 -36 263 -4 64 30 90 28 117 -9 86 -116 211 -79
211 62 0 44 -34 89 -68 89 -10 0 -21 2 -24 5 -3 3 12 52 33 108 86 234 75 441
-33 625 -47 80 -199 230 -273 269 -108 56 -163 67 -335 68 -169 0 -209 -9
-361 -76 -39 -17 -72 -29 -73 -27 -1 2 -12 18 -25 35 -67 98 -237 28 -195 -81
10 -26 37 -19 66 16 14 18 29 30 33 26 15 -15 -22 -96 -130 -278 -63 -107
-115 -201 -115 -207 0 -7 -4 -13 -10 -13 -10 0 -9 12 17 145 16 85 101 353
129 406 8 17 34 51 56 75 l41 44 126 0 c69 0 142 5 161 11 19 7 60 12 90 13
51 1 55 3 58 27 7 64 -82 117 -215 127 l-88 7 45 34 c75 56 126 74 211 75 96
1 119 -11 158 -84 41 -77 73 -107 138 -127 57 -18 143 -83 143 -109 0 -19 26
-18 34 2 27 71 -30 214 -111 275 -77 59 -165 99 -280 129 -24 6 -43 15 -43 19
0 10 83 44 145 60 67 18 174 13 225 -10 92 -41 130 -99 161 -241 22 -103 47
-158 93 -206 60 -65 130 -80 180 -41 47 37 49 60 10 94 -28 24 -36 40 -44 87
-18 112 -72 190 -179 254 -81 49 -151 110 -151 131 0 8 14 13 38 13 56 0 189
36 236 64 54 32 101 82 120 128 26 61 31 142 12 191 -18 49 -68 103 -85 93 -6
-4 -11 -37 -11 -75 0 -80 -5 -87 -80 -101 -29 -6 -60 -15 -69 -22 -42 -31 -85
-77 -113 -121 -35 -55 -76 -79 -163 -97 -89 -18 -260 -78 -340 -118 -38 -19
-103 -57 -142 -85 -40 -28 -76 -48 -79 -45 -10 11 116 129 220 207 54 41 135
106 180 144 112 95 132 104 204 89 86 -18 112 -16 112 7 0 23 -39 52 -92 72
-21 7 -38 17 -38 21 0 10 58 107 78 130 11 13 24 16 62 11 57 -7 96 15 116 64
8 18 16 33 19 33 2 0 21 -12 42 -26 32 -21 46 -25 86 -21 68 6 92 32 91 97 0
35 -8 60 -27 89 -15 22 -27 44 -27 49 0 4 20 22 45 40 51 36 61 62 46 120 -17
62 -41 85 -96 91 -43 6 -48 9 -59 41 -16 50 -69 83 -121 75 -55 -8 -85 -39
-85 -87 0 -43 -10 -47 -50 -18 -46 32 -80 35 -120 8 -71 -48 -59 -148 23 -194
l39 -21 -35 -7 c-78 -15 -113 -78 -83 -149 10 -26 23 -38 43 -43 57 -13 60
-43 11 -122 l-20 -33 -39 36 c-43 38 -60 43 -79 20 -10 -12 -9 -23 4 -55 9
-22 16 -50 16 -63 -1 -38 -37 -105 -87 -158 -52 -56 -302 -263 -309 -257 -2 3
21 52 50 109 125 239 235 590 281 894 34 227 77 357 143 435 l30 35 98 3 c104
3 146 16 197 58 48 40 76 33 126 -35 13 -18 23 -22 39 -17 18 6 22 15 22 46 0
49 -39 137 -74 170 -26 23 -35 25 -124 25 -85 0 -105 -4 -156 -28 -32 -15 -74
-40 -92 -57 -31 -27 -54 -38 -54 -26 0 3 12 38 26 78 46 128 123 211 285 306
101 60 184 145 225 229 52 108 35 233 -33 233 -26 0 -43 -31 -43 -82 0 -58
-51 -115 -175 -198 -27 -18 -65 -47 -82 -63 -18 -17 -36 -27 -40 -23 -5 4 -8
44 -8 89 l0 82 -82 0 c-45 0 -85 3 -89 8 -4 4 6 22 23 40 16 17 45 55 63 82
83 124 140 175 198 175 51 0 82 17 82 43 0 43 -34 62 -109 62 -131 -1 -259
-95 -358 -263 -63 -106 -156 -208 -223 -242 -36 -19 -144 -60 -157 -60 -11 0
1 24 27 54 17 18 42 60 57 92 24 51 28 71 28 156 0 89 -2 98 -25 124 -33 35
-121 74 -170 74 -31 0 -40 -4 -46 -22 -5 -16 -1 -26 17 -39 68 -50 75 -78 35
-126 -42 -51 -55 -93 -58 -197 l-3 -98 -35 -30 c-78 -66 -208 -109 -435 -143
-304 -46 -655 -156 -894 -281 -57 -29 -106 -52 -109 -50 -6 7 201 257 257 309
53 50 120 86 158 87 13 0 41 -7 63 -16 32 -13 43 -14 55 -4 23 19 18 36 -20
79 l-36 39 33 20 c78 49 109 46 122 -11 9 -37 61 -62 109 -53 42 8 74 43 83
93 l7 35 21 -39 c45 -81 146 -93 194 -23 27 40 24 74 -8 120 -29 40 -25 50 18
50 48 0 79 30 87 85 8 52 -25 105 -75 121 -32 11 -35 16 -41 59 -6 54 -29 78
-87 95 -50 13 -64 13 -89 -5z m1546 -34 c10 -6 1 -11 -27 -16 -75 -12 -147
-76 -210 -185 -33 -57 -92 -126 -143 -167 -22 -17 -40 -35 -40 -38 1 -4 55 -7
122 -6 l120 2 -2 -120 c-1 -67 2 -121 6 -122 3 0 20 17 36 38 40 51 79 84 174
147 124 82 165 129 181 210 5 29 9 35 15 23 13 -23 -9 -126 -39 -181 -40 -73
-109 -137 -218 -202 -137 -80 -175 -123 -249 -279 -54 -113 -125 -284 -125
-300 0 -16 19 1 50 46 68 100 183 176 300 200 72 15 132 -1 177 -46 36 -36 44
-62 16 -50 -46 20 -84 17 -148 -13 -40 -19 -89 -33 -128 -37 -120 -11 -124
-13 -192 -76 -49 -46 -69 -74 -86 -117 -27 -74 -61 -224 -99 -438 -36 -207
-104 -447 -167 -592 -61 -139 -168 -348 -200 -390 -33 -44 -23 -51 27 -18 63
42 390 318 434 366 68 75 88 147 61 215 -6 15 -5 17 4 9 7 -6 18 -28 25 -48 7
-21 17 -38 22 -38 8 -1 67 87 77 116 2 6 8 7 13 3 11 -10 -24 -76 -76 -145
-22 -29 -38 -57 -35 -63 4 -5 26 -9 51 -9 24 0 44 -4 44 -10 0 -5 -25 -10 -55
-10 -54 0 -55 0 -180 -102 -69 -57 -157 -128 -195 -158 -179 -144 -214 -177
-294 -276 -131 -163 -258 -365 -241 -382 8 -8 16 2 95 124 64 99 228 264 326
329 29 20 56 40 59 45 9 15 111 65 180 89 31 11 118 34 191 51 201 46 195 42
280 156 42 57 61 75 96 87 24 8 61 21 83 29 32 11 41 20 45 43 6 35 29 40 40
9 11 -30 -19 -111 -60 -162 -46 -58 -126 -94 -290 -133 -171 -39 -172 -40
-137 -50 27 -7 108 -63 173 -119 17 -15 51 -36 75 -48 58 -28 103 -96 128
-192 11 -41 24 -88 30 -103 33 -86 -11 -105 -76 -34 -42 45 -70 108 -98 218
-9 35 -25 78 -36 95 -20 34 -98 102 -151 133 -68 41 -187 37 -308 -8 -65 -24
-162 -81 -167 -97 -3 -8 21 -14 69 -19 124 -12 261 -68 349 -143 43 -37 89
-119 89 -161 0 -22 -1 -22 -40 12 -23 22 -61 43 -94 52 -61 18 -69 25 -111
104 -66 123 -205 154 -354 79 -92 -46 -281 -235 -203 -203 98 41 129 47 215
43 68 -3 93 -9 115 -25 40 -30 41 -53 2 -53 -18 0 -56 -7 -85 -15 -40 -12 -63
-13 -96 -6 -63 15 -146 13 -178 -3 -63 -33 -161 -195 -214 -356 -63 -191 -82
-324 -93 -664 -7 -189 -6 -210 10 -221 12 -10 19 -38 26 -116 10 -117 26 -222
42 -289 11 -41 13 -43 19 -20 4 14 7 52 8 86 2 117 46 220 139 329 34 39 74
89 89 112 15 24 31 43 36 43 20 0 -7 -119 -45 -195 -11 -22 -44 -71 -74 -110
-64 -85 -99 -159 -114 -245 -15 -82 -8 -137 36 -266 31 -94 46 -192 26 -169
-5 6 -19 39 -32 75 -34 96 -77 178 -104 195 -13 9 -52 20 -87 26 -68 12 -92
27 -115 71 -22 43 -18 68 11 68 34 0 96 -32 126 -65 13 -15 32 -36 42 -46 10
-11 21 -17 26 -15 5 3 -6 64 -25 136 -60 237 -69 316 -69 615 0 294 4 335 70
635 94 434 95 477 16 634 -40 80 -55 124 -61 174 -5 37 -14 89 -20 116 -6 27
-8 51 -6 54 20 19 106 -86 137 -168 19 -51 39 -175 39 -248 0 -26 4 -53 9 -60
12 -19 25 18 63 183 29 126 32 156 32 300 1 194 -7 217 -114 330 -55 58 -81
96 -112 163 -22 48 -56 104 -76 125 -33 34 -34 37 -14 37 39 0 143 -60 194
-112 53 -54 117 -178 139 -268 9 -34 14 -114 14 -212 0 -86 3 -154 7 -150 12
12 36 117 59 259 19 119 21 162 16 308 -9 250 -33 367 -97 462 -48 73 -239
260 -302 297 -88 51 -213 75 -443 83 -146 5 -189 3 -308 -16 -142 -23 -247
-47 -259 -59 -4 -4 64 -7 150 -7 98 0 178 -5 212 -14 90 -22 214 -86 268 -139
51 -50 112 -155 112 -193 0 -19 -4 -17 -42 18 -24 21 -70 49 -103 63 -75 29
-103 48 -188 128 -106 99 -131 107 -322 106 -144 0 -174 -3 -300 -32 -165 -38
-202 -51 -183 -63 7 -5 34 -9 60 -9 73 0 197 -20 248 -39 82 -31 187 -117 168
-137 -3 -2 -27 0 -54 7 -27 6 -79 15 -116 19 -50 6 -92 20 -173 61 -157 79
-205 77 -635 -16 -302 -66 -340 -70 -640 -69 -299 0 -363 7 -597 65 -67 17
-130 29 -140 27 -19 -4 -21 -1 52 -67 33 -30 65 -92 65 -126 0 -29 -25 -33
-68 -11 -44 23 -59 47 -71 115 -6 35 -17 74 -26 87 -17 27 -99 70 -195 104
-36 13 -69 27 -75 32 -23 20 75 5 169 -26 129 -44 184 -51 266 -36 86 15 160
50 245 114 39 30 88 63 110 74 51 25 141 52 174 51 l26 0 -34 -27 c-18 -15
-59 -49 -90 -76 -129 -112 -244 -165 -365 -167 -33 -1 -72 -4 -86 -8 -20 -6
-11 -10 50 -23 106 -23 135 -27 256 -38 79 -7 110 -14 116 -25 11 -18 127 -20
383 -5 359 22 610 95 791 232 30 23 62 54 70 69 16 32 18 115 3 178 -7 33 -6
56 6 96 8 29 15 67 15 85 0 39 23 38 53 -2 16 -22 22 -47 25 -115 4 -86 -2
-117 -43 -215 -15 -37 19 -16 93 60 190 190 203 405 31 497 -79 42 -86 50
-104 111 -9 33 -30 71 -52 94 -35 39 -35 40 -11 40 39 0 125 -49 162 -91 73
-86 129 -224 141 -347 5 -48 11 -72 19 -69 16 5 73 102 97 167 41 110 48 234
17 294 -23 44 -110 146 -141 164 -18 11 -68 30 -112 42 -44 12 -99 29 -121 40
-59 25 -124 87 -124 116 0 29 23 31 90 9 25 -8 77 -23 115 -34 80 -23 149 -74
171 -128 8 -18 27 -47 42 -65 60 -69 122 -161 122 -181 0 -45 15 0 47 136 39
169 76 250 135 297 51 41 132 71 162 60 31 -11 26 -34 -9 -40 -23 -4 -32 -13
-43 -45 -8 -22 -21 -59 -29 -83 -12 -35 -30 -54 -87 -96 -114 -85 -110 -79
-156 -280 -17 -73 -40 -160 -51 -191 -24 -69 -74 -171 -89 -180 -5 -3 -26 -32
-47 -63 -65 -97 -256 -281 -357 -343 -81 -50 -114 -79 -89 -79 22 0 199 110
301 187 160 121 197 158 394 404 29 37 89 111 132 164 77 93 80 99 84 156 5
69 22 80 22 15 0 -25 4 -48 10 -51 5 -3 31 11 58 32 62 49 139 90 149 79 4 -5
3 -11 -3 -13 -29 -10 -117 -69 -116 -77 0 -5 17 -15 38 -22 20 -7 42 -18 48
-25 8 -9 6 -10 -9 -4 -68 27 -140 7 -215 -61 -48 -44 -324 -371 -366 -434 -15
-22 -25 -43 -22 -46 3 -3 26 9 51 26 59 40 244 134 379 193 137 60 382 130
561 162 403 71 489 96 565 168 69 66 88 104 95 198 5 54 15 94 38 143 31 65
34 103 14 149 -12 28 14 20 50 -16 45 -45 61 -105 46 -177 -24 -117 -100 -232
-200 -300 -45 -31 -62 -50 -46 -50 16 0 187 71 300 125 157 74 199 112 281
250 89 152 176 226 294 251 69 15 72 16 89 5z m-1431 -23 c22 -19 13 -57 -24
-98 -41 -45 -72 -57 -103 -40 -18 9 -21 17 -15 48 9 47 29 88 51 101 19 11 70
5 91 -11z m-2714 -24 c27 -10 7 -24 -34 -24 -35 0 -40 -3 -46 -27 -6 -21 -2
-31 21 -50 35 -30 74 -26 192 23 152 62 229 77 382 72 129 -3 139 -5 201 -36
91 -45 134 -78 227 -175 168 -175 219 -374 158 -613 -25 -97 -85 -238 -125
-294 -25 -35 -25 -44 -1 -30 33 17 71 11 96 -15 25 -24 35 -75 15 -75 -5 0
-10 11 -10 24 0 35 -24 49 -71 43 -27 -4 -88 -35 -192 -100 -246 -154 -299
-177 -476 -206 -165 -28 -262 -32 -142 -6 101 22 203 65 239 101 29 29 32 37
32 94 0 55 -3 65 -29 91 -34 33 -74 38 -110 13 -21 -15 -23 -22 -18 -65 3 -27
4 -49 2 -49 -3 0 -11 13 -19 29 -14 27 -14 31 7 62 45 67 104 75 152 23 47
-50 48 -156 4 -213 -18 -22 -19 -26 -5 -29 39 -8 218 75 316 148 75 55 185
166 223 225 36 56 81 175 102 269 31 141 8 310 -61 436 -30 55 -172 207 -215
231 -15 8 -44 26 -65 41 -47 33 -177 68 -248 68 -129 -1 -280 -45 -374 -108
-120 -82 -172 -173 -172 -298 1 -104 44 -184 119 -219 43 -21 56 -41 19 -30
-115 35 -163 121 -156 279 3 77 8 99 30 137 14 24 35 53 47 63 30 28 27 34
-26 42 -53 8 -103 48 -103 82 0 24 54 72 80 72 10 0 25 -3 34 -6z m2470 -46
c50 -58 61 -128 20 -128 -44 0 -164 84 -164 115 0 27 38 55 74 55 28 0 41 -8
70 -42z m-2470 -4 c28 -11 18 -34 -13 -34 -31 0 -47 13 -36 30 7 11 26 13 49
4z m2838 -101 c26 -24 22 -50 -12 -68 -55 -28 -165 -13 -158 22 9 50 130 83
170 46z m-224 -35 c18 -18 14 -46 -7 -58 -44 -23 -69 -4 -57 45 7 27 42 35 64
13z m-2127 -24 c21 -22 24 -35 24 -97 -1 -120 -34 -199 -75 -177 -30 16 -93
153 -98 214 -4 51 -3 55 24 70 46 24 96 20 125 -10z m2017 -37 c9 -7 -6 -21
-59 -54 -104 -65 -115 -68 -145 -38 -13 13 -24 32 -24 42 0 29 28 61 58 66 40
7 155 -4 170 -16z m-1747 -39 c25 -14 46 -37 60 -64 19 -40 19 -45 5 -73 -20
-37 -142 -101 -195 -101 -46 0 -96 38 -87 66 14 44 86 138 126 165 24 16 45
29 48 29 2 0 22 -10 43 -22z m1967 -43 c45 -47 52 -77 25 -107 -37 -41 -102
-6 -122 68 -14 50 -14 67 1 82 18 18 49 5 96 -43z m-180 -39 c-4 -74 -25 -106
-69 -106 -52 0 -74 44 -43 88 18 26 91 82 107 82 5 0 8 -27 5 -64z m-2297 -32
c85 -45 152 -113 147 -152 l-3 -27 -97 2 c-114 2 -200 23 -223 55 -8 13 -15
39 -15 59 0 30 7 43 35 68 46 40 72 39 156 -5z m299 -144 c23 -23 25 -57 5
-84 -23 -30 -18 -52 27 -128 33 -56 43 -83 46 -129 4 -51 2 -60 -21 -83 -36
-36 -94 -36 -128 0 -22 24 -24 33 -24 139 0 62 -3 116 -6 120 -4 3 -33 -24
-65 -61 -122 -139 -219 -162 -270 -63 -17 34 -12 63 20 97 45 50 201 109 261
99 32 -5 33 -4 38 35 3 22 13 48 23 59 22 25 69 24 94 -1z m256 -73 c44 -23
65 -51 71 -95 7 -54 -22 -82 -88 -82 -48 0 -94 26 -171 98 -32 30 -33 37 -13
84 l14 35 79 -12 c43 -7 92 -20 108 -28z m3376 -874 c39 -35 6 -161 -45 -171
-24 -5 -40 42 -35 105 7 77 38 104 80 66z m-181 -110 c94 -85 57 -146 -58 -94
-61 28 -80 75 -46 113 25 28 59 22 104 -19z m356 -15 c17 -22 24 -68 13 -88
-13 -24 -53 -45 -102 -54 -31 -6 -39 -3 -48 15 -17 31 -5 62 40 103 41 37 80
46 97 24z m-209 -100 c22 -22 14 -57 -13 -64 -49 -12 -68 13 -45 57 12 21 40
25 58 7z m-118 -76 c0 -15 -57 -89 -82 -106 -28 -20 -52 -20 -72 0 -32 32 -14
89 34 107 24 9 120 8 120 -1z m73 -137 c2 -80 0 -88 -22 -106 -31 -26 -57 -24
-86 5 -29 29 -28 34 34 138 58 97 72 91 74 -37z m130 106 c14 -5 41 -24 61
-41 28 -25 36 -40 36 -66 0 -36 -28 -74 -56 -74 -36 0 -124 139 -111 174 7 18
34 20 70 7z m-363 -1409 c103 -36 161 -73 247 -155 97 -93 130 -136 175 -227
31 -62 33 -72 36 -201 5 -153 -10 -230 -72 -382 -49 -118 -53 -157 -23 -192
19 -23 29 -27 50 -21 24 6 27 11 27 46 0 21 4 41 9 44 10 7 21 -16 21 -44 0
-26 -48 -80 -72 -80 -34 0 -74 50 -82 103 -8 53 -14 56 -42 26 -10 -12 -39
-33 -63 -47 -38 -22 -60 -27 -137 -30 -157 -7 -244 41 -279 156 -11 37 9 24
30 -19 49 -103 192 -146 333 -102 160 51 292 291 292 534 0 67 -36 198 -68
243 -15 21 -33 50 -41 65 -22 42 -176 185 -232 216 -171 93 -375 97 -589 13
-102 -40 -133 -61 -218 -142 -120 -115 -197 -232 -252 -379 -29 -77 -25 -97
14 -66 35 27 117 37 171 19 39 -13 75 -59 75 -95 0 -28 -26 -63 -63 -85 -27
-17 -33 -17 -59 -4 -15 8 -28 16 -28 19 0 2 22 1 49 -2 43 -5 50 -3 65 18 25
36 20 76 -13 110 -26 26 -36 29 -89 29 -50 0 -66 -4 -90 -25 -36 -30 -84 -140
-105 -240 -27 -127 -25 -33 4 136 29 177 52 230 206 476 65 104 96 165 100
192 6 47 -8 71 -43 71 -13 0 -24 5 -24 10 0 20 51 10 75 -15 26 -25 32 -63 15
-96 -14 -26 -12 -25 61 19 84 50 147 76 260 107 81 22 109 25 204 21 74 -3
128 -11 165 -24z m-188 -249 c32 -29 49 -69 62 -154 l13 -80 -35 -15 c-47 -19
-54 -18 -84 14 -72 77 -98 123 -98 171 0 66 28 95 82 88 22 -3 49 -14 60 -24z
m303 -33 c27 -13 49 -34 64 -60 20 -36 21 -42 7 -67 -27 -53 -155 -153 -195
-153 -18 0 -51 62 -51 99 0 44 66 168 99 186 33 18 28 18 76 -5z m-407 -238
c76 -45 98 -50 128 -27 43 33 104 2 104 -53 0 -37 -29 -62 -78 -69 -39 -5 -40
-6 -35 -38 12 -77 -66 -248 -127 -280 -38 -20 -79 -8 -110 33 -45 57 -10 136
104 236 37 32 64 61 61 65 -4 3 -58 6 -120 6 -106 0 -115 2 -139 24 -36 34
-36 92 0 128 23 23 32 25 83 21 46 -3 73 -13 129 -46z m547 -92 c30 -28 33
-75 9 -122 -15 -29 -18 -30 -69 -26 -62 5 -199 68 -215 98 -13 25 9 46 63 60
23 6 47 13 52 15 6 3 38 3 72 2 50 -2 68 -8 88 -27z m-271 -130 c49 -45 116
-164 116 -205 0 -17 -12 -39 -34 -61 -62 -62 -141 -38 -165 52 -13 50 -26 218
-18 238 11 29 55 18 101 -24z m432 -366 c7 -27 -7 -50 -25 -40 -6 4 -11 20
-11 37 0 37 27 40 36 3z"/>
<path d="M12105 12309 c-96 -23 -96 -23 -315 -120 -170 -75 -369 -135 -513
-155 -91 -12 -67 -25 78 -39 33 -4 108 -13 166 -21 147 -21 322 -8 404 30 66
30 65 30 65 15 0 -21 -109 -60 -190 -68 -45 -5 -84 -11 -87 -14 -3 -4 7 -12
23 -18 140 -58 129 -47 179 -173 8 -22 18 -36 21 -33 4 3 10 45 15 92 9 84 46
185 69 185 13 0 14 0 -16 -65 -38 -83 -51 -257 -30 -404 8 -58 18 -142 22
-186 4 -44 10 -89 14 -100 6 -17 9 -13 19 20 6 22 11 47 11 56 0 8 16 80 36
160 26 105 55 186 106 299 112 249 152 384 146 495 l-3 60 -70 2 c-42 1 -102
-6 -150 -18z m188 -85 c-4 -94 -37 -205 -118 -393 -70 -164 -104 -260 -125
-353 -24 -105 -35 -68 -45 147 -9 168 3 237 57 343 44 86 44 101 5 126 -12 8
-35 0 -99 -32 -51 -27 -108 -47 -148 -53 -90 -15 -400 1 -400 20 0 4 33 15 73
25 115 30 180 53 339 122 210 90 330 124 423 121 l40 -2 -2 -71z m-352 -320
c-22 -58 -27 -63 -38 -47 -15 23 -23 31 -46 46 -17 12 -12 16 45 39 35 14 64
26 64 27 1 0 -10 -29 -25 -65z"/>
<path d="M10995 11974 c-314 -49 -673 -188 -975 -378 -19 -13 -55 -35 -80 -51
-25 -16 -70 -45 -100 -65 -30 -20 -80 -51 -111 -68 -63 -35 -91 -62 -67 -62 8
0 52 14 98 31 90 33 334 103 497 143 134 33 180 58 291 160 84 77 99 86 142
92 29 4 56 14 66 25 40 44 47 1 9 -55 -37 -54 -72 -82 -153 -122 -40 -19 -70
-40 -67 -45 10 -15 336 -11 382 5 21 7 87 45 146 84 105 69 118 76 227 106 31
8 66 25 78 37 35 32 39 15 7 -31 -66 -96 -181 -168 -327 -204 -49 -13 -89 -27
-89 -31 0 -5 35 -19 78 -31 91 -26 224 -81 288 -119 39 -22 51 -38 90 -118 47
-99 105 -261 105 -297 0 -49 24 -9 45 76 28 112 63 182 127 256 48 56 114 106
125 95 3 -3 -5 -16 -16 -29 -12 -12 -29 -47 -37 -78 -30 -109 -37 -122 -106
-227 -39 -59 -77 -125 -84 -146 -16 -46 -20 -372 -5 -382 5 -3 26 27 45 67 40
81 68 116 122 153 56 38 99 31 55 -9 -11 -10 -21 -37 -25 -66 -6 -43 -15 -58
-87 -137 -129 -140 -117 -114 -214 -475 -30 -113 -71 -251 -90 -305 -19 -54
-35 -104 -35 -112 0 -23 27 6 62 68 17 31 48 81 68 111 20 30 49 74 63 98 15
23 38 59 51 80 128 202 242 448 310 675 62 206 71 264 70 462 -1 257 -26 419
-96 612 l-29 81 -67 25 c-105 39 -209 66 -317 82 -100 15 -413 28 -470 19z
m537 -63 c53 -12 140 -36 194 -54 l98 -33 33 -98 c67 -200 78 -273 77 -551 0
-200 -3 -263 -17 -315 -9 -36 -25 -105 -37 -154 -25 -108 -98 -285 -192 -466
-77 -149 -199 -341 -205 -324 -2 6 17 92 42 190 77 301 67 277 165 379 93 96
112 126 131 198 6 26 17 52 25 58 19 16 18 65 -2 73 -36 14 -82 5 -120 -22
-45 -33 -104 -97 -105 -115 0 -7 -5 2 -10 18 -10 32 -3 136 13 199 5 21 43 88
83 147 50 73 80 128 90 166 9 32 20 75 26 97 6 21 21 48 35 61 28 26 30 42 7
67 -19 22 -54 23 -92 3 -68 -35 -186 -197 -216 -298 -13 -43 -15 -42 -34 28
-6 23 -33 87 -61 143 l-50 102 -102 50 c-56 28 -120 55 -143 61 -22 6 -47 13
-55 16 -8 2 8 12 36 22 70 23 156 76 221 135 81 73 102 128 66 168 -22 24 -41
23 -68 -6 -13 -14 -40 -29 -61 -35 -22 -6 -65 -17 -97 -26 -38 -10 -93 -40
-166 -90 -59 -40 -126 -78 -147 -83 -63 -16 -167 -23 -199 -13 -16 5 -25 10
-18 10 18 1 82 60 115 105 27 38 36 84 22 120 -8 20 -57 21 -73 2 -6 -8 -32
-19 -58 -25 -72 -19 -102 -38 -198 -131 -102 -98 -79 -88 -379 -165 -99 -25
-185 -44 -190 -42 -17 6 177 129 324 205 182 95 358 167 466 192 49 11 107 25
129 31 75 21 180 28 390 24 165 -3 231 -8 307 -24z"/>
<path d="M6315 11557 c-44 -18 -88 -42 -207 -114 -134 -81 -225 -113 -322
-113 -87 0 -204 28 -277 67 -46 24 -64 28 -123 26 -38 -2 -70 -4 -72 -5 -1 -2
-5 -15 -9 -30 -6 -24 -3 -28 42 -48 26 -12 77 -33 113 -47 175 -67 190 -79
190 -153 0 -57 14 -77 76 -110 29 -15 50 -34 52 -45 2 -11 7 -24 12 -28 14
-15 67 21 84 57 19 40 20 60 5 88 -23 43 0 43 238 3 125 -21 253 -38 283 -38
30 0 158 17 283 38 238 40 261 40 238 -3 -15 -28 -14 -48 5 -88 17 -36 70 -72
84 -57 5 4 10 17 12 28 2 11 23 30 52 45 62 33 76 53 76 110 0 74 15 86 190
153 36 14 87 35 113 47 45 20 48 24 42 48 -4 15 -8 28 -9 30 -2 1 -34 3 -72 5
-59 2 -77 -2 -123 -26 -73 -39 -190 -67 -277 -67 -97 0 -188 32 -322 113 -177
107 -209 121 -282 124 -36 1 -78 -3 -95 -10z m193 -60 c31 -13 108 -56 171
-96 135 -84 182 -100 316 -108 110 -6 136 -1 313 62 56 20 115 35 130 33 l27
-3 -30 -16 c-16 -9 -77 -33 -135 -54 -165 -58 -180 -72 -195 -174 -6 -34 -13
-46 -37 -60 -17 -9 -44 -27 -60 -40 -25 -20 -31 -22 -39 -10 -22 35 -7 83 44
136 17 18 28 35 25 38 -3 3 -95 -12 -204 -34 -320 -63 -411 -72 -551 -54 -65
8 -208 32 -317 54 -109 22 -201 37 -204 34 -3 -3 8 -20 25 -38 51 -53 66 -101
44 -136 -8 -12 -14 -10 -39 10 -16 13 -43 31 -60 40 -24 14 -31 26 -37 60 -15
102 -30 116 -195 174 -58 21 -118 45 -135 54 l-30 16 27 3 c15 2 74 -13 130
-33 177 -63 203 -68 313 -62 134 8 181 24 316 108 197 124 272 143 387 96z"/>
<path d="M6290 11405 c-52 -41 -126 -91 -165 -112 -65 -35 -77 -38 -172 -41
-57 -2 -101 -8 -98 -12 3 -5 38 -14 78 -22 52 -9 180 -13 467 -13 287 0 415 4
467 13 40 8 75 17 78 22 3 4 -41 10 -98 12 -95 3 -107 6 -172 41 -38 21 -113
71 -165 112 -52 41 -102 75 -110 75 -8 0 -58 -34 -110 -75z m227 -46 c59 -45
118 -86 131 -92 12 -6 22 -14 22 -18 0 -14 -56 -18 -270 -18 -214 0 -270 4
-270 18 0 4 10 12 23 18 12 6 71 47 130 92 60 44 112 81 117 81 5 0 57 -37
117 -81z"/>
<path d="M6325 11174 c-93 -14 -54 -37 64 -38 156 -1 193 29 46 38 -44 2 -93
2 -110 0z"/>
<path d="M1399 7493 c-12 -3 -18 -21 -23 -61 -7 -60 3 -101 36 -158 29 -50 58
-180 58 -263 0 -100 -30 -182 -114 -320 -167 -274 -167 -308 0 -580 84 -138
114 -222 114 -322 0 -90 -27 -205 -67 -280 -24 -46 -28 -64 -26 -123 1 -37 3
-70 5 -71 2 -2 15 -6 29 -10 25 -6 29 -2 51 47 14 29 42 98 63 153 48 124 67
145 133 145 59 0 78 13 112 76 15 29 34 50 45 52 11 2 24 7 28 12 15 14 -21
67 -57 84 -40 19 -60 20 -88 5 -43 -23 -43 0 -3 238 21 125 39 253 38 283 0
30 -17 158 -38 283 -40 238 -40 261 3 238 28 -15 48 -14 88 5 36 17 72 70 57
84 -4 5 -17 10 -28 12 -11 2 -30 23 -45 52 -34 63 -53 76 -112 76 -66 0 -85
21 -133 145 -56 145 -85 205 -98 204 -7 -1 -19 -3 -28 -6z m35 -60 c7 -16 30
-75 51 -133 58 -165 72 -180 174 -195 34 -6 46 -13 60 -37 9 -17 27 -44 40
-60 20 -25 22 -31 10 -39 -35 -22 -83 -7 -136 44 -18 17 -35 28 -38 25 -3 -3
12 -95 34 -204 63 -320 72 -411 54 -551 -8 -65 -32 -208 -54 -317 -22 -109
-37 -201 -34 -204 3 -3 20 8 38 25 53 51 101 66 136 44 12 -8 10 -14 -10 -39
-13 -16 -31 -43 -40 -60 -14 -24 -26 -31 -60 -37 -102 -15 -116 -30 -174 -195
-21 -58 -45 -118 -54 -135 l-16 -30 -3 27 c-2 15 13 74 33 130 63 176 68 203
62 313 -7 133 -24 180 -108 316 -158 250 -158 307 0 559 85 136 101 182 108
315 6 110 0 138 -61 310 -32 89 -45 155 -31 155 2 0 11 -12 19 -27z"/>
<path d="M1548 6847 c-3 -95 -6 -107 -41 -172 -20 -38 -71 -113 -112 -165 -41
-52 -75 -102 -75 -110 0 -8 34 -58 75 -110 41 -52 92 -126 112 -165 35 -65 38
-77 41 -172 2 -57 8 -101 12 -98 4 3 14 35 21 72 11 51 14 170 14 473 0 303
-3 422 -14 473 -7 37 -17 69 -21 72 -4 3 -10 -41 -12 -98z m16 -204 c3 -16 5
-125 5 -243 0 -214 -4 -270 -18 -270 -4 0 -12 10 -18 23 -6 12 -47 71 -92 130
-44 60 -81 112 -81 117 0 5 37 57 81 117 45 59 86 118 92 131 14 30 24 28 31
-5z"/>
<path d="M1634 6519 c-13 -22 -10 -227 3 -240 18 -18 28 31 27 132 -1 88 -13
134 -30 108z"/>
<path d="M11338 7448 c-14 -29 -42 -98 -63 -153 -48 -124 -67 -145 -133 -145
-59 0 -78 -13 -112 -76 -15 -29 -34 -50 -45 -52 -11 -2 -24 -7 -28 -12 -15
-14 21 -67 57 -84 40 -19 60 -20 88 -5 43 23 43 0 3 -238 -21 -125 -39 -253
-39 -283 0 -30 18 -158 39 -283 40 -238 40 -261 -3 -238 -28 15 -48 14 -88 -5
-36 -17 -72 -70 -57 -84 4 -5 17 -10 28 -12 11 -2 30 -23 45 -52 34 -63 53
-76 112 -76 66 0 85 -21 133 -145 21 -55 49 -124 63 -153 22 -49 26 -53 51
-47 14 4 27 8 29 9 1 2 3 34 5 72 2 59 -2 77 -26 123 -40 75 -67 190 -67 280
0 100 30 184 114 322 167 272 167 306 0 580 -84 138 -114 220 -114 320 0 90
27 205 67 280 24 46 28 64 26 123 -2 38 -4 70 -5 72 -2 1 -15 5 -29 9 -25 6
-29 2 -51 -47z m22 -125 c-67 -186 -72 -210 -66 -323 6 -137 21 -182 107 -320
158 -252 158 -309 0 -559 -84 -136 -101 -183 -108 -316 -6 -110 -1 -137 62
-313 20 -56 35 -115 33 -130 l-3 -27 -16 30 c-9 17 -33 77 -54 135 -58 165
-72 180 -174 195 -34 6 -46 13 -60 37 -9 17 -27 44 -40 60 -20 25 -22 31 -10
39 35 22 83 7 136 -44 18 -17 35 -28 38 -25 3 3 -12 95 -34 204 -22 109 -46
252 -54 317 -18 140 -9 231 54 551 22 109 37 201 34 204 -3 3 -20 -8 -38 -25
-53 -51 -101 -66 -136 -44 -12 8 -10 14 10 39 13 16 31 43 40 60 14 24 26 31
60 37 102 15 116 30 174 195 21 58 45 119 54 135 l16 30 3 -27 c2 -15 -11 -67
-28 -115z"/>
<path d="M11239 6945 c-4 -5 -13 -37 -20 -70 -20 -86 -20 -851 0 -948 7 -37
17 -69 21 -72 4 -3 10 41 12 98 3 95 6 107 41 172 20 39 71 113 112 165 41 52
75 102 75 110 0 8 -34 58 -75 110 -41 52 -92 127 -112 165 -34 64 -37 79 -43
175 -3 58 -8 101 -11 95z m28 -297 c6 -13 47 -72 92 -131 44 -60 81 -112 81
-117 0 -5 -37 -57 -81 -117 -45 -59 -86 -118 -92 -130 -6 -13 -14 -23 -18 -23
-14 0 -18 56 -18 270 0 214 4 270 18 270 4 0 12 -10 18 -22z"/>
<path d="M11144 6504 c-5 -16 -8 -63 -8 -104 0 -91 10 -138 26 -122 15 15 15
229 0 244 -8 8 -13 3 -18 -18z"/>
<path d="M1398 5283 c-23 -6 -15 -72 23 -212 54 -196 38 -283 -87 -469 -42
-62 -87 -139 -100 -170 -39 -95 -28 -222 21 -222 7 0 27 24 43 53 16 28 54 79
83 112 51 59 129 170 129 186 0 4 5 20 11 36 10 26 12 27 19 8 14 -33 11 -253
-4 -355 -27 -179 -76 -260 -156 -260 -46 0 -72 22 -68 59 4 34 31 38 46 6 15
-32 56 -34 73 -4 15 29 3 85 -24 104 -50 35 -156 5 -177 -51 -15 -38 -12 -101
5 -134 22 -42 65 -60 156 -68 l80 -7 -67 -105 c-161 -253 -256 -334 -467 -399
-206 -63 -443 -13 -597 125 -64 58 -149 177 -172 240 -28 78 -31 281 -5 363
21 67 78 172 123 228 109 134 347 135 414 3 21 -41 30 -181 10 -150 -5 8 -10
30 -10 49 0 49 -37 120 -74 142 -86 52 -216 -21 -216 -121 0 -19 14 -64 30
-99 l30 -63 -27 6 c-112 27 -155 16 -193 -47 -44 -72 -10 -152 82 -192 24 -11
45 -20 47 -21 2 -2 -6 -15 -17 -31 -27 -38 -45 -99 -38 -127 9 -37 83 -112
126 -130 38 -15 44 -15 76 0 19 9 48 36 65 60 16 24 34 46 39 49 6 4 19 -15
31 -42 47 -110 142 -154 224 -103 62 39 70 120 20 209 -14 24 -24 46 -22 48 2
2 20 -4 40 -12 73 -30 154 -10 192 48 60 93 -9 197 -131 197 -28 0 -53 3 -57
6 -3 4 11 27 32 53 49 59 57 76 66 132 8 55 -9 96 -55 129 -49 35 -86 41 -137
24 -25 -9 -46 -14 -48 -12 -1 2 -9 17 -18 33 -24 47 -67 86 -126 113 -74 34
-193 36 -265 4 -66 -30 -88 -28 -115 9 -44 59 -114 84 -163 58 -43 -23 -63
-133 -33 -177 9 -12 30 -26 48 -30 18 -5 31 -13 30 -18 -1 -5 -18 -52 -37
-105 -83 -229 -71 -436 36 -617 47 -80 199 -230 273 -269 108 -56 163 -67 335
-68 169 0 209 9 361 76 39 17 72 29 73 27 1 -2 12 -18 25 -35 42 -62 142 -63
185 -2 21 30 21 73 -1 95 -16 16 -19 14 -49 -22 -18 -21 -36 -36 -39 -32 -15
15 23 97 130 278 63 107 115 201 115 208 0 6 4 12 10 12 10 0 9 -12 -17 -145
-16 -85 -101 -353 -129 -406 -8 -17 -34 -51 -56 -75 l-41 -44 -134 0 c-96 0
-144 -4 -170 -15 -26 -11 -45 -13 -68 -6 -61 17 -86 -29 -45 -82 33 -42 100
-68 197 -75 l88 -7 -45 -34 c-75 -56 -126 -74 -211 -75 -96 -1 -119 11 -158
84 -41 77 -73 107 -138 127 -57 18 -143 83 -143 109 0 19 -26 18 -34 -2 -27
-71 30 -214 111 -275 77 -59 165 -99 281 -129 23 -6 42 -15 42 -19 0 -10 -83
-44 -145 -60 -67 -18 -174 -13 -225 10 -92 41 -130 99 -161 241 -22 103 -47
158 -93 206 -60 65 -130 80 -180 41 -47 -37 -49 -60 -10 -94 28 -24 36 -40 44
-87 17 -109 76 -195 174 -252 78 -46 156 -112 156 -132 0 -10 -12 -14 -38 -14
-56 0 -189 -36 -236 -64 -54 -32 -101 -82 -120 -128 -26 -61 -31 -142 -12
-191 18 -49 68 -103 85 -93 6 4 11 37 11 75 0 80 5 87 80 101 29 6 60 15 69
22 42 31 85 77 113 121 35 55 82 83 165 98 81 15 256 76 338 117 39 19 103 57
142 85 40 28 76 48 79 45 10 -11 -116 -129 -220 -207 -54 -41 -135 -106 -180
-144 -112 -95 -132 -104 -204 -89 -86 18 -112 16 -112 -7 0 -23 39 -52 93 -72
20 -7 37 -17 37 -21 0 -9 -58 -107 -77 -129 -10 -12 -25 -15 -62 -11 -58 5
-97 -16 -117 -65 -8 -18 -16 -33 -19 -33 -2 0 -21 12 -42 26 -32 21 -46 25
-86 21 -68 -6 -92 -32 -91 -97 0 -35 8 -60 27 -89 15 -22 27 -44 27 -49 0 -4
-20 -22 -45 -40 -51 -36 -61 -62 -46 -120 17 -62 41 -85 96 -91 43 -6 48 -9
59 -41 16 -50 69 -83 121 -75 55 8 85 39 85 87 0 43 10 47 50 18 46 -32 80
-35 120 -8 70 48 58 149 -23 194 l-39 21 35 7 c78 15 113 78 83 149 -10 26
-23 38 -43 43 -57 13 -60 43 -11 122 l20 33 39 -36 c43 -38 60 -43 79 -20 10
12 9 23 -4 55 -9 22 -16 50 -16 63 1 38 37 105 87 158 52 56 302 263 309 257
2 -3 -21 -52 -50 -109 -125 -239 -235 -590 -281 -894 -34 -227 -77 -357 -143
-435 l-30 -35 -98 -3 c-104 -3 -146 -16 -197 -58 -48 -40 -76 -33 -126 35 -13
18 -23 22 -39 17 -18 -6 -22 -15 -22 -46 0 -49 39 -137 74 -170 26 -23 35 -25
124 -25 85 0 105 4 156 28 32 15 74 40 92 57 30 26 54 38 54 27 0 -13 -41
-121 -60 -157 -34 -67 -136 -160 -242 -223 -168 -99 -263 -228 -263 -358 0
-75 19 -109 62 -109 26 0 43 31 43 82 0 58 51 115 175 198 28 18 65 47 82 63
18 17 36 27 40 23 5 -4 8 -44 8 -89 l0 -82 82 0 c45 0 85 -3 89 -8 4 -4 -6
-22 -23 -40 -16 -17 -45 -54 -63 -82 -86 -128 -140 -175 -204 -175 -49 0 -76
-15 -76 -44 0 -67 125 -84 233 -32 86 41 169 124 232 230 96 163 180 238 321
286 31 11 59 20 61 20 11 0 -1 -24 -27 -54 -17 -18 -42 -60 -57 -92 -24 -51
-28 -71 -28 -156 0 -89 2 -98 25 -124 33 -35 121 -74 170 -74 31 0 40 4 46 22
5 16 1 26 -17 39 -68 50 -75 78 -35 126 42 51 55 93 58 197 l3 98 35 30 c78
66 208 109 435 143 304 46 655 156 894 281 57 29 106 52 109 50 6 -7 -201
-257 -257 -309 -53 -50 -120 -86 -158 -87 -13 0 -41 7 -63 16 -32 13 -43 14
-55 4 -23 -19 -18 -36 20 -79 l36 -39 -33 -20 c-78 -49 -109 -46 -122 11 -9
37 -61 62 -109 53 -42 -8 -74 -43 -83 -93 l-7 -35 -21 39 c-46 82 -146 94
-194 23 -27 -40 -24 -74 8 -120 29 -40 25 -50 -18 -50 -48 0 -79 -30 -87 -85
-8 -52 25 -105 75 -121 32 -11 35 -16 41 -59 6 -55 29 -79 91 -96 57 -15 82
-5 119 46 18 25 36 45 41 45 5 0 27 -12 49 -27 29 -19 54 -27 89 -27 65 -1 91
23 97 91 4 40 0 54 -21 86 -14 21 -26 40 -26 42 0 3 15 11 33 19 49 20 70 59
65 117 -4 36 -1 52 11 63 20 18 119 76 129 76 5 0 14 -17 21 -38 20 -53 49
-92 72 -92 23 0 25 26 7 112 -15 72 -6 92 89 204 38 45 103 126 144 180 78
104 196 230 207 220 3 -3 -17 -39 -45 -79 -28 -39 -66 -103 -85 -142 -42 -82
-102 -257 -117 -339 -14 -78 -46 -131 -100 -166 -42 -26 -88 -70 -119 -111 -7
-9 -16 -40 -22 -69 -14 -75 -21 -80 -101 -80 -38 0 -71 -5 -75 -11 -10 -17 44
-67 93 -85 49 -19 130 -14 191 12 46 19 96 66 128 120 28 47 64 180 64 236 0
24 5 38 13 38 21 0 82 -70 131 -151 64 -107 142 -161 254 -179 47 -8 63 -16
87 -44 34 -39 57 -37 94 10 39 50 24 120 -41 180 -48 46 -107 72 -208 94 -49
10 -106 28 -127 39 -124 63 -165 210 -108 388 26 83 40 111 50 102 3 -4 14
-39 25 -78 24 -86 69 -178 119 -244 61 -81 204 -138 275 -111 20 8 21 34 2 34
-26 0 -91 86 -109 143 -20 65 -50 97 -127 138 -73 39 -85 62 -84 158 1 85 19
136 75 211 l34 45 7 -88 c10 -133 63 -222 127 -215 24 3 26 7 27 58 0 30 6 68
12 83 7 17 12 83 12 161 l0 133 44 41 c24 22 58 48 75 56 53 28 321 113 406
129 133 26 145 27 145 17 0 -6 -6 -10 -12 -10 -7 0 -101 -52 -208 -115 -181
-107 -263 -145 -278 -130 -4 3 11 21 32 39 36 30 38 33 22 49 -22 22 -65 22
-95 1 -61 -43 -60 -143 2 -185 17 -13 33 -24 35 -25 2 -1 -10 -34 -27 -73 -68
-154 -76 -192 -76 -361 1 -172 12 -228 68 -335 39 -74 189 -226 269 -273 181
-107 388 -119 617 -36 53 19 100 36 105 37 5 1 13 -12 18 -30 11 -41 42 -63
90 -63 138 0 173 126 59 211 -37 27 -39 49 -9 115 32 72 30 191 -4 265 -27 60
-75 111 -119 129 -32 14 -34 21 -18 52 18 33 12 95 -12 134 -57 94 -156 97
-263 9 -30 -24 -57 -41 -60 -38 -3 4 -6 29 -6 57 0 122 -104 191 -197 131 -58
-38 -78 -119 -48 -192 8 -20 14 -38 12 -40 -2 -2 -24 8 -48 22 -89 50 -170 42
-209 -20 -51 -82 -8 -176 103 -225 26 -12 45 -25 42 -30 -3 -6 -25 -23 -49
-39 -24 -17 -51 -46 -60 -65 -15 -32 -15 -38 -1 -73 19 -45 38 -67 89 -104 49
-36 69 -36 142 1 32 16 59 28 59 27 1 -1 9 -21 20 -45 40 -92 120 -126 192
-82 63 38 74 81 47 193 l-6 27 63 -30 c75 -35 121 -38 167 -10 37 23 71 88 72
135 0 67 -81 135 -161 135 -19 0 -41 5 -49 10 -31 20 109 11 150 -10 138 -71
130 -312 -15 -422 -131 -99 -228 -132 -385 -132 -145 0 -219 20 -302 81 -166
123 -234 225 -274 413 -21 100 -12 207 27 325 66 198 137 278 389 439 l105 67
7 -80 c8 -91 26 -134 68 -156 33 -17 96 -20 134 -5 56 21 86 127 51 177 -19
27 -75 39 -104 24 -30 -17 -28 -58 4 -73 32 -15 28 -42 -6 -46 -37 -4 -59 22
-59 68 0 80 81 129 260 156 99 15 307 17 350 4 l25 -7 -28 -12 c-16 -6 -32
-11 -36 -11 -16 0 -128 -78 -191 -133 -36 -32 -84 -67 -108 -78 -54 -27 -63
-46 -31 -72 19 -16 36 -18 94 -15 83 4 162 38 271 118 38 28 98 65 134 83 61
30 72 32 170 32 85 0 121 -5 190 -27 47 -14 108 -29 137 -32 l52 -5 7 35 c3
19 4 38 0 41 -3 3 -52 24 -108 45 -130 49 -147 65 -164 160 -13 69 -17 76 -66
121 -65 58 -92 67 -120 39 -29 -28 -36 -108 -13 -151 9 -18 14 -35 11 -38 -3
-3 -51 4 -108 15 -188 38 -297 45 -568 39 -263 -6 -352 -16 -620 -72 -63 -13
-176 -33 -251 -44 -166 -25 -201 -21 -342 45 -79 37 -115 48 -184 56 -58 6
-102 18 -135 35 -39 20 -51 23 -63 13 -37 -31 -6 -123 58 -170 41 -30 171 -85
228 -97 38 -7 46 -21 17 -27 -62 -13 -302 -28 -345 -22 -105 14 -143 34 -231
123 -86 86 -131 116 -193 127 -27 5 -50 21 -91 66 -30 33 -60 60 -66 60 -27 0
-42 -33 -42 -94 0 -71 17 -104 93 -185 90 -94 183 -147 315 -181 131 -33 -86
-40 -320 -10 -172 22 -243 40 -302 77 -54 35 -255 236 -290 291 -36 57 -62
161 -81 324 -26 224 -16 418 15 296 41 -163 132 -294 264 -382 66 -44 196 -33
196 16 0 6 -27 36 -60 66 -45 41 -61 64 -66 91 -11 62 -41 107 -127 193 -108
107 -123 145 -120 303 2 140 15 285 27 286 4 0 21 -39 37 -86 59 -176 117
-245 207 -245 50 0 58 22 29 78 -17 33 -29 77 -35 135 -8 69 -19 105 -56 184
-66 141 -70 176 -45 342 11 75 31 188 44 251 55 265 66 357 72 620 6 270 0
368 -38 563 -12 59 -19 110 -16 113 3 3 20 -2 38 -11 43 -23 123 -16 151 13
28 28 19 55 -39 120 -45 49 -52 53 -121 66 -95 17 -111 34 -161 166 -41 109
-50 118 -103 103z m62 -93 c34 -96 77 -178 104 -195 13 -9 52 -20 87 -26 68
-12 92 -27 115 -71 22 -43 18 -68 -11 -68 -34 0 -96 32 -126 65 -13 15 -32 36
-42 46 -33 36 -35 10 -6 -103 55 -213 70 -327 76 -563 7 -297 -3 -383 -103
-855 -28 -131 -37 -200 -38 -276 l-1 -101 54 -107 c41 -82 55 -124 61 -174 4
-37 13 -89 19 -116 7 -27 9 -51 7 -54 -20 -19 -106 86 -137 168 -19 51 -39
175 -39 248 0 26 -4 53 -9 60 -12 19 -25 -18 -63 -183 -29 -126 -32 -156 -32
-300 -1 -194 6 -214 115 -332 54 -58 82 -100 112 -163 21 -47 55 -102 75 -122
33 -35 34 -38 14 -38 -39 0 -143 60 -192 110 -55 56 -111 160 -136 250 -14 50
-19 102 -19 227 0 89 -3 159 -7 155 -12 -12 -36 -117 -59 -259 -19 -119 -21
-162 -16 -308 9 -250 33 -367 97 -462 48 -73 239 -260 302 -297 88 -51 213
-75 443 -83 146 -5 189 -3 308 16 142 23 247 47 259 59 4 4 -64 7 -150 7 -98
0 -178 5 -212 14 -90 22 -214 86 -268 139 -52 51 -112 155 -112 194 0 20 3 19
38 -14 20 -20 76 -54 124 -76 67 -31 105 -57 163 -112 113 -107 136 -115 330
-114 144 0 174 3 300 32 165 38 202 51 183 63 -7 5 -34 9 -60 9 -73 0 -197 20
-248 39 -82 31 -187 117 -168 137 3 2 27 0 54 -7 27 -6 79 -15 116 -19 50 -6
92 -20 173 -61 158 -79 186 -78 610 12 337 71 363 74 665 73 300 0 368 -7 597
-65 67 -17 130 -29 140 -27 19 4 21 1 -52 67 -33 30 -65 92 -65 126 0 29 25
33 68 11 44 -23 59 -47 71 -115 6 -35 17 -74 26 -87 17 -27 99 -70 195 -104
36 -13 69 -27 75 -32 23 -20 -75 -5 -169 26 -129 44 -184 51 -266 36 -90 -16
-151 -44 -241 -111 -43 -32 -95 -67 -116 -77 -49 -25 -139 -52 -172 -51 l-26
0 34 27 c18 15 59 49 90 76 129 112 244 165 365 167 33 1 72 4 86 8 20 6 11
10 -50 23 -106 23 -135 27 -256 38 -79 7 -110 14 -116 25 -11 18 -127 20 -383
5 -359 -22 -610 -95 -791 -232 -30 -23 -62 -54 -70 -69 -16 -32 -18 -115 -3
-178 7 -33 6 -56 -6 -96 -8 -29 -15 -67 -15 -85 0 -39 -23 -38 -53 2 -16 22
-22 47 -25 115 -4 86 2 117 43 216 32 77 -157 -112 -203 -204 -75 -149 -44
-288 79 -354 79 -42 86 -50 104 -111 9 -33 30 -71 52 -94 34 -39 34 -40 12
-40 -39 0 -122 44 -156 83 -73 83 -127 208 -146 332 -6 47 -16 86 -22 87 -14
2 -71 -94 -96 -162 -41 -110 -48 -234 -17 -294 23 -44 110 -146 141 -164 18
-11 68 -30 112 -42 44 -12 99 -29 121 -40 59 -25 124 -87 124 -116 0 -29 -23
-31 -90 -9 -25 8 -77 23 -115 34 -80 23 -149 74 -171 128 -8 18 -27 47 -42 65
-58 67 -114 147 -121 175 -10 35 -11 34 -50 -137 -39 -164 -75 -244 -133 -290
-51 -41 -132 -71 -162 -60 -31 11 -26 34 9 40 23 4 32 13 43 45 8 22 21 59 29
83 12 35 30 54 87 96 114 85 110 79 156 280 17 73 40 160 51 191 24 69 74 171
89 180 5 3 26 32 47 63 65 97 256 281 357 343 80 50 114 79 89 79 -18 0 -196
-108 -277 -167 -128 -95 -211 -169 -269 -240 -28 -36 -77 -96 -107 -134 -30
-37 -101 -125 -157 -194 -103 -125 -103 -126 -103 -180 0 -30 -4 -55 -10 -55
-5 0 -10 20 -10 44 0 25 -4 47 -9 51 -6 3 -34 -13 -63 -35 -69 -52 -135 -87
-145 -76 -4 5 -3 11 3 13 25 9 117 69 118 76 1 5 -16 15 -38 22 -21 8 -44 19
-50 26 -8 9 -6 10 9 4 68 -27 140 -7 215 61 48 44 324 371 366 434 15 22 25
43 22 46 -3 3 -26 -9 -51 -26 -59 -40 -244 -134 -379 -193 -137 -59 -372 -127
-563 -162 -403 -72 -487 -97 -557 -163 -80 -74 -90 -94 -99 -190 -6 -63 -18
-106 -40 -155 -30 -67 -34 -104 -14 -149 12 -29 -14 -21 -50 15 -45 45 -61
105 -46 177 24 117 100 232 200 300 45 31 62 50 46 50 -16 0 -187 -71 -300
-125 -156 -74 -199 -112 -279 -249 -65 -109 -129 -178 -202 -218 -56 -30 -158
-52 -182 -39 -11 6 -5 10 26 16 74 12 140 69 205 177 44 73 102 140 154 179
23 18 43 35 43 38 0 3 -56 5 -126 3 l-125 -4 2 121 c1 67 -2 121 -6 122 -3 0
-20 -17 -36 -38 -40 -51 -79 -84 -174 -147 -124 -82 -165 -129 -181 -210 -5
-29 -9 -35 -15 -23 -13 23 9 126 39 181 40 73 109 137 218 202 135 79 175 124
244 269 71 149 134 305 126 312 -3 4 -8 4 -9 2 -2 -2 -23 -30 -46 -62 -70 -97
-196 -175 -309 -193 -55 -9 -120 12 -159 51 -36 36 -44 62 -16 50 46 -20 84
-17 148 13 40 19 89 33 128 37 120 11 124 13 192 76 90 85 114 157 184 554 55
310 149 585 293 855 28 52 62 110 75 128 33 44 23 51 -27 18 -57 -38 -310
-247 -392 -325 -103 -98 -135 -176 -103 -256 6 -15 5 -17 -4 -9 -7 6 -18 29
-26 50 -7 22 -17 39 -22 38 -7 -1 -67 -93 -76 -118 -2 -6 -8 -7 -13 -3 -11 10
30 87 79 149 21 27 35 53 32 58 -3 6 -26 10 -51 10 -24 0 -44 5 -44 10 0 6 25
10 55 10 53 0 56 2 156 83 56 45 131 106 168 135 248 200 285 236 405 395 76
102 186 279 186 300 0 25 -29 -8 -79 -89 -62 -101 -246 -292 -343 -357 -31
-21 -60 -42 -63 -47 -9 -15 -111 -65 -180 -89 -31 -11 -118 -34 -191 -51 -201
-46 -195 -42 -280 -156 -42 -57 -61 -75 -96 -87 -24 -8 -61 -21 -83 -29 -32
-11 -41 -20 -45 -43 -6 -35 -29 -40 -40 -9 -11 30 19 111 60 162 46 58 126 94
290 133 171 39 172 40 137 50 -27 7 -108 63 -173 119 -17 15 -51 36 -75 48
-58 28 -103 96 -128 192 -11 41 -24 88 -30 103 -33 84 11 105 74 36 44 -49 66
-96 95 -204 12 -44 30 -94 41 -111 20 -33 98 -102 151 -133 68 -41 187 -37
308 8 65 24 162 81 167 97 3 8 -21 14 -69 19 -124 12 -261 68 -349 143 -43 37
-89 119 -89 161 0 22 1 22 40 -12 23 -22 61 -43 94 -52 61 -18 69 -25 111
-104 66 -123 205 -154 354 -79 92 46 281 235 204 203 -99 -41 -130 -47 -216
-43 -68 3 -93 9 -115 25 -40 30 -41 53 -2 53 18 0 56 7 85 15 40 12 63 13 96
6 63 -15 146 -13 178 3 63 33 161 195 214 356 63 191 82 324 93 664 7 189 6
210 -10 221 -12 10 -19 38 -26 119 -11 121 -15 150 -38 256 -13 61 -17 70 -23
50 -4 -14 -7 -53 -8 -86 -2 -121 -55 -236 -167 -365 -27 -31 -61 -72 -76 -90
l-27 -34 0 26 c-1 33 26 123 51 174 11 22 44 72 74 110 64 85 99 159 114 245
15 82 8 137 -36 266 -31 94 -46 192 -26 169 5 -6 19 -39 32 -75z m-1251 -678
c19 -19 30 -43 35 -75 8 -53 14 -56 42 -26 10 12 39 33 63 47 38 22 60 27 137
30 157 7 244 -41 279 -155 11 -38 -9 -25 -30 18 -49 103 -192 146 -333 102
-160 -51 -292 -291 -292 -534 0 -67 36 -198 68 -243 15 -21 33 -50 41 -65 22
-42 176 -185 232 -216 173 -94 384 -97 598 -9 107 45 149 74 236 165 113 118
173 212 225 352 29 77 25 97 -14 66 -64 -50 -199 -32 -231 32 -27 52 -12 93
48 129 27 17 33 17 59 4 15 -8 28 -16 28 -19 0 -2 -22 -1 -49 2 -43 5 -50 3
-65 -18 -25 -36 -20 -76 13 -110 26 -26 36 -29 91 -29 57 0 65 3 94 33 36 35
79 137 101 238 l13 64 1 -45 c1 -50 -32 -253 -50 -309 -21 -65 -79 -173 -176
-328 -65 -104 -96 -165 -100 -192 -6 -47 8 -71 43 -71 13 0 24 -4 24 -10 0
-20 -51 -10 -75 15 -26 25 -32 63 -15 96 6 10 9 19 6 19 -2 0 -33 -17 -67 -38
-81 -49 -169 -84 -284 -112 -74 -19 -107 -22 -190 -17 -166 9 -275 58 -402
180 -97 93 -130 136 -175 227 -31 62 -33 72 -36 201 -5 153 10 230 72 382 49
118 53 157 23 192 -19 23 -29 27 -50 21 -24 -6 -27 -11 -27 -46 0 -41 -14 -61
-24 -34 -11 30 -6 53 20 83 32 38 57 39 93 3z m-31 -70 c2 -24 -1 -32 -12 -32
-17 0 -32 42 -21 60 12 20 30 4 33 -28z m433 -82 c29 -16 46 -58 58 -144 21
-152 15 -186 -35 -186 -46 0 -174 180 -174 244 0 14 14 41 31 61 24 27 39 35
66 35 19 0 43 -5 54 -10z m319 -45 c98 -50 74 -148 -64 -269 -37 -32 -64 -61
-61 -65 4 -3 58 -6 120 -6 106 0 115 -2 139 -24 36 -34 36 -92 0 -128 -23 -23
-32 -25 -83 -21 -46 3 -73 13 -129 46 -76 45 -98 50 -128 27 -43 -33 -104 -2
-104 53 0 37 29 62 78 69 39 5 40 6 35 38 -12 74 68 253 127 282 32 16 35 16
70 -2z m-435 -269 c83 -41 104 -65 80 -90 -25 -24 -93 -40 -172 -41 -62 0 -75
3 -97 24 -31 29 -34 76 -10 123 15 29 18 30 69 26 35 -3 81 -18 130 -42z m105
-188 c11 -18 20 -48 20 -67 0 -48 -66 -168 -102 -187 -27 -14 -33 -13 -72 5
-28 14 -50 35 -65 61 -20 36 -21 41 -7 69 9 16 29 42 46 59 32 33 127 91 148
92 7 0 21 -15 32 -32z m192 -45 c72 -78 98 -124 98 -172 0 -66 -28 -95 -82
-88 -71 10 -103 56 -123 179 l-12 79 31 14 c46 20 60 18 88 -12z m-357 -1687
c30 -30 27 -41 -38 -145 -55 -89 -68 -81 -70 45 -2 79 0 87 22 105 31 26 57
24 86 -5z m-238 -53 c28 -31 73 -115 73 -137 0 -41 -70 -30 -128 20 -34 29
-42 42 -42 70 0 36 28 74 55 74 9 0 27 -12 42 -27z m357 -79 c22 -22 20 -67
-5 -90 -22 -20 -149 -34 -149 -17 0 16 56 89 82 107 28 20 52 20 72 0z m-207
-130 c15 -41 -35 -82 -65 -52 -16 16 -15 55 1 61 26 11 58 6 64 -9z m-137 -25
c17 -31 5 -62 -40 -103 -59 -53 -98 -48 -114 17 -11 47 19 81 89 98 48 11 54
10 65 -12z m277 -48 c61 -28 80 -75 46 -113 -25 -28 -59 -22 -104 19 -94 85
-57 146 58 94z m-167 -57 c24 -61 4 -155 -33 -162 -47 -9 -75 74 -46 131 31
60 64 73 79 31z m3904 -152 c-97 -19 -209 -68 -239 -104 -21 -24 -25 -40 -25
-90 0 -53 3 -63 29 -89 34 -33 74 -38 110 -13 21 15 23 22 18 65 -3 27 -4 49
-2 49 3 0 11 -13 19 -29 14 -27 14 -31 -7 -62 -45 -67 -104 -75 -152 -23 -47
50 -48 156 -4 213 18 22 19 26 5 29 -40 8 -218 -75 -316 -148 -74 -55 -196
-178 -227 -230 -34 -55 -79 -178 -98 -264 -31 -141 -8 -310 61 -436 30 -55
172 -207 215 -231 15 -8 44 -26 65 -41 45 -32 176 -68 243 -68 243 0 483 132
534 292 44 141 1 284 -102 333 -43 21 -56 41 -18 30 114 -35 162 -121 155
-279 -3 -77 -8 -99 -30 -137 -14 -24 -35 -53 -47 -63 -30 -28 -27 -34 26 -42
53 -8 103 -48 103 -82 0 -24 -54 -72 -80 -72 -28 0 -51 11 -44 21 3 5 23 9 44
9 35 0 40 3 46 27 6 21 2 31 -21 50 -35 30 -74 26 -192 -23 -152 -62 -229 -77
-382 -72 -129 3 -139 5 -201 36 -91 45 -134 78 -227 175 -122 127 -171 236
-180 402 -5 83 -2 116 17 190 28 115 63 203 112 284 21 34 38 65 38 67 0 3 -9
0 -19 -6 -33 -17 -71 -11 -96 15 -25 24 -35 75 -15 75 6 0 10 -11 10 -24 0
-35 24 -49 71 -43 27 4 88 35 192 100 175 109 271 159 348 180 49 14 210 42
284 50 60 6 47 -7 -21 -21z m-273 -518 c22 -24 24 -33 24 -139 0 -62 3 -116 6
-120 4 -3 33 24 65 61 100 114 179 149 236 104 41 -31 53 -72 33 -110 -32 -61
-203 -139 -280 -127 -32 5 -33 4 -38 -35 -7 -49 -32 -78 -69 -78 -55 0 -86 61
-53 104 23 30 18 52 -27 128 -33 56 -43 83 -46 129 -4 51 -2 60 21 83 36 36
94 36 128 0z m-214 -210 c66 -50 103 -86 103 -100 0 -6 -7 -27 -15 -46 l-14
-35 -79 12 c-123 20 -169 52 -179 123 -7 54 22 82 88 82 39 0 56 -6 96 -36z
m551 -199 c59 -18 82 -44 82 -96 0 -30 -7 -43 -35 -68 -46 -40 -72 -39 -156 5
-105 55 -175 144 -141 179 11 11 191 -3 250 -20z m-423 -59 l30 -25 -30 -56
c-33 -62 -84 -119 -128 -141 -25 -14 -31 -13 -67 7 -26 15 -47 37 -61 65 -18
39 -19 45 -5 72 9 18 39 42 83 65 83 45 134 48 178 13z m181 -101 c24 -49 39
-95 42 -130 4 -51 3 -54 -26 -69 -47 -24 -94 -21 -123 10 -21 22 -24 35 -24
97 1 79 17 147 41 172 25 24 49 3 90 -80z m-2052 59 c20 -20 20 -44 0 -72 -18
-26 -91 -82 -107 -82 -17 0 -3 127 17 149 23 25 68 27 90 5z m-242 -15 c24
-13 57 -83 58 -121 0 -32 -26 -49 -55 -38 -31 12 -95 87 -95 112 0 46 47 71
92 47z m391 -126 c16 -36 -8 -75 -53 -85 -41 -9 -150 0 -168 15 -12 10 31 42
127 93 49 27 74 21 94 -23z m-267 -78 c4 -8 3 -26 0 -40 -11 -42 -76 -28 -76
17 0 32 65 52 76 23z m-141 -15 c35 -13 30 -38 -14 -67 -63 -43 -160 -21 -149
34 7 37 101 57 163 33z m263 -74 c56 -29 102 -69 102 -91 0 -27 -38 -55 -74
-55 -28 0 -41 8 -70 42 -35 40 -55 96 -41 117 10 17 31 13 83 -13z m-157 -37
c16 -8 19 -16 13 -47 -15 -80 -51 -118 -101 -106 -68 16 -72 58 -9 120 45 45
63 52 97 33z m2635 -40 c10 -18 -13 -32 -40 -25 -37 9 -34 36 3 36 17 0 33 -5
37 -11z"/>
<path d="M1429 3133 c-9 -10 -29 -40 -44 -68 -16 -27 -45 -75 -65 -105 -20
-30 -49 -75 -65 -100 -16 -25 -38 -61 -51 -80 -211 -335 -364 -752 -380 -1040
-8 -128 10 -361 37 -493 22 -110 82 -286 101 -298 27 -17 208 -72 293 -90 139
-29 415 -45 538 -31 284 31 689 187 990 378 20 13 56 36 80 51 23 14 67 43 97
63 30 20 80 51 111 68 108 61 100 80 -16 37 -82 -31 -339 -106 -499 -146 -66
-16 -139 -38 -161 -49 -22 -11 -84 -60 -138 -110 -89 -81 -103 -90 -147 -96
-29 -4 -56 -14 -66 -25 -39 -43 -47 -5 -11 53 29 48 88 94 165 130 35 16 60
33 57 38 -10 16 -335 13 -382 -4 -21 -7 -88 -46 -147 -85 -66 -43 -130 -77
-164 -87 -104 -29 -119 -34 -141 -55 -12 -12 -25 -18 -28 -15 -10 10 47 84
101 129 69 59 141 94 250 122 50 13 91 26 91 30 0 4 -36 18 -80 30 -92 27
-226 82 -288 119 -32 18 -52 41 -74 83 -40 74 -89 197 -111 280 -10 35 -22 64
-27 64 -4 0 -18 -40 -31 -89 -27 -110 -62 -180 -126 -254 -48 -56 -114 -106
-125 -95 -3 3 5 16 16 29 12 12 29 47 37 78 30 109 37 122 106 227 39 59 77
125 84 146 16 46 20 372 5 382 -5 3 -26 -27 -45 -67 -40 -81 -68 -116 -122
-153 -56 -38 -99 -31 -55 9 11 10 21 37 25 66 6 43 15 58 87 137 129 139 119
118 210 463 28 107 69 246 91 308 40 115 45 148 17 115z m-154 -439 c-77 -301
-67 -277 -165 -379 -93 -96 -112 -126 -131 -198 -6 -26 -17 -52 -25 -58 -19
-16 -18 -65 2 -73 36 -14 82 -5 120 22 45 33 104 97 105 115 0 7 5 -1 10 -18
10 -32 3 -136 -13 -199 -5 -21 -43 -88 -83 -147 -50 -73 -80 -128 -90 -166 -9
-32 -20 -75 -26 -97 -6 -21 -21 -48 -35 -61 -28 -26 -30 -42 -7 -67 35 -39 95
-16 169 65 59 65 112 151 135 221 10 28 20 44 22 36 3 -8 10 -33 16 -55 6 -23
33 -87 61 -143 l50 -102 102 -50 c56 -28 120 -55 143 -61 22 -6 47 -13 55 -16
8 -2 -8 -12 -36 -22 -70 -23 -156 -76 -221 -135 -81 -73 -102 -128 -66 -168
22 -25 48 -23 66 5 10 15 33 29 64 36 26 7 72 19 101 27 33 9 93 42 161 89 59
40 126 78 147 83 63 16 167 23 199 13 17 -5 25 -10 18 -10 -18 -1 -82 -60
-115 -105 -27 -38 -36 -84 -22 -120 8 -20 57 -21 73 -2 6 8 32 19 58 25 72 19
102 38 198 131 102 98 78 88 379 165 98 25 184 44 190 42 17 -6 -175 -128
-324 -205 -181 -94 -358 -167 -466 -192 -49 -12 -118 -28 -154 -37 -52 -14
-115 -17 -315 -17 -278 0 -353 10 -551 77 l-98 33 -33 98 c-68 200 -78 273
-77 551 l0 250 37 153 c41 172 101 325 209 532 77 149 199 341 205 324 2 -6
-17 -92 -42 -190z"/>
<path d="M777 1573 c-3 -4 -8 -28 -11 -53 -21 -136 -82 -342 -139 -470 -125
-281 -161 -400 -155 -515 l3 -60 60 -3 c59 -3 169 17 255 45 25 9 124 50 220
93 130 58 212 87 319 114 80 20 152 36 160 36 9 0 34 5 56 11 33 10 37 13 20
19 -11 4 -56 10 -100 14 -44 4 -129 14 -188 22 -147 21 -318 9 -402 -30 -65
-30 -65 -29 -65 -16 0 23 101 60 185 69 47 5 89 11 92 14 3 4 -7 12 -23 18
-140 58 -129 47 -179 173 -8 22 -18 36 -21 33 -4 -3 -10 -42 -15 -87 -8 -81
-47 -190 -68 -190 -15 0 -15 -1 15 65 34 74 51 256 34 373 -6 42 -17 133 -25
201 -14 121 -18 141 -28 124z m6 -230 c14 -88 18 -301 8 -363 -6 -40 -26 -97
-53 -148 -32 -64 -40 -87 -32 -99 25 -39 40 -39 126 5 51 27 108 47 148 53 89
15 400 -1 400 -20 0 -3 -48 -19 -108 -35 -59 -16 -154 -49 -212 -73 -251 -105
-308 -126 -398 -145 -52 -10 -109 -18 -126 -16 l-31 3 2 71 c4 93 37 205 117
390 68 159 106 267 127 359 7 30 15 55 19 55 4 0 10 -17 13 -37z m134 -426 c4
-4 16 -13 26 -20 16 -11 11 -15 -45 -38 l-63 -24 24 63 c23 56 27 61 38 45 7
-10 16 -22 20 -26z"/>
<path d="M11330 5263 c-47 -131 -76 -195 -96 -214 -15 -14 -49 -27 -96 -35
-69 -13 -76 -17 -121 -66 -58 -65 -67 -92 -39 -120 28 -29 108 -36 151 -13 18
9 35 14 38 11 3 -3 -4 -51 -15 -108 -38 -188 -45 -297 -39 -568 6 -263 16
-352 72 -620 13 -63 33 -176 44 -251 25 -166 21 -201 -45 -342 -37 -79 -48
-115 -56 -184 -6 -58 -18 -102 -35 -135 -20 -39 -23 -51 -13 -63 31 -37 123
-6 170 58 30 41 85 171 97 228 7 38 21 46 27 17 13 -62 28 -302 22 -345 -14
-105 -34 -143 -126 -234 -82 -82 -110 -127 -125 -194 -4 -18 -30 -52 -66 -87
-32 -31 -59 -61 -59 -66 0 -27 33 -42 94 -42 71 0 104 17 185 93 94 90 147
183 181 315 31 122 40 -69 14 -295 -19 -166 -44 -268 -80 -325 -35 -55 -236
-256 -290 -291 -59 -37 -130 -55 -302 -77 -234 -30 -451 -23 -320 10 163 41
294 132 382 264 44 66 33 196 -16 196 -6 0 -36 -27 -66 -60 -41 -45 -64 -61
-91 -66 -62 -11 -107 -41 -193 -127 -88 -89 -126 -109 -231 -123 -43 -6 -283
9 -345 22 -29 6 -21 20 17 27 57 12 187 67 228 97 64 47 95 139 58 170 -12 10
-24 7 -63 -13 -33 -17 -77 -29 -135 -35 -69 -8 -105 -19 -184 -56 -166 -77
-203 -78 -568 -5 -313 62 -378 70 -645 76 -271 6 -379 -1 -568 -39 -57 -11
-105 -18 -108 -15 -3 3 2 20 11 38 23 43 16 123 -13 151 -28 28 -55 19 -120
-39 -49 -45 -53 -52 -66 -121 -17 -95 -34 -111 -164 -160 -56 -21 -105 -42
-108 -45 -4 -3 -3 -22 0 -41 l7 -35 52 5 c29 3 90 17 137 31 120 37 230 41
312 14 35 -12 88 -38 118 -58 30 -20 84 -56 120 -80 35 -24 88 -52 118 -63 69
-26 161 -27 193 -2 30 25 21 45 -33 71 -24 11 -72 46 -108 78 -63 55 -175 133
-191 133 -4 0 -20 5 -36 11 l-28 12 25 7 c43 13 251 11 350 -4 179 -27 260
-76 260 -156 0 -46 -22 -72 -59 -68 -34 4 -38 31 -6 46 32 15 34 56 4 73 -29
15 -85 3 -104 -24 -35 -50 -5 -156 51 -177 38 -15 101 -12 134 5 42 22 60 65
68 156 l7 80 105 -67 c252 -161 323 -241 389 -439 39 -118 48 -225 27 -325
-32 -150 -89 -255 -185 -341 -137 -123 -214 -153 -391 -153 -157 0 -254 33
-385 132 -145 110 -153 351 -15 422 41 21 181 30 150 10 -8 -5 -30 -10 -49
-10 -49 0 -120 -37 -142 -74 -52 -86 21 -216 121 -216 19 0 64 14 99 30 l63
30 -6 -27 c-27 -112 -16 -155 47 -193 72 -44 152 -10 192 82 11 24 19 44 20
45 0 1 27 -11 59 -27 73 -37 93 -37 142 -1 51 37 70 59 89 104 14 35 14 41 -1
73 -9 19 -36 48 -60 65 -24 16 -46 33 -49 39 -3 5 16 18 42 30 111 49 154 143
103 225 -39 62 -120 70 -209 20 -24 -14 -46 -24 -48 -22 -2 2 4 20 12 40 30
73 10 154 -48 192 -93 60 -197 -9 -197 -131 0 -28 -3 -53 -6 -57 -3 -3 -30 14
-60 38 -107 88 -206 85 -263 -9 -24 -39 -30 -101 -12 -134 16 -31 14 -38 -18
-52 -44 -18 -92 -69 -120 -130 -34 -74 -35 -191 -3 -264 30 -66 28 -88 -9
-115 -114 -85 -79 -211 59 -211 48 0 79 22 90 63 5 18 13 31 18 30 5 -1 52
-18 105 -37 229 -83 436 -71 617 36 80 47 230 199 269 273 56 107 67 163 68
335 0 169 -8 207 -76 361 -17 39 -29 72 -27 73 2 1 18 12 35 25 62 42 63 142
2 185 -30 21 -73 21 -95 -1 -16 -16 -14 -19 22 -49 21 -18 36 -36 32 -39 -15
-15 -97 23 -278 130 -107 63 -201 115 -207 115 -7 0 -13 4 -13 10 0 10 12 9
145 -17 85 -16 353 -101 406 -129 17 -8 51 -34 75 -56 l44 -41 0 -133 c0 -78
5 -144 12 -161 6 -15 12 -53 12 -83 1 -51 3 -55 27 -58 64 -7 117 82 127 215
l7 88 34 -45 c56 -75 74 -126 75 -211 1 -96 -11 -119 -84 -158 -77 -41 -107
-73 -127 -138 -18 -57 -83 -143 -109 -143 -19 0 -18 -26 2 -34 71 -27 214 30
275 111 50 66 95 158 119 244 11 39 22 74 25 78 10 9 24 -19 50 -102 57 -178
16 -325 -108 -389 -21 -10 -79 -28 -129 -39 -103 -22 -158 -47 -206 -93 -68
-63 -81 -132 -36 -185 33 -39 61 -39 93 -1 21 24 38 33 83 40 112 18 190 72
254 179 49 81 110 151 131 151 8 0 13 -14 13 -38 0 -56 36 -189 64 -236 32
-54 82 -101 128 -120 61 -26 142 -31 191 -12 49 18 103 68 93 85 -4 6 -37 11
-75 11 -80 0 -87 5 -101 80 -6 29 -15 60 -22 69 -31 42 -77 85 -121 113 -55
35 -83 82 -98 165 -15 81 -76 256 -117 338 -19 39 -57 103 -85 142 -28 40 -48
76 -45 79 11 10 129 -116 207 -220 41 -54 106 -135 144 -180 95 -112 104 -132
89 -204 -18 -86 -16 -112 7 -112 23 0 52 39 72 92 7 21 16 38 21 38 10 0 109
-58 129 -76 12 -11 15 -27 11 -63 -5 -58 16 -97 65 -117 18 -8 33 -16 33 -19
0 -2 -12 -21 -26 -42 -21 -32 -25 -46 -21 -86 6 -68 32 -92 97 -91 35 0 60 8
89 27 22 15 44 27 49 27 4 0 22 -20 40 -45 36 -51 62 -61 120 -46 62 17 85 41
91 96 6 43 9 48 41 59 50 16 83 69 75 121 -8 55 -39 85 -87 85 -43 0 -47 10
-18 50 32 46 35 80 8 120 -48 71 -148 59 -194 -23 l-21 -39 -7 35 c-9 50 -41
85 -83 93 -48 9 -100 -16 -109 -53 -13 -57 -44 -60 -122 -11 l-33 20 36 39
c38 43 43 60 20 79 -12 10 -23 9 -55 -4 -22 -9 -50 -16 -63 -16 -38 1 -105 37
-158 87 -56 52 -263 302 -257 309 3 2 52 -21 109 -50 239 -125 590 -235 894
-281 227 -34 357 -77 435 -143 l35 -30 3 -98 c3 -104 16 -146 58 -197 40 -48
33 -76 -35 -126 -18 -13 -22 -23 -17 -39 6 -18 15 -22 46 -22 49 0 137 39 170
74 23 26 25 35 25 124 0 85 -4 105 -28 156 -15 32 -40 74 -57 92 -26 30 -38
54 -27 54 13 0 121 -41 157 -60 67 -34 160 -136 223 -242 99 -168 227 -262
358 -263 75 0 109 19 109 62 0 26 -31 43 -82 43 -58 0 -115 51 -198 175 -18
28 -47 65 -63 82 -17 18 -27 36 -23 40 4 5 44 8 89 8 l82 0 0 82 c0 45 3 85 8
89 4 4 22 -6 40 -23 17 -16 55 -45 82 -63 124 -83 175 -140 175 -198 0 -51 17
-82 43 -82 68 0 85 125 33 233 -41 84 -124 169 -225 229 -104 61 -178 122
-224 186 -34 46 -93 190 -82 200 3 3 18 -4 33 -16 98 -79 185 -108 296 -99 82
7 107 26 142 105 31 69 32 128 2 138 -16 5 -26 1 -39 -17 -50 -68 -78 -75
-126 -35 -51 42 -93 55 -197 58 l-98 3 -30 35 c-66 78 -109 208 -143 435 -46
304 -156 655 -281 894 -29 57 -52 106 -50 109 7 6 257 -201 309 -257 50 -53
86 -120 87 -158 0 -13 -7 -41 -16 -63 -13 -32 -14 -43 -4 -55 19 -23 36 -18
79 21 l40 35 26 -45 c36 -61 31 -97 -13 -108 -25 -7 -37 -18 -49 -45 -29 -71
6 -134 84 -149 l35 -7 -39 -21 c-82 -46 -94 -146 -23 -194 40 -27 74 -24 120
8 40 29 50 25 50 -18 0 -48 30 -79 85 -87 52 -8 105 25 121 75 11 32 16 35 59
41 55 6 79 29 96 91 15 58 5 84 -46 120 -25 18 -45 36 -45 40 0 5 12 27 27 49
19 29 27 54 27 89 1 65 -23 91 -91 97 -40 4 -54 0 -86 -21 -21 -14 -40 -26
-42 -26 -3 0 -11 15 -19 33 -20 49 -59 71 -116 64 -38 -5 -51 -2 -62 11 -20
23 -78 120 -78 130 0 4 17 14 38 21 53 20 92 49 92 72 0 23 -26 25 -112 7 -72
-15 -92 -6 -204 89 -45 38 -126 103 -180 144 -104 78 -230 196 -220 207 3 3
39 -17 79 -45 39 -28 104 -66 142 -85 80 -40 251 -100 340 -118 87 -18 128
-42 163 -97 28 -44 71 -90 113 -121 9 -7 40 -16 69 -22 75 -14 80 -21 80 -101
0 -38 5 -71 11 -75 17 -10 67 44 85 93 19 49 14 130 -12 191 -19 46 -66 96
-120 128 -47 28 -180 64 -236 64 -24 0 -38 5 -38 13 0 21 70 82 151 131 107
64 161 142 179 254 8 47 16 63 44 87 39 34 37 57 -10 94 -50 39 -120 24 -180
-41 -46 -48 -71 -103 -93 -206 -31 -142 -69 -200 -161 -241 -51 -23 -158 -28
-225 -10 -62 16 -145 50 -145 60 0 4 19 13 43 19 115 30 203 70 280 129 81 61
138 204 111 275 -8 20 -34 21 -34 2 0 -26 -86 -91 -143 -109 -65 -20 -97 -50
-138 -127 -39 -73 -62 -85 -158 -84 -85 1 -136 19 -211 75 l-45 34 88 7 c97 7
164 33 197 75 41 52 16 99 -43 82 -21 -6 -44 -4 -74 6 -30 10 -85 15 -172 15
l-128 0 -41 44 c-22 24 -48 58 -56 75 -28 53 -113 321 -129 406 -26 133 -27
145 -17 145 6 0 10 -6 10 -12 0 -7 52 -101 115 -208 108 -182 145 -263 130
-278 -4 -4 -19 8 -33 26 -29 35 -56 42 -66 16 -18 -48 6 -98 61 -120 48 -20
105 -4 134 39 13 17 24 33 25 35 1 2 34 -10 73 -27 152 -67 192 -76 361 -76
172 1 227 12 335 68 74 39 226 189 273 269 108 184 119 391 33 625 -21 56 -36
105 -33 108 3 3 14 5 24 5 34 0 68 45 68 90 0 51 -22 105 -48 119 -49 26 -119
1 -163 -58 -27 -37 -49 -39 -115 -9 -72 32 -191 30 -265 -4 -59 -27 -102 -66
-126 -113 -9 -16 -17 -31 -18 -33 -2 -2 -23 3 -48 12 -51 17 -88 11 -137 -24
-80 -57 -78 -152 5 -254 24 -30 41 -57 38 -60 -4 -3 -29 -6 -57 -6 -122 0
-191 -104 -131 -197 38 -58 119 -78 192 -48 20 8 38 14 40 12 2 -2 -8 -24 -22
-48 -50 -89 -42 -170 20 -209 82 -51 177 -7 224 103 12 27 25 46 31 42 5 -3
23 -25 39 -49 17 -24 46 -51 65 -60 32 -15 38 -15 73 -1 45 19 67 38 104 89
36 49 36 69 -1 142 -16 32 -28 59 -27 59 1 1 21 9 45 20 92 40 126 120 82 192
-38 63 -81 74 -193 47 l-27 -6 30 63 c35 75 38 121 10 167 -23 37 -88 71 -135
72 -67 0 -135 -81 -135 -161 0 -19 -5 -41 -10 -49 -20 -31 -11 109 10 150 71
138 312 130 422 -15 99 -130 132 -227 132 -385 0 -145 -20 -219 -81 -302 -123
-166 -225 -234 -413 -274 -100 -21 -207 -12 -325 27 -198 66 -280 139 -439
389 l-67 105 80 7 c91 8 134 26 156 68 17 33 20 96 5 134 -21 56 -127 86 -177
51 -27 -19 -39 -75 -24 -104 17 -30 58 -28 73 4 15 32 42 28 46 -6 7 -60 -80
-81 -136 -34 -38 32 -77 141 -92 254 -12 98 -12 307 0 336 7 19 9 18 19 -8 6
-16 11 -32 11 -36 0 -16 78 -128 133 -191 32 -36 67 -84 78 -108 27 -54 46
-63 72 -31 16 19 18 36 15 94 -4 83 -38 162 -118 271 -28 38 -65 98 -83 134
-30 61 -32 72 -32 170 0 85 5 121 27 190 14 47 29 108 31 136 5 47 4 53 -16
58 -42 11 -57 6 -67 -21z m16 -165 c-44 -131 -51 -185 -36 -268 15 -86 50
-160 114 -245 30 -38 63 -88 74 -110 38 -76 65 -195 45 -195 -5 0 -21 19 -36
43 -15 23 -55 74 -89 112 -93 109 -137 212 -139 329 -1 34 -4 72 -8 86 -6 23
-8 21 -19 -20 -16 -67 -32 -172 -42 -289 -7 -78 -14 -106 -26 -116 -16 -11
-17 -32 -10 -221 11 -340 30 -473 93 -664 53 -161 151 -323 214 -356 32 -16
115 -18 178 -3 33 7 56 6 96 -6 29 -8 67 -15 85 -15 39 0 38 -23 -2 -53 -22
-16 -47 -22 -115 -25 -86 -4 -117 2 -215 43 -78 32 111 -157 203 -203 149 -75
288 -44 354 79 42 79 50 86 111 104 33 9 71 30 94 52 39 34 40 34 40 12 0 -42
-46 -124 -89 -161 -88 -75 -225 -131 -349 -143 -48 -5 -72 -11 -69 -19 5 -16
102 -73 167 -97 121 -45 240 -49 308 -8 53 31 131 99 151 133 11 17 27 60 36
95 28 110 56 173 98 218 65 71 109 52 76 -34 -6 -15 -19 -62 -30 -103 -25 -96
-70 -164 -128 -192 -24 -12 -58 -33 -75 -48 -65 -56 -146 -112 -173 -119 -35
-10 -34 -11 137 -50 164 -39 244 -75 290 -133 41 -51 71 -132 60 -162 -11 -31
-34 -26 -40 9 -4 23 -13 32 -45 43 -22 8 -59 21 -83 29 -35 12 -54 30 -96 87
-85 114 -79 110 -280 156 -73 17 -160 40 -191 51 -69 24 -171 74 -180 89 -3 5
-31 26 -63 47 -98 66 -282 257 -344 357 -49 80 -78 114 -78 89 0 -21 110 -198
186 -300 120 -159 157 -195 405 -395 37 -29 112 -90 168 -135 100 -81 103 -83
156 -83 30 0 55 -4 55 -10 0 -5 -20 -10 -44 -10 -25 0 -47 -4 -51 -9 -3 -6 13
-34 35 -63 52 -69 87 -135 76 -145 -5 -4 -11 -3 -13 3 -9 25 -69 117 -76 118
-5 1 -15 -16 -22 -38 -8 -21 -19 -44 -26 -50 -9 -8 -10 -6 -4 9 32 80 0 158
-103 256 -82 78 -335 287 -392 325 -50 33 -60 26 -27 -18 32 -42 139 -251 200
-390 64 -148 129 -377 171 -613 72 -394 90 -449 181 -534 68 -63 72 -65 192
-76 39 -4 88 -18 128 -37 64 -30 102 -33 148 -13 28 12 20 -14 -16 -50 -45
-45 -105 -61 -177 -46 -117 24 -232 100 -300 200 -31 45 -50 62 -50 46 0 -16
71 -187 125 -300 74 -156 112 -199 249 -279 109 -65 178 -129 218 -202 30 -55
52 -158 39 -181 -6 -12 -10 -6 -15 23 -16 81 -57 128 -181 210 -95 63 -134 96
-174 147 -16 21 -33 38 -36 38 -4 -1 -7 -55 -6 -122 l2 -121 -125 4 c-70 2
-126 0 -126 -3 0 -3 20 -20 43 -38 52 -39 110 -106 154 -179 65 -108 131 -165
205 -177 31 -6 37 -10 26 -16 -24 -13 -126 9 -182 39 -75 41 -136 106 -200
216 -82 139 -124 177 -281 251 -113 54 -284 125 -300 125 -16 0 1 -19 46 -50
100 -68 176 -183 200 -300 15 -72 -1 -132 -46 -177 -36 -36 -62 -44 -50 -15
20 45 16 82 -14 149 -22 49 -34 92 -40 155 -9 96 -19 116 -99 190 -70 66 -154
91 -557 163 -191 35 -426 103 -563 162 -135 59 -320 153 -379 193 -95 64 -62
11 146 -238 81 -97 167 -194 191 -216 75 -68 147 -88 215 -61 15 6 17 5 9 -4
-6 -7 -27 -18 -46 -24 -18 -7 -36 -16 -38 -22 -3 -9 81 -66 114 -78 6 -2 7 -8
3 -13 -10 -11 -87 30 -149 79 -27 21 -53 35 -58 32 -6 -3 -10 -26 -10 -51 0
-24 -4 -44 -10 -44 -5 0 -10 25 -10 55 0 54 0 55 -102 180 -57 69 -128 157
-158 194 -139 174 -162 200 -217 247 -131 113 -399 294 -436 294 -25 0 8 -29
89 -79 101 -62 292 -246 357 -343 21 -31 42 -60 47 -63 15 -9 65 -111 89 -180
11 -31 34 -118 51 -191 46 -201 42 -195 156 -280 57 -42 75 -61 87 -96 8 -24
21 -61 29 -83 11 -32 20 -41 43 -45 35 -6 40 -29 9 -40 -30 -11 -111 19 -162
60 -59 47 -96 128 -135 297 -32 136 -47 181 -47 136 0 -20 -62 -112 -122 -181
-15 -18 -34 -47 -42 -65 -22 -54 -91 -105 -171 -128 -38 -11 -90 -26 -115 -34
-67 -22 -90 -20 -90 9 0 29 65 91 124 116 22 11 77 28 121 40 44 12 94 31 112
42 31 18 118 120 141 164 31 60 24 184 -17 294 -24 65 -81 162 -97 167 -8 3
-14 -21 -19 -69 -12 -123 -68 -261 -141 -347 -37 -42 -123 -91 -162 -91 -24 0
-24 1 11 40 22 23 43 61 52 94 18 61 25 69 104 111 123 66 154 205 79 354 -46
92 -235 281 -203 204 41 -99 47 -130 43 -216 -3 -68 -9 -93 -25 -115 -30 -40
-53 -41 -53 -2 0 18 -7 56 -15 85 -12 40 -13 63 -6 96 15 63 13 146 -3 178 -8
15 -40 46 -70 69 -181 137 -432 210 -791 232 -256 15 -372 13 -383 -5 -6 -11
-37 -18 -116 -25 -121 -11 -150 -15 -256 -38 -61 -13 -70 -17 -50 -23 14 -4
53 -7 86 -8 121 -2 236 -55 365 -167 31 -27 72 -61 90 -76 l34 -27 -26 0 c-33
-1 -123 26 -172 51 -21 10 -73 45 -116 77 -90 67 -151 95 -241 111 -82 15
-137 8 -266 -36 -94 -31 -192 -46 -168 -26 5 5 38 19 74 32 96 34 178 77 195
104 9 13 20 52 26 87 12 68 27 92 71 115 43 22 68 18 68 -11 0 -34 -32 -96
-65 -126 -73 -66 -71 -63 -52 -67 10 -2 73 10 140 27 229 58 297 65 597 65
302 1 328 -2 665 -73 424 -90 452 -91 610 -12 81 41 123 55 173 61 37 4 89 13
116 19 27 7 51 9 54 7 19 -20 -86 -106 -168 -137 -51 -19 -175 -39 -248 -39
-26 0 -53 -4 -60 -9 -19 -12 18 -25 183 -63 126 -29 156 -32 300 -32 192 -1
219 8 323 107 82 78 110 97 187 127 33 14 79 42 103 63 38 35 42 37 42 18 0
-38 -61 -143 -112 -193 -54 -53 -178 -117 -268 -139 -34 -9 -114 -14 -212 -14
-86 0 -154 -3 -150 -7 12 -12 117 -36 259 -59 119 -19 162 -21 308 -16 230 8
355 32 443 83 63 37 254 224 302 297 64 95 88 212 97 462 5 146 3 189 -16 308
-23 142 -47 247 -59 259 -4 4 -7 -64 -7 -150 0 -98 -5 -178 -14 -212 -22 -90
-86 -214 -139 -268 -50 -51 -155 -112 -193 -112 -19 0 -17 4 18 43 21 23 49
69 63 102 30 77 49 105 127 187 99 104 108 131 107 323 0 144 -3 174 -32 300
-38 165 -51 202 -63 183 -5 -7 -9 -34 -9 -60 0 -73 -20 -197 -39 -248 -31 -82
-117 -187 -137 -168 -2 3 0 27 6 54 6 27 15 79 20 116 6 50 21 94 61 174 79
157 78 200 -16 634 -66 302 -70 340 -70 640 1 302 13 405 74 633 29 107 28
135 -6 98 -10 -10 -29 -31 -42 -46 -30 -33 -92 -65 -126 -65 -29 0 -33 25 -11
68 23 44 47 59 115 71 35 6 74 17 87 26 27 17 65 87 101 185 36 97 37 99 41
59 2 -23 -10 -76 -32 -141z m1338 -589 c26 -30 31 -53 20 -83 -10 -27 -24 -7
-24 34 0 35 -3 40 -27 46 -21 6 -31 2 -50 -21 -30 -35 -26 -74 23 -192 62
-152 77 -229 72 -382 -3 -129 -5 -139 -36 -201 -45 -91 -78 -134 -175 -227
-127 -122 -236 -171 -402 -180 -83 -5 -116 -2 -190 17 -115 28 -203 63 -284
112 -34 21 -65 38 -67 38 -3 0 0 -9 6 -19 17 -33 11 -71 -15 -96 -24 -25 -75
-35 -75 -15 0 6 11 10 24 10 35 0 49 24 43 71 -4 27 -35 88 -100 192 -154 246
-177 299 -206 476 -29 169 -31 263 -4 136 21 -100 69 -210 105 -240 24 -21 40
-25 90 -25 53 0 63 3 89 29 33 34 38 74 13 110 -15 21 -22 23 -65 18 -27 -3
-49 -4 -49 -2 0 3 13 11 28 19 26 13 32 13 59 -4 60 -36 75 -77 48 -129 -32
-64 -167 -82 -231 -32 -39 31 -43 11 -14 -66 52 -140 112 -234 225 -352 87
-91 129 -120 236 -165 214 -88 425 -85 599 10 55 30 207 172 231 215 8 15 26
44 41 65 32 45 68 176 68 243 0 243 -132 483 -292 534 -141 44 -284 1 -333
-102 -21 -43 -41 -56 -30 -18 35 114 122 162 279 155 77 -3 99 -8 137 -30 24
-14 53 -35 63 -47 28 -30 34 -27 42 26 8 53 48 103 82 103 11 0 32 -14 46 -31z
m-29 -40 c11 -16 -4 -59 -20 -59 -10 0 -15 10 -15 28 0 39 20 56 35 31z m-349
-133 c44 -44 43 -70 -2 -157 -45 -85 -113 -152 -152 -147 l-27 3 2 102 c1 57
7 121 13 144 25 93 103 118 166 55z m-365 -22 c60 -31 138 -203 126 -279 -5
-32 -4 -33 35 -38 49 -7 78 -32 78 -69 0 -55 -61 -86 -104 -53 -30 23 -52 18
-128 -27 -56 -33 -83 -43 -129 -46 -51 -4 -60 -2 -83 21 -36 36 -36 94 0 128
24 22 33 24 139 24 62 0 116 3 120 6 3 4 -24 33 -61 65 -136 119 -160 210 -71
264 39 24 40 24 78 4z m564 -254 c22 -42 19 -85 -9 -117 -23 -26 -29 -28 -98
-28 -113 1 -196 33 -182 70 14 35 166 104 231 105 37 0 44 -4 58 -30z m-211
-199 c59 -34 111 -83 132 -123 14 -26 13 -32 -7 -68 -15 -26 -37 -47 -65 -61
-39 -18 -45 -19 -72 -5 -36 19 -102 139 -102 187 0 37 32 99 51 99 6 0 35 -13
63 -29z m-202 -35 l35 -15 -13 -80 c-20 -123 -51 -168 -122 -178 -54 -7 -82
22 -82 88 0 48 26 94 98 172 30 31 37 32 84 13z m359 -1695 c22 -18 24 -26 22
-105 -2 -126 -15 -134 -70 -45 -65 104 -68 115 -38 145 29 29 55 31 86 5z
m229 -51 c12 -12 20 -33 20 -54 0 -28 -8 -41 -42 -70 -58 -50 -128 -61 -128
-20 0 22 45 106 73 137 31 32 50 34 77 7z m-362 -86 c26 -18 82 -91 82 -107 0
-5 -27 -8 -64 -5 -74 4 -106 25 -106 69 0 52 44 74 88 43z m196 -120 c9 -3 16
-16 16 -28 0 -47 -53 -63 -72 -22 -20 44 8 69 56 50z m188 -40 c35 -18 50 -47
42 -81 -16 -65 -55 -70 -114 -17 -45 41 -57 72 -40 103 9 18 17 21 48 15 20
-4 49 -13 64 -20z m-283 -38 c17 -20 0 -56 -48 -99 -45 -40 -74 -46 -103 -20
-37 33 -17 86 45 114 50 22 90 24 106 5z m128 -75 c29 -44 31 -110 4 -135 -41
-37 -81 3 -81 81 0 94 34 118 77 54z m-3862 -137 c191 -29 253 -55 502 -211
104 -65 165 -96 192 -100 47 -6 71 8 71 43 0 13 5 24 10 24 20 0 10 -51 -15
-75 -25 -26 -63 -32 -96 -15 -24 14 -24 5 1 -30 40 -56 100 -197 125 -294 61
-239 10 -438 -158 -613 -93 -97 -136 -130 -227 -175 -62 -31 -72 -33 -201 -36
-153 -5 -230 10 -382 72 -118 49 -157 53 -192 23 -23 -19 -27 -29 -21 -50 6
-24 11 -27 46 -27 21 0 41 -4 44 -9 7 -10 -16 -21 -44 -21 -26 0 -80 48 -80
72 0 34 50 74 103 82 53 8 56 14 26 42 -12 10 -33 39 -47 63 -22 38 -27 60
-30 137 -7 158 41 244 156 279 37 11 24 -9 -19 -30 -103 -49 -146 -192 -102
-333 51 -160 286 -290 529 -292 71 0 201 35 248 68 21 15 50 33 65 41 43 24
185 176 215 231 69 126 92 295 61 436 -21 94 -66 213 -102 269 -38 59 -148
170 -223 225 -98 73 -277 156 -316 148 -14 -3 -13 -7 5 -29 44 -57 43 -163 -4
-213 -48 -52 -107 -44 -152 23 -28 41 -28 40 -3 71 l19 25 -6 -51 c-5 -46 -3
-53 18 -68 36 -25 76 -20 110 13 26 26 29 36 29 89 0 50 -4 66 -25 90 -30 36
-145 86 -238 104 -36 7 -64 15 -62 18 5 8 30 5 170 -16z m292 -520 c23 -23 25
-32 21 -83 -3 -46 -13 -73 -46 -129 -45 -76 -50 -98 -27 -128 33 -43 2 -104
-53 -104 -37 0 -62 29 -69 78 -5 39 -6 40 -38 35 -77 -12 -248 66 -280 127
-20 38 -8 79 33 110 57 45 136 10 236 -104 32 -37 61 -64 65 -61 3 4 6 58 6
120 0 106 2 115 24 139 34 36 92 36 128 0z m252 -195 c19 -18 22 -29 18 -61
-10 -71 -56 -103 -179 -123 l-79 -12 -14 35 c-20 47 -19 54 13 84 77 72 123
98 171 98 34 0 53 -6 70 -21z m-461 -221 c5 -39 -62 -107 -147 -152 -84 -44
-110 -45 -156 -5 -28 25 -35 38 -35 68 0 20 7 46 15 58 26 37 134 62 255 59
63 -1 65 -2 68 -28z m344 -65 c45 -23 74 -46 84 -65 14 -27 13 -33 -5 -72 -14
-28 -35 -50 -61 -65 -37 -20 -41 -21 -69 -6 -44 22 -92 76 -126 140 l-30 56
30 25 c44 35 92 32 177 -13z m-253 -31 c72 -184 7 -322 -121 -256 -29 15 -30
18 -26 68 2 29 18 81 35 118 50 107 88 130 112 70z m2037 -3 c20 -22 34 -149
17 -149 -16 0 -89 56 -107 82 -9 12 -16 30 -16 40 0 46 72 65 106 27z m226
-16 c28 -25 22 -59 -19 -104 -42 -47 -70 -61 -95 -47 -23 11 -23 52 1 104 28
62 75 82 113 47z m-303 -136 c89 -55 81 -68 -45 -70 -79 -2 -87 0 -105 22 -26
31 -24 57 5 86 30 30 41 27 145 -38z m162 -57 c37 -20 17 -70 -28 -70 -16 0
-24 7 -29 25 -12 49 13 68 57 45z m219 -23 c56 -28 26 -87 -45 -87 -76 0 -147
68 -93 89 34 14 109 13 138 -2z m-315 -58 c14 -21 -6 -77 -41 -117 -29 -34
-42 -42 -70 -42 -36 0 -74 28 -74 55 0 21 45 62 100 91 50 25 75 30 85 13z
m171 -83 c63 -62 59 -104 -9 -120 -50 -12 -86 26 -101 106 -5 29 -3 39 11 47
33 19 55 11 99 -33z m-2666 -11 c0 -18 -48 -31 -62 -17 -16 16 0 32 33 32 19
0 29 -5 29 -15z"/>
<path d="M11350 3139 c0 -8 16 -58 35 -112 19 -54 60 -192 90 -305 97 -361 85
-335 214 -475 72 -79 81 -94 87 -137 4 -29 14 -56 25 -66 44 -40 1 -47 -55 -9
-54 37 -82 72 -122 153 -19 40 -40 70 -45 67 -15 -10 -11 -336 5 -382 7 -21
46 -88 85 -147 43 -66 77 -130 87 -164 29 -104 34 -119 55 -141 12 -12 19 -25
16 -28 -11 -11 -77 39 -125 95 -64 74 -99 144 -127 256 -21 85 -45 125 -45 76
0 -36 -58 -198 -105 -297 -39 -80 -51 -96 -90 -118 -63 -38 -197 -93 -285
-118 -42 -12 -75 -26 -75 -32 0 -5 39 -19 86 -31 142 -36 258 -109 324 -204
32 -46 28 -63 -7 -31 -12 12 -47 29 -78 37 -109 30 -122 37 -227 106 -59 39
-125 77 -146 84 -47 17 -372 20 -382 4 -3 -5 22 -22 57 -38 77 -36 136 -82
165 -130 36 -58 28 -96 -11 -53 -10 11 -37 21 -66 25 -43 6 -58 15 -142 92
-113 104 -156 127 -307 164 -158 39 -415 114 -496 145 -116 43 -124 24 -16
-37 31 -17 81 -48 111 -68 30 -20 75 -49 100 -65 25 -16 61 -38 80 -51 307
-193 703 -345 987 -376 123 -14 399 2 538 31 107 22 281 79 300 97 18 18 82
221 100 317 23 119 38 350 31 467 -16 288 -169 705 -380 1040 -13 19 -35 55
-51 80 -16 25 -45 70 -65 100 -20 30 -51 80 -68 111 -35 62 -62 91 -62 68z
m204 -346 c135 -206 288 -535 326 -699 12 -49 28 -118 37 -154 14 -52 17 -115
17 -315 1 -278 -10 -351 -77 -551 l-33 -98 -98 -33 c-198 -67 -273 -77 -551
-77 -200 0 -263 3 -315 17 -36 9 -105 25 -154 37 -108 25 -285 98 -466 192
-149 77 -341 199 -324 205 6 2 92 -17 190 -42 301 -77 277 -67 379 -165 96
-93 126 -112 198 -131 26 -6 52 -17 58 -25 16 -19 65 -18 73 2 14 36 5 82 -22
120 -33 45 -97 104 -115 105 -7 0 2 5 18 10 32 10 136 3 199 -13 21 -5 88 -43
147 -83 73 -50 128 -80 166 -90 32 -9 75 -20 97 -26 21 -6 48 -21 61 -35 26
-28 42 -30 67 -7 39 35 16 95 -65 169 -65 59 -151 112 -221 135 -28 10 -44 20
-36 22 8 3 33 10 55 16 23 6 87 33 143 61 l102 50 50 102 c28 56 55 120 61
143 6 22 13 47 16 55 2 8 12 -8 22 -36 23 -70 76 -156 135 -221 73 -81 128
-102 168 -66 24 22 23 41 -6 68 -14 13 -29 40 -35 61 -6 22 -17 65 -26 97 -10
38 -40 93 -90 166 -40 59 -78 126 -83 147 -16 63 -23 167 -13 199 5 17 10 25
10 18 1 -18 60 -82 105 -115 38 -27 84 -36 120 -22 20 8 21 57 2 73 -8 6 -19
32 -25 58 -19 72 -38 102 -131 198 -98 102 -88 78 -165 378 -46 179 -49 197
-40 197 3 0 34 -44 69 -97z"/>
<path d="M12007 1554 c-3 -16 -9 -60 -12 -99 -3 -38 -13 -118 -21 -176 -21
-147 -8 -322 30 -404 30 -65 29 -65 16 -65 -23 0 -60 101 -69 185 -5 47 -11
89 -15 92 -3 3 -13 -11 -21 -33 -50 -126 -39 -115 -179 -173 -16 -6 -26 -14
-23 -18 3 -3 45 -9 92 -14 84 -9 185 -46 185 -69 0 -13 0 -14 -64 16 -85 39
-252 51 -406 30 -63 -8 -142 -18 -175 -21 -136 -13 -159 -27 -68 -39 146 -20
343 -80 513 -156 96 -43 195 -84 220 -93 86 -28 196 -48 255 -45 l60 3 3 60
c4 71 -28 219 -68 314 -15 36 -54 127 -87 201 -58 129 -106 290 -133 440 -15
83 -26 104 -33 64z m42 -229 c21 -92 59 -200 127 -359 80 -185 113 -297 117
-390 l2 -71 -71 2 c-93 4 -205 37 -390 117 -161 69 -226 92 -341 122 -40 10
-73 21 -73 25 0 19 310 35 400 20 40 -6 97 -26 148 -53 86 -44 101 -44 126 -5
8 12 0 35 -32 99 -27 51 -47 108 -53 148 -15 92 1 400 21 400 4 0 12 -25 19
-55z m-107 -431 l24 -60 -60 24 c-75 30 -74 29 -43 43 13 6 30 23 36 36 14 31
13 32 43 -43z"/>
<path d="M5785 1835 c-3 -8 -7 -22 -10 -30 -2 -8 -25 -24 -50 -36 -59 -28 -75
-52 -75 -112 0 -65 -21 -84 -145 -132 -55 -21 -124 -49 -153 -63 -49 -22 -53
-26 -47 -51 4 -14 8 -27 9 -29 2 -1 34 -3 72 -5 59 -2 77 2 123 26 73 39 190
67 277 67 98 0 191 -33 324 -114 273 -167 307 -167 579 0 138 84 222 114 322
114 90 0 205 -27 280 -67 46 -24 64 -28 123 -26 38 2 70 4 72 5 1 2 5 15 9 29
6 25 2 29 -47 51 -29 14 -98 42 -153 63 -124 48 -145 67 -145 133 0 59 -13 78
-76 112 -29 15 -50 34 -52 45 -2 11 -7 24 -12 28 -14 15 -67 -21 -84 -57 -19
-40 -20 -60 -5 -88 23 -43 0 -43 -238 -3 -125 21 -253 38 -283 38 -30 0 -158
-17 -283 -38 -238 -40 -261 -40 -238 3 6 11 11 28 11 37 0 32 -33 86 -61 100
-35 19 -39 19 -44 0z m51 -80 c9 -38 -3 -71 -43 -116 -20 -22 -34 -42 -31 -44
2 -3 94 13 204 34 323 64 412 72 552 54 64 -8 207 -32 316 -54 110 -21 202
-37 205 -34 2 3 -9 20 -26 38 -51 53 -66 101 -44 136 8 12 14 10 39 -10 16
-13 43 -31 60 -40 24 -14 31 -26 37 -60 15 -102 30 -116 195 -174 58 -21 119
-45 135 -54 l30 -16 -27 -3 c-15 -2 -74 13 -130 33 -176 63 -203 68 -313 62
-133 -7 -180 -24 -316 -108 -250 -158 -308 -158 -558 0 -136 84 -183 101 -316
108 -110 6 -137 1 -313 -62 -56 -20 -115 -35 -130 -33 l-27 3 30 16 c17 9 77
33 135 54 165 58 180 72 195 174 6 34 13 46 37 60 17 9 42 26 57 38 33 29 39
28 47 -2z"/>
<path d="M6340 1664 c-64 -12 -73 -15 -62 -26 6 -6 56 -10 120 -10 110 0 148
7 121 23 -18 9 -146 19 -179 13z"/>
<path d="M6025 1594 c-87 -11 -166 -27 -170 -34 -3 -4 41 -10 98 -12 95 -3
107 -6 172 -41 39 -20 113 -71 165 -112 52 -41 102 -75 110 -75 8 0 58 34 110
75 52 41 127 92 165 112 64 34 79 38 175 43 107 6 111 10 30 31 -43 11 -784
22 -855 13z m618 -30 c33 -7 35 -17 5 -31 -13 -6 -72 -47 -131 -92 -60 -44
-112 -81 -117 -81 -5 0 -57 37 -117 81 -59 45 -118 86 -130 92 -27 12 -29 24
-5 30 26 6 463 7 495 1z"/>
</g>
</svg>
