<?xml version="1.0" standalone="no"?>
<!DOCTYPE svg PUBLIC "-//W3C//DTD SVG 20010904//EN"
 "http://www.w3.org/TR/2001/REC-SVG-20010904/DTD/svg10.dtd">
<svg version="1.0" xmlns="http://www.w3.org/2000/svg"
 width="1280.000000pt" height="1280.000000pt" viewBox="0 0 1280.000000 1280.000000"
 preserveAspectRatio="xMidYMid meet">
<metadata>
Created by potrace 1.15, written by Peter Selinger 2001-2017
</metadata>
<g transform="translate(0.000000,1280.000000) scale(0.100000,-0.100000)"
fill="#000000" stroke="none">
<path d="M6296 12706 c-127 -126 -240 -304 -262 -415 -4 -17 -10 -34 -15 -36
-4 -3 -28 8 -52 25 -122 82 -304 132 -477 132 -144 0 -226 -18 -350 -79 -79
-38 -108 -59 -180 -132 -140 -141 -196 -280 -187 -471 5 -131 31 -215 96 -312
l49 -72 -37 -26 c-20 -14 -66 -47 -102 -73 l-66 -46 -128 89 c-334 234 -534
320 -743 320 -244 0 -426 -115 -492 -311 -31 -90 -25 -219 12 -301 52 -113
163 -206 305 -254 105 -37 250 -39 367 -6 43 13 90 29 104 36 l25 13 -27 18
c-26 17 -29 17 -99 -4 -90 -29 -235 -38 -308 -21 -138 32 -245 116 -302 237
-29 62 -32 76 -32 168 0 87 3 106 25 148 51 100 136 148 274 155 158 8 306
-32 516 -139 102 -52 295 -170 358 -219 l22 -18 -132 -85 c-191 -123 -177
-111 -146 -131 26 -17 27 -17 125 44 54 34 119 77 146 96 26 19 51 34 56 34 6
0 52 -27 103 -61 51 -33 143 -84 203 -114 199 -96 355 -137 530 -137 205 -1
349 54 476 181 101 101 132 164 137 281 5 105 -13 184 -68 296 -62 127 -185
234 -268 234 -52 0 -69 -43 -31 -81 18 -18 28 -20 65 -14 43 6 45 5 97 -47
135 -136 185 -357 115 -510 -71 -154 -226 -238 -441 -238 -163 0 -319 41 -505
132 -93 45 -282 161 -282 172 0 3 43 35 95 71 l95 66 62 -52 c202 -168 466
-183 572 -32 51 74 47 185 -11 254 -97 115 -308 100 -536 -39 -37 -23 -71 -42
-75 -42 -15 0 -50 73 -68 140 -21 78 -24 272 -5 340 81 292 364 468 714 447
117 -7 180 -23 273 -66 119 -56 114 -47 118 -218 3 -157 16 -214 71 -324 63
-123 152 -171 225 -119 67 48 68 160 1 295 -40 81 -164 258 -209 298 -18 17
-19 22 -7 65 18 70 39 114 84 181 50 73 208 231 231 231 23 0 167 -143 224
-222 49 -70 72 -116 91 -190 12 -43 11 -48 -7 -65 -45 -40 -169 -217 -209
-298 -67 -135 -66 -247 1 -295 140 -100 306 164 299 477 -2 111 -2 113 24 133
36 28 146 79 209 96 29 8 99 17 155 21 355 21 642 -162 714 -457 19 -77 16
-250 -5 -330 -18 -67 -53 -140 -68 -140 -4 0 -38 19 -75 42 -228 139 -439 154
-536 39 -58 -69 -62 -180 -11 -254 106 -151 370 -136 572 32 l62 52 97 -67 96
-67 -28 -23 c-54 -43 -234 -145 -327 -185 -144 -63 -254 -90 -393 -96 -143 -7
-208 5 -304 53 -206 103 -269 335 -153 567 21 42 58 94 89 125 52 52 54 53 97
47 37 -6 47 -4 65 14 38 38 21 81 -31 81 -87 0 -207 -108 -273 -245 -52 -107
-69 -187 -63 -294 6 -108 39 -174 137 -272 127 -127 271 -182 476 -181 175 0
331 41 530 137 61 30 152 81 203 114 51 34 97 61 103 61 5 0 30 -15 56 -34 27
-19 92 -61 146 -95 96 -61 97 -61 123 -44 32 20 46 7 -144 130 l-132 85 22 18
c63 49 256 167 358 219 210 107 358 147 516 139 105 -5 164 -28 221 -85 64
-64 78 -103 78 -218 0 -92 -3 -106 -32 -168 -57 -121 -164 -205 -302 -237 -73
-17 -218 -8 -308 21 -70 21 -73 21 -99 4 l-27 -18 25 -13 c14 -7 61 -23 104
-36 117 -33 262 -31 367 6 142 48 253 141 305 254 37 82 43 211 12 301 -66
196 -248 311 -492 311 -209 0 -409 -86 -743 -320 l-128 -89 -66 46 c-36 26
-82 59 -102 73 l-37 26 47 70 c66 98 93 185 99 314 8 191 -48 330 -188 471
-72 73 -101 94 -180 132 -127 62 -206 79 -355 79 -175 -1 -349 -49 -471 -132
-25 -17 -49 -28 -53 -25 -5 2 -11 19 -15 36 -22 111 -135 289 -262 415 -53 52
-99 94 -104 94 -5 0 -51 -42 -104 -94z m-125 -718 c72 -105 113 -197 117 -266
5 -71 -6 -92 -48 -92 -20 0 -38 12 -63 40 -77 85 -117 209 -117 361 l1 94 35
-40 c20 -22 54 -66 75 -97z m554 -111 c-34 -133 -110 -247 -164 -247 -15 0
-32 5 -39 12 -17 17 -15 111 4 160 25 65 102 190 158 261 l51 62 3 -93 c2 -61
-3 -115 -13 -155z m-1224 -413 c33 -17 56 -48 69 -95 29 -102 -77 -199 -218
-199 -55 0 -157 33 -217 71 -50 31 -115 87 -115 99 0 10 143 89 200 111 104
40 220 45 281 13z m1986 11 c72 -13 222 -78 277 -120 19 -15 19 -15 -5 -41
-65 -72 -222 -144 -311 -144 -141 0 -247 97 -218 199 19 66 50 96 115 112 45
11 57 10 142 -6z"/>
<path d="M2875 11329 c-208 -30 -405 -142 -498 -282 -190 -286 -65 -661 241
-726 140 -30 344 7 366 65 3 9 1 24 -5 35 -15 29 -70 22 -84 -9 -14 -31 -41
-37 -175 -37 -112 0 -117 1 -178 34 -170 93 -224 289 -132 478 96 194 412 317
776 300 l120 -6 12 67 c6 36 9 69 6 71 -19 19 -338 26 -449 10z"/>
<path d="M9533 11332 c-28 -4 -54 -10 -57 -13 -3 -2 0 -35 6 -71 l12 -67 120
6 c289 14 565 -65 698 -198 95 -95 140 -221 119 -336 -22 -114 -77 -192 -172
-243 -52 -27 -77 -34 -141 -38 -96 -6 -185 5 -201 24 -31 38 -40 44 -62 44
-27 0 -48 -30 -39 -54 22 -58 226 -95 366 -65 152 33 276 152 318 307 6 24 11
82 11 130 -1 209 -117 385 -322 486 -144 71 -222 87 -429 91 -96 2 -198 0
-227 -3z"/>
<path d="M3420 11274 c-6 -15 -10 -47 -8 -72 l3 -43 124 -41 c174 -56 447
-198 791 -409 349 -215 397 -243 536 -313 351 -176 666 -191 897 -42 133 85
227 223 251 366 4 24 1 43 -8 55 -24 32 -50 8 -57 -51 -11 -88 -86 -208 -167
-268 -105 -77 -238 -105 -409 -86 -236 25 -443 115 -843 368 -571 360 -737
450 -960 524 -128 43 -138 44 -150 12z"/>
<path d="M9285 11281 c-221 -65 -479 -201 -905 -475 -532 -341 -761 -438
-1045 -439 -104 0 -130 3 -192 25 -40 14 -95 42 -122 62 -84 62 -159 181 -170
270 -7 59 -33 83 -57 51 -39 -53 42 -242 148 -346 229 -224 589 -236 992 -33
139 70 188 99 536 313 343 211 617 353 791 409 l124 41 3 43 c3 51 -12 98 -30
97 -7 0 -40 -9 -73 -18z"/>
<path d="M2400 10595 c0 -2 5 -16 12 -30 l11 -25 960 0 959 0 19 23 c10 12 18
25 19 30 0 4 -445 7 -990 7 -545 0 -990 -2 -990 -5z"/>
<path d="M8420 10593 c1 -5 9 -18 19 -30 l19 -23 959 0 960 0 11 25 c7 14 12
28 12 30 0 3 -445 5 -990 5 -544 0 -990 -3 -990 -7z"/>
<path d="M1879 10487 c-197 -71 -333 -240 -394 -488 -28 -112 -32 -475 -6
-517 5 -8 24 -8 73 0 l67 12 -6 120 c-13 278 61 552 188 690 179 196 480 167
596 -56 23 -45 28 -69 31 -153 5 -121 -8 -177 -43 -193 -48 -22 -21 -105 29
-86 58 22 95 226 65 366 -27 127 -113 233 -237 291 -61 29 -77 32 -182 35
-101 2 -123 0 -181 -21z"/>
<path d="M10615 10496 c-193 -61 -305 -219 -305 -430 0 -161 52 -277 110 -246
32 17 20 90 -15 90 -24 0 -37 77 -33 185 3 91 7 106 38 164 91 169 287 223
477 131 194 -95 317 -412 300 -776 l-6 -120 67 -12 c49 -8 68 -8 73 0 13 21
22 202 16 328 -7 153 -32 255 -91 375 -75 151 -183 251 -325 301 -53 19 -86
23 -166 23 -55 0 -118 -6 -140 -13z"/>
<path d="M2200 9410 c0 -544 3 -990 8 -990 4 1 17 9 30 19 l22 19 0 959 0 960
-25 11 c-14 7 -28 12 -30 12 -3 0 -5 -445 -5 -990z"/>
<path d="M10563 10388 l-23 -11 0 -959 0 -960 23 -19 c12 -10 25 -18 30 -19 4
0 7 446 7 990 0 545 -3 990 -7 989 -5 0 -18 -5 -30 -11z"/>
<path d="M1496 9450 c-193 -69 -306 -251 -306 -492 0 -208 87 -410 320 -744
l89 -127 -46 -66 c-26 -36 -59 -82 -73 -102 l-26 -37 -72 49 c-98 65 -180 91
-313 97 -191 8 -333 -49 -474 -192 -93 -94 -153 -199 -186 -323 -31 -116 -29
-296 4 -423 28 -108 63 -191 107 -256 17 -25 28 -49 25 -53 -2 -5 -19 -11 -36
-15 -111 -22 -289 -135 -415 -262 -52 -53 -94 -99 -94 -104 0 -5 42 -51 94
-104 126 -127 304 -240 415 -262 17 -4 34 -10 36 -15 3 -4 -8 -28 -25 -53 -83
-122 -131 -296 -132 -471 0 -149 17 -228 79 -355 38 -79 59 -108 132 -180 141
-140 280 -196 471 -188 129 6 216 33 314 99 l70 47 26 -37 c14 -20 47 -66 73
-102 l46 -66 -89 -128 c-234 -334 -320 -534 -320 -743 0 -223 96 -394 268
-475 63 -30 74 -32 177 -32 98 0 116 3 167 27 114 53 206 164 254 305 46 132
36 319 -24 456 l-18 42 -19 -28 c-17 -27 -17 -30 5 -104 61 -207 26 -399 -97
-521 -75 -75 -165 -116 -266 -120 -43 -2 -98 1 -121 8 -67 19 -136 77 -171
144 -26 52 -30 71 -33 161 -6 160 34 304 145 518 71 137 223 371 234 360 4 -4
43 -64 88 -133 116 -181 104 -168 124 -136 17 26 17 27 -44 123 -34 54 -76
119 -95 146 -19 26 -34 51 -34 56 0 6 27 52 61 103 33 51 84 143 114 203 96
200 137 355 137 530 1 206 -54 349 -181 476 -98 98 -164 131 -272 137 -107 6
-187 -11 -294 -63 -137 -66 -245 -186 -245 -273 0 -52 43 -69 81 -31 18 18 20
28 14 65 -6 43 -5 45 47 97 136 135 357 185 510 115 270 -124 316 -507 113
-933 -42 -87 -143 -256 -170 -283 -10 -12 -24 2 -79 82 l-67 96 52 62 c168
202 183 466 32 572 -74 51 -185 47 -254 -11 -115 -97 -100 -308 39 -536 23
-37 42 -71 42 -75 0 -14 -73 -50 -135 -66 -274 -70 -543 23 -678 235 -147 232
-155 573 -20 797 l38 63 150 3 c124 2 161 7 215 25 169 59 250 128 250 211 0
111 -143 144 -300 69 -87 -42 -190 -111 -274 -183 -39 -34 -67 -50 -80 -48
-52 9 -132 44 -196 87 -79 53 -240 210 -240 235 0 25 160 182 238 234 73 48
100 61 174 81 43 12 48 11 65 -7 40 -45 217 -169 298 -209 135 -67 247 -66
295 1 52 74 4 162 -124 227 -105 53 -161 65 -321 69 l-150 3 -38 63 c-108 179
-127 440 -47 659 68 186 189 307 370 370 85 29 271 32 370 5 67 -18 140 -54
140 -68 0 -4 -19 -38 -42 -75 -139 -228 -154 -439 -39 -536 69 -58 180 -62
254 -11 151 106 136 370 -32 572 l-52 62 67 97 67 96 23 -28 c43 -54 145 -234
185 -327 63 -144 90 -254 96 -393 7 -143 -5 -208 -53 -304 -63 -127 -174 -201
-314 -209 -137 -8 -279 47 -378 145 -52 52 -53 54 -47 97 6 37 4 47 -14 65
-38 38 -81 21 -81 -31 0 -87 108 -207 245 -273 107 -52 187 -69 294 -63 108 6
174 39 272 137 127 127 182 270 181 476 0 175 -41 330 -137 530 -30 61 -81
152 -114 203 -34 51 -61 97 -61 103 0 5 15 30 34 56 19 27 61 92 95 146 61 96
61 97 44 123 -17 26 -17 26 -32 6 -9 -11 -54 -79 -99 -151 l-84 -131 -18 22
c-49 63 -167 256 -219 358 -109 213 -145 347 -139 504 6 150 51 233 155 286
42 22 61 25 148 25 92 0 106 -3 168 -32 117 -56 207 -167 236 -294 21 -90 13
-200 -25 -331 -16 -54 -16 -59 1 -85 l19 -28 18 42 c36 82 51 166 51 273 0 88
-4 118 -27 183 -48 142 -141 253 -254 305 -80 37 -220 42 -306 12z m1 -1702
c73 -77 133 -212 133 -300 0 -141 -97 -247 -199 -218 -84 24 -115 71 -115 175
1 91 30 187 90 293 26 45 50 82 54 82 3 0 20 -15 37 -32z m-568 -1024 c127
-32 241 -109 241 -164 0 -42 -21 -53 -92 -48 -91 6 -251 90 -363 191 l-40 36
94 1 c55 0 122 -7 160 -16z m229 -446 c25 -25 13 -64 -29 -103 -84 -76 -217
-117 -361 -113 l-93 3 62 51 c68 55 194 132 258 157 47 19 146 22 163 5z m379
-724 c55 -34 93 -117 93 -200 0 -62 -34 -162 -78 -230 -40 -61 -88 -111 -97
-102 -3 2 -25 40 -50 84 -101 176 -119 368 -41 433 47 39 125 46 173 15z"/>
<path d="M11045 9456 c-96 -30 -191 -108 -249 -205 -97 -159 -108 -391 -28
-574 l18 -42 19 28 c17 27 17 30 -4 100 -28 87 -38 233 -22 306 29 134 117
246 238 304 62 29 76 32 168 32 87 0 106 -3 148 -25 100 -51 148 -136 155
-274 8 -158 -32 -306 -139 -516 -52 -102 -170 -295 -219 -358 l-18 -22 -85
132 c-123 191 -111 177 -131 146 -17 -26 -17 -27 44 -125 34 -54 77 -119 96
-146 19 -26 34 -51 34 -56 0 -6 -27 -52 -61 -103 -33 -51 -84 -142 -114 -203
-98 -203 -137 -354 -137 -530 0 -206 54 -349 181 -476 98 -98 164 -131 272
-137 107 -6 187 11 294 63 137 66 245 186 245 273 0 52 -43 69 -81 31 -18 -18
-20 -28 -14 -65 6 -43 5 -45 -47 -98 -95 -95 -248 -152 -382 -144 -137 9 -247
84 -310 209 -48 96 -60 161 -53 304 6 139 33 249 96 393 40 93 142 273 185
327 l23 28 67 -96 67 -97 -52 -62 c-168 -202 -183 -466 -32 -572 74 -51 185
-47 254 11 115 97 100 308 -39 536 -23 37 -42 71 -42 75 0 5 17 18 38 29 107
61 335 77 467 34 182 -59 307 -182 375 -370 80 -219 61 -480 -47 -659 l-38
-63 -150 -3 c-160 -4 -216 -16 -321 -69 -128 -65 -176 -153 -124 -227 28 -39
69 -53 144 -48 103 6 250 87 415 227 35 30 61 45 75 43 51 -9 131 -44 194 -85
76 -51 242 -213 242 -237 0 -24 -165 -185 -241 -235 -70 -47 -98 -60 -169 -80
l-45 -12 -60 52 c-150 130 -311 217 -412 223 -74 5 -115 -9 -143 -48 -52 -73
-4 -162 119 -225 110 -55 167 -68 326 -71 l150 -3 38 -63 c134 -223 127 -567
-18 -793 -139 -218 -401 -309 -680 -239 -62 16 -135 52 -135 66 0 4 19 38 42
75 139 228 154 439 39 536 -69 58 -180 62 -254 11 -151 -106 -136 -370 32
-572 l52 -62 -67 -97 -67 -96 -23 28 c-43 54 -145 234 -185 327 -64 147 -90
254 -96 398 -8 182 24 290 114 390 88 98 238 142 374 110 91 -21 198 -78 257
-136 52 -53 53 -55 47 -98 -6 -37 -4 -47 14 -65 38 -38 81 -21 81 31 0 87
-108 207 -245 273 -107 52 -187 69 -294 63 -108 -6 -174 -39 -272 -137 -127
-127 -182 -271 -181 -476 0 -176 39 -328 137 -530 30 -60 81 -152 114 -203 34
-51 61 -97 61 -103 0 -5 -15 -30 -34 -56 -19 -27 -61 -92 -95 -146 -61 -96
-61 -97 -44 -123 20 -32 8 -45 124 136 45 69 84 129 88 133 11 12 165 -227
237 -368 110 -212 150 -361 142 -521 -5 -105 -28 -164 -85 -221 -64 -64 -103
-78 -218 -78 -92 0 -106 3 -168 32 -121 58 -209 170 -238 304 -16 73 -6 219
22 306 21 70 21 73 4 100 l-19 28 -18 -42 c-80 -183 -69 -415 28 -574 44 -74
131 -154 201 -187 52 -24 69 -27 168 -27 103 0 114 2 177 32 88 41 157 108
201 191 48 92 67 172 67 284 0 209 -86 409 -320 743 l-89 128 46 66 c26 36 59
82 73 102 l26 37 70 -47 c98 -66 185 -93 314 -99 191 -8 330 48 471 188 73 72
94 101 132 180 62 127 79 206 79 355 -1 176 -49 349 -132 471 -17 25 -28 49
-25 53 2 5 19 11 36 15 111 22 289 135 415 262 52 53 94 99 94 104 0 5 -42 51
-94 104 -126 127 -304 240 -415 262 -17 4 -34 10 -36 15 -3 4 8 28 25 53 83
122 131 295 132 471 0 149 -17 228 -78 354 -37 76 -61 109 -127 176 -143 144
-284 201 -476 193 -133 -6 -215 -32 -313 -97 l-72 -49 -26 37 c-14 20 -47 66
-73 102 l-46 66 80 114 c237 337 329 549 329 757 0 304 -183 514 -447 511 -43
0 -96 -6 -118 -13z m349 -1758 c107 -190 122 -385 32 -443 -72 -47 -145 -38
-199 26 -74 86 -75 224 -1 359 29 53 99 140 113 140 4 0 29 -37 55 -82z m691
-995 c-52 -47 -172 -125 -243 -159 -65 -32 -172 -44 -197 -24 -28 23 -18 65
25 103 85 78 202 116 355 116 l100 0 -40 -36z m-243 -446 c71 -35 191 -113
243 -160 l40 -36 -95 -1 c-148 0 -277 41 -359 115 -43 39 -54 78 -28 104 21
22 133 9 199 -22z m-427 -706 c100 -57 92 -250 -20 -445 -25 -44 -47 -82 -50
-84 -9 -9 -57 41 -97 102 -93 144 -102 301 -21 395 52 61 117 72 188 32z"/>
<path d="M1523 9380 c-28 -11 -28 -9 -4 -91 65 -229 170 -426 518 -979 277
-440 365 -635 393 -878 20 -169 -9 -309 -86 -414 -60 -81 -180 -156 -268 -167
-59 -7 -83 -33 -51 -57 53 -39 242 42 346 148 224 229 236 589 33 992 -70 139
-98 187 -313 536 -211 344 -353 617 -409 791 l-41 124 -48 2 c-26 1 -58 -2
-70 -7z"/>
<path d="M11150 9372 c0 -86 -176 -465 -348 -747 -296 -486 -344 -569 -400
-680 -130 -258 -176 -481 -138 -677 35 -179 124 -315 267 -408 94 -61 210 -92
244 -66 32 24 8 50 -51 57 -88 11 -208 86 -268 167 -77 105 -106 245 -86 414
28 243 116 438 393 878 294 468 386 630 460 815 58 146 82 234 68 248 -6 6
-40 13 -76 15 -60 4 -65 3 -65 -16z"/>
<path d="M2025 6006 c-32 -24 -8 -50 51 -57 56 -7 116 -35 186 -86 204 -148
231 -479 69 -853 -57 -131 -126 -251 -341 -595 -278 -446 -338 -553 -415 -745
-57 -143 -80 -229 -65 -244 6 -6 38 -11 71 -11 l60 0 41 124 c57 177 199 449
424 816 289 469 361 612 410 802 86 338 -6 627 -247 783 -94 61 -210 92 -244
66z"/>
<path d="M10692 6009 c-101 -20 -237 -108 -305 -197 -97 -128 -132 -244 -131
-427 2 -274 68 -429 438 -1030 104 -170 233 -395 286 -500 88 -172 170 -380
170 -429 0 -16 7 -18 65 -14 36 2 70 9 76 15 14 14 -10 102 -66 243 -77 192
-137 299 -415 745 -215 344 -284 464 -341 595 -136 314 -141 598 -13 772 60
81 180 156 268 167 59 7 83 33 52 57 -22 15 -22 15 -84 3z"/>
<path d="M2200 3390 c0 -545 2 -990 5 -990 2 0 16 5 30 12 l25 11 0 960 0 959
-22 19 c-13 10 -26 18 -30 19 -5 0 -8 -445 -8 -990z"/>
<path d="M10563 4361 l-23 -19 0 -959 0 -960 25 -11 c14 -7 28 -12 30 -12 3 0
5 445 5 990 0 545 -3 990 -7 990 -5 -1 -18 -9 -30 -19z"/>
<path d="M1473 3303 c-4 -15 -8 -120 -7 -233 0 -239 13 -302 90 -459 74 -151
187 -251 339 -303 49 -16 79 -19 170 -16 99 3 117 7 177 35 122 58 211 166
237 291 29 141 -7 344 -65 366 -50 19 -77 -64 -29 -86 35 -16 48 -72 43 -193
-3 -84 -8 -108 -31 -153 -116 -223 -417 -252 -596 -56 -127 138 -201 412 -188
690 l6 121 -45 7 c-24 3 -55 8 -69 12 -20 5 -25 2 -32 -23z"/>
<path d="M11238 3317 l-57 -10 6 -121 c13 -278 -61 -552 -188 -690 -88 -97
-229 -148 -346 -127 -114 22 -192 77 -243 173 -31 57 -35 72 -38 163 -4 97 9
185 28 185 17 0 40 32 40 55 0 30 -32 50 -59 36 -57 -31 -89 -225 -60 -363 27
-127 113 -233 237 -291 60 -28 78 -32 177 -35 91 -3 121 0 170 16 152 52 265
152 339 303 77 156 89 220 90 459 1 208 -5 261 -27 259 -6 -1 -38 -6 -69 -12z"/>
<path d="M5236 2534 c-112 -20 -243 -66 -370 -130 -139 -70 -188 -99 -536
-313 -342 -210 -616 -352 -791 -409 l-124 -41 0 -60 c0 -33 5 -65 11 -71 15
-15 101 8 249 67 185 74 347 166 815 460 443 280 640 367 883 393 171 19 304
-9 409 -86 81 -60 156 -180 167 -268 7 -59 33 -83 57 -51 26 34 -5 150 -66
244 -143 221 -404 319 -704 265z"/>
<path d="M7260 2535 c-174 -35 -309 -125 -400 -266 -61 -94 -92 -210 -66 -244
24 -32 50 -8 57 51 11 88 86 208 167 268 105 77 238 105 409 86 243 -26 440
-113 883 -393 468 -294 630 -386 815 -460 148 -59 234 -82 249 -67 6 6 11 38
11 71 l0 60 -124 41 c-175 57 -449 199 -791 409 -348 214 -397 243 -536 313
-248 124 -481 170 -674 131z"/>
<path d="M2605 2476 c-212 -53 -343 -259 -314 -497 22 -181 137 -333 324 -425
120 -59 222 -84 375 -91 126 -6 307 3 328 16 8 5 8 24 0 73 l-12 67 -120 -6
c-277 -13 -551 61 -690 188 -97 88 -148 229 -127 346 22 114 77 192 173 243
57 31 72 35 163 38 118 5 176 -8 190 -40 14 -31 69 -37 84 -9 6 11 8 26 5 35
-23 60 -242 96 -379 62z"/>
<path d="M9928 2474 c-63 -15 -103 -37 -112 -60 -9 -24 12 -54 39 -54 23 0 55
23 55 40 0 19 88 32 185 28 91 -3 106 -7 163 -38 212 -113 239 -395 54 -579
-133 -133 -409 -212 -698 -198 l-120 6 -12 -67 c-8 -49 -8 -68 0 -73 21 -13
202 -22 328 -16 154 7 255 32 379 93 205 101 321 277 322 486 0 137 -34 229
-119 320 -104 111 -288 155 -464 112z"/>
<path d="M2412 2235 c-7 -14 -12 -28 -12 -30 0 -3 445 -5 990 -5 545 0 990 3
990 8 -1 4 -9 17 -19 30 l-19 22 -959 0 -960 0 -11 -25z"/>
<path d="M8438 2235 c-10 -13 -18 -26 -18 -29 0 -3 446 -6 990 -6 545 0 990 2
990 5 0 2 -5 16 -12 30 l-11 25 -961 0 -961 -1 -17 -24z"/>
<path d="M3755 2080 c-175 -32 -330 -141 -393 -278 -37 -82 -43 -211 -12 -301
66 -196 248 -311 492 -311 209 0 409 86 743 320 l128 89 66 -46 c36 -26 82
-59 102 -73 l37 -26 -49 -72 c-65 -97 -91 -181 -96 -312 -9 -191 47 -330 187
-471 72 -73 101 -94 180 -132 52 -26 124 -53 160 -61 86 -21 279 -21 378 0 93
19 224 70 288 113 26 18 50 29 54 24 4 -4 12 -28 19 -53 40 -140 163 -319 302
-440 l59 -52 66 58 c127 112 258 305 295 434 7 25 15 49 19 53 4 5 28 -6 54
-24 64 -43 195 -94 288 -113 99 -21 292 -21 378 0 36 8 108 35 160 61 79 38
108 59 180 132 140 141 196 280 188 471 -6 129 -33 216 -99 314 l-47 70 37 26
c20 14 66 47 102 73 l66 46 128 -89 c334 -234 534 -320 743 -320 223 0 394 96
475 268 30 63 32 74 32 177 0 98 -3 116 -27 167 -53 114 -164 206 -305 254
-133 46 -318 36 -456 -24 l-42 -18 28 -19 c27 -17 30 -17 100 4 87 28 233 38
306 22 134 -29 247 -117 304 -238 25 -54 32 -84 35 -146 5 -97 -9 -150 -57
-213 -55 -73 -127 -107 -243 -112 -160 -8 -308 32 -518 139 -102 52 -295 170
-358 219 l-22 18 132 85 c191 123 177 111 146 131 -26 17 -27 17 -125 -44 -54
-34 -119 -77 -146 -96 -26 -19 -51 -34 -56 -34 -6 0 -52 27 -103 61 -251 164
-504 250 -733 251 -205 1 -349 -54 -476 -181 -98 -98 -131 -164 -137 -272 -6
-107 11 -187 63 -294 66 -137 186 -245 273 -245 52 0 69 43 31 81 -18 18 -28
20 -65 14 -43 -6 -45 -5 -97 47 -98 99 -153 241 -145 378 8 140 82 251 209
314 96 48 161 60 304 53 139 -6 249 -33 393 -96 93 -40 273 -142 327 -185 l28
-23 -96 -67 -97 -67 -62 52 c-202 168 -466 183 -572 32 -51 -74 -47 -185 11
-254 97 -115 296 -102 528 36 42 25 80 45 84 45 14 0 49 -75 65 -135 59 -235
5 -458 -148 -608 -212 -207 -622 -248 -885 -89 l-65 39 3 115 c7 315 -158 578
-299 478 -39 -28 -53 -69 -48 -144 6 -103 88 -252 228 -416 l47 -55 -12 -45
c-17 -64 -47 -127 -89 -185 -49 -68 -207 -225 -226 -225 -19 0 -177 157 -226
225 -42 58 -72 121 -89 185 l-12 45 47 55 c140 164 222 313 228 416 5 75 -9
116 -48 144 -74 52 -162 4 -227 -124 -53 -105 -65 -161 -69 -321 l-3 -150 -63
-38 c-95 -57 -203 -88 -333 -94 -337 -17 -607 146 -695 418 -44 136 -29 362
33 472 11 20 24 37 28 37 4 0 42 -21 85 -46 180 -107 322 -137 438 -94 95 36
142 113 134 216 -8 99 -79 169 -197 196 -118 26 -283 -27 -409 -131 l-62 -52
-95 66 c-52 36 -95 68 -95 71 0 11 189 127 282 172 186 91 342 132 505 132
215 0 370 -84 441 -238 70 -153 20 -374 -115 -510 -52 -52 -54 -53 -97 -47
-37 6 -47 4 -65 -14 -38 -38 -21 -81 31 -81 83 0 206 107 268 234 55 112 73
191 68 296 -5 117 -36 180 -137 281 -127 127 -271 182 -476 181 -230 -1 -481
-87 -733 -251 -51 -34 -97 -61 -103 -61 -5 0 -30 15 -56 34 -27 19 -92 62
-146 96 -98 61 -99 61 -125 44 -31 -20 -45 -8 146 -131 l132 -85 -22 -18 c-63
-49 -256 -167 -358 -219 -210 -107 -358 -147 -518 -139 -116 5 -188 39 -243
112 -48 63 -62 116 -57 213 8 186 148 343 339 384 73 16 219 6 306 -22 70 -21
73 -21 100 -4 l28 19 -41 18 c-103 44 -268 66 -369 48z m1680 -461 c59 -15
122 -70 135 -118 17 -64 -14 -137 -73 -168 -45 -24 -155 -22 -242 5 -69 21
-235 108 -235 123 0 14 87 84 140 113 95 52 188 67 275 45z m2101 -3 c69 -18
147 -62 203 -113 45 -40 45 -42 26 -57 -11 -8 -60 -36 -110 -61 -176 -89 -346
-94 -400 -11 -47 72 -38 145 26 200 64 54 154 69 255 42z m-1256 -461 c8 -10
11 -37 8 -77 -6 -91 -89 -248 -192 -363 l-35 -40 -1 94 c0 152 40 276 117 361
38 43 80 53 103 25z m345 -26 c74 -82 115 -211 115 -359 l-1 -95 -36 40 c-47
52 -125 172 -159 243 -32 65 -44 172 -24 197 24 28 65 18 105 -26z"/>
</g>
</svg>
